<svg width="80" height="80" viewBox="0 0 80 80" fill="none" xmlns="http://www.w3.org/2000/svg">
<path d="M29.9997 63.3333C29.9997 65.8333 29.2997 68.2 28.0663 70.2C25.7663 74.0667 21.533 76.6667 16.6663 76.6667C11.7997 76.6667 7.56635 74.0667 5.26635 70.2C4.03301 68.2 3.33301 65.8333 3.33301 63.3333C3.33301 55.9667 9.29967 50 16.6663 50C24.033 50 29.9997 55.9667 29.9997 63.3333Z" stroke="#397BE7" stroke-width="4" stroke-miterlimit="10" stroke-linecap="round" stroke-linejoin="round"/>
<path d="M11.4707 63.3318L14.7707 66.6318L21.8707 60.0652" stroke="#397BE7" stroke-width="4" stroke-linecap="round" stroke-linejoin="round"/>
<path d="M59.171 23.5C58.371 23.3666 57.5377 23.3334 56.671 23.3334H23.3377C22.4044 23.3334 21.5044 23.4 20.6377 23.5333C21.1044 22.6 21.771 21.7334 22.571 20.9334L33.4044 10.0667C37.971 5.53341 45.371 5.53341 49.9377 10.0667L55.771 15.9666C57.9044 18.0666 59.0377 20.7333 59.171 23.5Z" stroke="#397BE7" stroke-width="4" stroke-linecap="round" stroke-linejoin="round"/>
<path d="M73.3337 39.9999V56.6666C73.3337 66.6666 66.667 73.3333 56.667 73.3333H25.4337C26.467 72.4666 27.367 71.3999 28.067 70.1999C29.3003 68.1999 30.0003 65.8333 30.0003 63.3333C30.0003 55.9666 24.0337 49.9999 16.667 49.9999C12.667 49.9999 9.10033 51.7665 6.66699 54.5332V39.9999C6.66699 30.9333 12.1337 24.5999 20.6337 23.5332C21.5003 23.3999 22.4003 23.3333 23.3337 23.3333H56.667C57.5337 23.3333 58.367 23.3665 59.167 23.4999C67.767 24.4999 73.3337 30.8666 73.3337 39.9999Z" stroke="#397BE7" stroke-width="4" stroke-linecap="round" stroke-linejoin="round"/>
<path d="M73.3337 41.6667H63.3337C59.667 41.6667 56.667 44.6667 56.667 48.3334C56.667 52.0001 59.667 55.0001 63.3337 55.0001H73.3337" stroke="#397BE7" stroke-width="4" stroke-linecap="round" stroke-linejoin="round"/>
</svg>
