<svg width="80" height="80" viewBox="0 0 80 80" fill="none" xmlns="http://www.w3.org/2000/svg">
<path d="M48.4994 6.66675H31.4993C25.4993 6.66675 24.166 9.66678 23.3994 13.3668L20.666 26.4334H59.3327L56.5993 13.3668C55.8327 9.66678 54.4994 6.66675 48.4994 6.66675Z" stroke="#397BE7" stroke-width="4" stroke-linecap="round" stroke-linejoin="round"/>
<path d="M64.1329 47.7333C64.3996 50.5666 62.1329 53 59.2329 53H54.6995C52.0995 53 51.7329 51.9 51.2662 50.5L50.7662 49.0665C50.0995 47.0999 49.6662 45.7666 46.1662 45.7666H33.7995C30.3329 45.7666 29.7995 47.2665 29.1995 49.0665L28.6995 50.5C28.2329 51.8667 27.8662 53 25.2662 53H20.7329C17.8329 53 15.5662 50.5666 15.8329 47.7333L17.1995 33C17.5329 29.3667 18.2328 26.3999 24.5662 26.3999H55.3995C61.7328 26.3999 62.4329 29.3667 62.7662 33L64.1329 47.7333Z" stroke="#397BE7" stroke-width="4" stroke-linecap="round" stroke-linejoin="round"/>
<path d="M20.6657 19.1667H18.2324" stroke="#397BE7" stroke-width="4" stroke-linecap="round" stroke-linejoin="round"/>
<path d="M61.7663 19.1667H59.333" stroke="#397BE7" stroke-width="4" stroke-linecap="round" stroke-linejoin="round"/>
<path d="M25.5 36.1001H32.7334" stroke="#397BE7" stroke-width="4" stroke-linecap="round" stroke-linejoin="round"/>
<path d="M47.2666 36.1001H54.5" stroke="#397BE7" stroke-width="4" stroke-linecap="round" stroke-linejoin="round"/>
<path d="M40 56.6667V60.0001" stroke="#397BE7" stroke-width="4" stroke-linecap="round" stroke-linejoin="round"/>
<path d="M40 70V73.3333" stroke="#397BE7" stroke-width="4" stroke-linecap="round" stroke-linejoin="round"/>
<path d="M10.0003 60L6.66699 73.3333" stroke="#397BE7" stroke-width="4" stroke-linecap="round" stroke-linejoin="round"/>
<path d="M70 60L73.3333 73.3333" stroke="#397BE7" stroke-width="4" stroke-linecap="round" stroke-linejoin="round"/>
</svg>
