<svg width="80" height="80" viewBox="0 0 80 80" fill="none" xmlns="http://www.w3.org/2000/svg">
<path d="M24.9336 61.1667L35.2669 69.1667C36.6003 70.5001 39.6003 71.1667 41.6003 71.1667H54.2669C58.2669 71.1667 62.6003 68.1667 63.6003 64.1667L71.6003 39.8334C73.2669 35.1667 70.2669 31.1667 65.2669 31.1667H51.9336C49.9336 31.1667 48.2669 29.5001 48.6003 27.1667L50.2669 16.5001C50.9336 13.5001 48.9336 10.1667 45.9336 9.16672C43.2669 8.16672 39.9336 9.50006 38.6003 11.5001L24.9336 31.8334" stroke="#397BE7" stroke-width="4" stroke-miterlimit="10"/>
<path d="M7.93359 61.1668V28.5001C7.93359 23.8334 9.93359 22.1667 14.6003 22.1667H17.9336C22.6003 22.1667 24.6003 23.8334 24.6003 28.5001V61.1668C24.6003 65.8334 22.6003 67.5001 17.9336 67.5001H14.6003C9.93359 67.5001 7.93359 65.8334 7.93359 61.1668Z" stroke="#397BE7" stroke-width="4" stroke-linecap="round" stroke-linejoin="round"/>
</svg>
