<svg width="80" height="80" viewBox="0 0 80 80" fill="none" xmlns="http://www.w3.org/2000/svg">
<path d="M6.66675 33.3335H73.3334" stroke="#1D68E4" stroke-width="4" stroke-miterlimit="10" stroke-linecap="round" stroke-linejoin="round"/>
<path d="M38.4943 68.3326H21.4611C9.62773 68.3326 6.62769 65.3992 6.62769 53.6992V26.2992C6.62769 15.6992 9.09445 12.2992 18.3945 11.7659C19.3278 11.7326 20.3611 11.6992 21.4611 11.6992H58.4943C70.3277 11.6992 73.3277 14.6326 73.3277 26.3326V41.0326" stroke="#1D68E4" stroke-width="4" stroke-linecap="round" stroke-linejoin="round"/>
<path d="M20 53.3335H33.3333" stroke="#1D68E4" stroke-width="4" stroke-miterlimit="10" stroke-linecap="round" stroke-linejoin="round"/>
<path d="M73.3334 59.9998C73.3334 62.4998 72.6334 64.8665 71.4 66.8665C69.1 70.7332 64.8667 73.3332 60.0001 73.3332C55.1334 73.3332 50.9001 70.7332 48.6001 66.8665C47.3668 64.8665 46.6667 62.4998 46.6667 59.9998C46.6667 52.6332 52.6334 46.6665 60.0001 46.6665C67.3667 46.6665 73.3334 52.6332 73.3334 59.9998Z" stroke="#1D68E4" stroke-width="4" stroke-miterlimit="10" stroke-linecap="round" stroke-linejoin="round"/>
<path d="M54.8047 59.9986L58.1047 63.2986L65.2047 56.7319" stroke="#1D68E4" stroke-width="4" stroke-linecap="round" stroke-linejoin="round"/>
</svg>
