<svg width="80" height="80" viewBox="0 0 80 80" fill="none" xmlns="http://www.w3.org/2000/svg">
<path d="M30.5333 36.2332C30.1999 36.1998 29.7999 36.1998 29.4333 36.2332C21.5 35.9665 15.2 29.4665 15.2 21.4665C15.2 13.2998 21.8 6.6665 29.9999 6.6665C38.1666 6.6665 44.7999 13.2998 44.7999 21.4665C44.7666 29.4665 38.4666 35.9665 30.5333 36.2332Z" stroke="#1D68E4" stroke-width="4" stroke-linecap="round" stroke-linejoin="round"/>
<path d="M54.7001 13.3335C61.1667 13.3335 66.3667 18.5668 66.3667 25.0002C66.3667 31.3002 61.3667 36.4335 55.1334 36.6668C54.8667 36.6335 54.5667 36.6335 54.2667 36.6668" stroke="#1D68E4" stroke-width="4" stroke-linecap="round" stroke-linejoin="round"/>
<path d="M13.8667 48.5335C5.79998 53.9335 5.79998 62.7335 13.8667 68.1002C23.0333 74.2335 38.0667 74.2335 47.2333 68.1002C55.3 62.7002 55.3 53.9002 47.2333 48.5335C38.1 42.4335 23.0667 42.4335 13.8667 48.5335Z" stroke="#1D68E4" stroke-width="4" stroke-linecap="round" stroke-linejoin="round"/>
<path d="M61.1333 66.6665C63.5333 66.1665 65.8 65.1998 67.6666 63.7665C72.8666 59.8665 72.8666 53.4332 67.6666 49.5332C65.8333 48.1332 63.6 47.1998 61.2333 46.6665" stroke="#1D68E4" stroke-width="4" stroke-linecap="round" stroke-linejoin="round"/>
</svg>
