<svg width="80" height="80" viewBox="0 0 80 80" fill="none" xmlns="http://www.w3.org/2000/svg">
<path d="M73.2333 61.0998C73.2333 62.2998 72.9666 63.5332 72.4 64.7332C71.8333 65.9332 71.1 67.0665 70.1333 68.1332C68.5 69.9332 66.7 71.2332 64.6666 72.0665C62.6666 72.8998 60.5 73.3332 58.1666 73.3332C54.7666 73.3332 51.1333 72.5332 47.3 70.8998C43.4666 69.2665 39.6333 67.0665 35.8333 64.2998C32 61.4998 28.3666 58.3998 24.9 54.9665C21.4666 51.4998 18.3666 47.8665 15.6 44.0665C12.8666 40.2665 10.6666 36.4665 9.06663 32.6998C7.46663 28.8998 6.66663 25.2665 6.66663 21.7998C6.66663 19.5332 7.06663 17.3665 7.86663 15.3665C8.66663 13.3332 9.93329 11.4665 11.7 9.79984C13.8333 7.69984 16.1666 6.6665 18.6333 6.6665C19.5666 6.6665 20.5 6.8665 21.3333 7.2665C22.2 7.6665 22.9666 8.2665 23.5666 9.13317L31.3 20.0332C31.9 20.8665 32.3333 21.6332 32.6333 22.3665C32.9333 23.0665 33.1 23.7665 33.1 24.3998C33.1 25.1998 32.8666 25.9998 32.4 26.7665C31.9666 27.5332 31.3333 28.3332 30.5333 29.1332L28 31.7665C27.6333 32.1332 27.4666 32.5665 27.4666 33.0998C27.4666 33.3665 27.5 33.5998 27.5666 33.8665C27.6666 34.1332 27.7666 34.3332 27.8333 34.5332C28.4333 35.6332 29.4666 37.0665 30.9333 38.7998C32.4333 40.5332 34.0333 42.2998 35.7666 44.0665C37.5666 45.8332 39.3 47.4665 41.0666 48.9665C42.8 50.4332 44.2333 51.4332 45.3666 52.0332C45.5333 52.0998 45.7333 52.1998 45.9666 52.2998C46.2333 52.3998 46.5 52.4332 46.8 52.4332C47.3666 52.4332 47.8 52.2332 48.1666 51.8665L50.7 49.3665C51.5333 48.5332 52.3333 47.8998 53.1 47.4998C53.8666 47.0332 54.6333 46.7998 55.4666 46.7998C56.1 46.7998 56.7666 46.9332 57.5 47.2332C58.2333 47.5332 59 47.9665 59.8333 48.5332L70.8666 56.3665C71.7333 56.9665 72.3333 57.6665 72.7 58.4998C73.0333 59.3332 73.2333 60.1665 73.2333 61.0998Z" stroke="#1D68E4" stroke-width="4" stroke-miterlimit="10"/>
<path d="M61.6667 29.9997C61.6667 27.9997 60.1 24.933 57.7667 22.433C55.6333 20.133 52.8 18.333 50 18.333" stroke="#1D68E4" stroke-width="4" stroke-linecap="round" stroke-linejoin="round"/>
<path d="M73.3333 29.9998C73.3333 17.0998 62.9 6.6665 50 6.6665" stroke="#1D68E4" stroke-width="4" stroke-linecap="round" stroke-linejoin="round"/>
</svg>
