<svg width="80" height="80" viewBox="0 0 80 80" fill="none" xmlns="http://www.w3.org/2000/svg">
<path d="M6.6665 33.3333H73.3332" stroke="#397BE7" stroke-width="4" stroke-miterlimit="10" stroke-linecap="round" stroke-linejoin="round"/>
<path d="M38.4941 68.3326H21.4608C9.62748 68.3326 6.62744 65.3992 6.62744 53.6992V26.2992C6.62744 15.6992 9.09421 12.2992 18.3942 11.7659C19.3275 11.7326 20.3608 11.6992 21.4608 11.6992H58.4941C70.3274 11.6992 73.3275 14.6326 73.3275 26.3326V41.0326" stroke="#397BE7" stroke-width="4" stroke-linecap="round" stroke-linejoin="round"/>
<path d="M20 53.3333H33.3333" stroke="#397BE7" stroke-width="4" stroke-miterlimit="10" stroke-linecap="round" stroke-linejoin="round"/>
<path d="M73.3332 60.0001C73.3332 62.5001 72.6331 64.8667 71.3998 66.8667C69.0998 70.7334 64.8665 73.3334 59.9998 73.3334C55.1332 73.3334 50.8999 70.7334 48.5999 66.8667C47.3666 64.8667 46.6665 62.5001 46.6665 60.0001C46.6665 52.6334 52.6332 46.6667 59.9998 46.6667C67.3665 46.6667 73.3332 52.6334 73.3332 60.0001Z" stroke="#397BE7" stroke-width="4" stroke-miterlimit="10" stroke-linecap="round" stroke-linejoin="round"/>
<path d="M54.8047 59.9983L58.1047 63.2984L65.2047 56.7317" stroke="#397BE7" stroke-width="4" stroke-linecap="round" stroke-linejoin="round"/>
</svg>
