<svg width="197" height="53" viewBox="0 0 197 53" fill="none" xmlns="http://www.w3.org/2000/svg">
<g clip-path="url(#clip0_353_3414)">
<path d="M180.125 25.599H169.187C172.468 24.4948 173.555 23.3995 174.652 20.1135C175.748 23.3995 176.845 24.4948 180.125 25.5902V25.599ZM5.46346 0C2.65554 1.3515 0.979691 3.77183 -0.00976562 7.314V0H5.46346ZM10.0096 18.285V7.314C10.0096 3.43617 9.65304 2.08467 7.64738 0H17.123C15.1173 2.08467 14.7519 3.445 14.7519 7.314V18.285C14.7519 22.154 15.1173 23.5143 17.123 25.599H7.64738C9.65304 23.5143 10.0185 22.154 10.0185 18.285H10.0096ZM24.7801 7.314C23.7996 3.77183 22.1149 1.3515 19.3069 0H24.7801V7.314ZM42.3764 0C38.2225 2.29667 35.7801 6.6515 35.7801 12.7995C35.7801 18.9387 38.2225 23.2935 42.3764 25.599C35.7801 25.599 29.9503 21.571 29.9503 12.7907C29.9503 4.01917 35.7801 0 42.3764 0ZM46.0312 25.599C50.1762 23.2935 52.6276 18.9387 52.6276 12.7907C52.6276 6.6515 50.1762 2.3055 46.0312 0C52.6276 0 58.4573 4.01917 58.4573 12.7995C58.4573 21.571 52.6187 25.599 46.0223 25.599H46.0312ZM65.8203 18.285V7.314C65.8203 3.43617 65.446 2.08467 63.4403 0H72.9248C70.9192 2.08467 70.5537 3.445 70.5537 7.314V18.285C70.5537 22.154 70.9102 23.5143 72.9248 25.599H63.4403C65.446 23.5143 65.8114 22.154 65.8114 18.285H65.8203ZM76.5618 18.868C79.9937 17.1897 82.8016 13.9655 82.8016 9.434C82.8016 4.9025 79.9937 1.7225 76.5618 0C81.7051 0 88.2658 2.597 88.2658 9.434C88.2658 16.271 81.7051 18.868 76.5618 18.868ZM109.633 25.599H98.7042C101.985 24.4948 103.072 23.3995 104.168 20.1135C105.265 23.3995 106.361 24.4948 109.633 25.5902V25.599ZM126.516 25.599H112.557C114.812 24.8658 116.122 23.3995 114.669 20.1135L110.622 11.1123C108.144 5.52084 109.998 2.3055 111.246 0L120.321 20.1135C121.845 23.3995 123.708 24.8658 126.516 25.5902V25.599ZM139.379 25.599C131.722 25.599 129.279 24.0973 127.532 20.1135L123.485 11.1123C121.007 5.52084 122.861 2.3055 124.109 0L133.184 20.1135C134.717 23.3995 136.571 24.8658 139.379 25.5902V25.599ZM154.212 0C150.058 2.29667 147.615 6.6515 147.615 12.7995C147.615 18.9387 150.058 23.2935 154.212 25.599C147.615 25.599 141.786 21.571 141.786 12.7907C141.786 4.028 147.615 0 154.212 0ZM163.322 5.4855C162.226 2.1995 161.138 1.09533 157.858 0.00883185H163.322V5.4855ZM157.858 25.599C161.138 24.4948 162.226 23.3995 163.322 20.1135V25.5902L157.858 25.599ZM185.152 20.1135L185.01 19.7955C183.548 17.0307 181.89 16.006 177.558 14.9902H182.853L181.105 11.1123C178.627 5.52084 180.481 2.3055 181.729 0L190.804 20.1135C192.328 23.3995 194.191 24.8658 196.999 25.5902H183.04C185.295 24.8658 186.605 23.3995 185.152 20.1135ZM192.801 35.404L182.772 36.1902H14.217L4.18876 35.404H192.801ZM24.5662 51.675L24.2364 50.9065C23.9059 50.1698 23.5612 49.4394 23.2024 48.7158C22.7968 47.841 22.3718 46.9751 21.9277 46.1188C21.8296 47.0905 21.7494 48.1328 21.687 49.2723L21.5354 52.8322H20.7599C20.8312 51.3747 20.9115 49.9702 21.0006 48.6363C21.0897 47.3025 21.1967 46.0217 21.3304 44.8027H22.0168C22.2486 45.1825 22.4982 45.633 22.7656 46.1365C23.3135 47.1817 23.8249 48.2452 24.2988 49.3253L24.9406 50.7563C25.8292 48.7329 26.8016 46.7467 27.8555 44.8027H28.5151C28.6488 46.0217 28.7558 47.3025 28.8449 48.6363C28.9341 49.9702 29.0143 51.3747 29.0856 52.8322H28.2834C28.2388 51.5955 28.1942 50.403 28.1318 49.2723C28.079 48.2193 27.9988 47.1678 27.8912 46.1188L27.6059 46.6753C26.781 48.3202 26.0023 49.9874 25.2704 51.675H24.5662ZM41.2622 48.813C41.2622 49.502 41.1641 50.1027 40.9591 50.6327C40.763 51.1627 40.4956 51.5955 40.1568 51.9488C39.8003 52.3022 39.4081 52.5672 38.9535 52.7438C38.2667 53.0073 37.5187 53.0724 36.7961 52.9317C36.0735 52.791 35.4059 52.4502 34.8708 51.9488C34.5232 51.5955 34.2469 51.1538 34.0508 50.6238C33.8405 50.0432 33.7378 49.4298 33.7477 48.813C33.7477 48.124 33.8546 47.5145 34.0508 46.9933C34.2312 46.5067 34.5103 46.0617 34.8708 45.686C35.2096 45.3327 35.6107 45.0677 36.0653 44.891C36.7521 44.6276 37.5001 44.5624 38.2227 44.7031C38.9453 44.8438 39.6129 45.1846 40.1479 45.686C40.4956 46.0393 40.763 46.481 40.9591 46.9933C41.1641 47.5233 41.2622 48.124 41.2622 48.813ZM40.4332 48.813C40.4399 48.319 40.3677 47.8271 40.2192 47.3555C40.0855 46.9227 39.8894 46.5605 39.6309 46.2602C39.3813 45.9598 39.0693 45.7302 38.7128 45.5712C38.3562 45.4122 37.9551 45.3327 37.5094 45.3327C37.0637 45.3327 36.6626 45.4122 36.2971 45.5712C35.9405 45.7302 35.6374 45.9598 35.3789 46.2602C35.1293 46.5605 34.9332 46.9227 34.7906 47.3555C34.6465 47.8279 34.5773 48.3196 34.5856 48.813C34.5856 49.3518 34.6569 49.8377 34.7906 50.2617C34.9332 50.7033 35.1293 51.0567 35.3789 51.3658C35.6374 51.6662 35.9405 51.8958 36.2971 52.0548C36.6536 52.2227 37.0637 52.3022 37.5094 52.3022C37.9551 52.3022 38.3562 52.2138 38.7128 52.0548C39.0693 51.8958 39.3813 51.6662 39.6309 51.3658C39.8894 51.0567 40.0766 50.6945 40.2192 50.2617C40.3619 49.8377 40.4332 49.3518 40.4332 48.813ZM47.8675 52.3198C48.4915 52.3198 48.9728 52.2138 49.3205 51.9842C49.6681 51.7545 49.8375 51.3835 49.8375 50.8712C49.8375 50.5797 49.784 50.3323 49.6681 50.138C49.5611 49.9348 49.4096 49.767 49.2224 49.6345C49.0441 49.502 48.8302 49.3783 48.5984 49.2812C48.3488 49.1928 48.0993 49.0868 47.8408 48.9808C47.5109 48.8483 47.2168 48.7158 46.9494 48.5745C46.6819 48.442 46.468 48.283 46.2808 48.1063C46.0902 47.9317 45.9404 47.7178 45.8418 47.4798C45.7433 47.2418 45.6984 46.9853 45.7103 46.7283C45.7103 46.0393 45.942 45.5182 46.3967 45.156C46.8424 44.8027 47.4842 44.626 48.2865 44.626C49.0192 44.6205 49.7409 44.8031 50.3812 45.156L50.1049 45.8185C49.8564 45.6525 49.5825 45.5272 49.2937 45.4475C48.7279 45.2879 48.1314 45.2667 47.5555 45.3857C47.3595 45.4315 47.1746 45.5156 47.0117 45.633C46.8482 45.7504 46.717 45.9065 46.6298 46.087C46.5426 46.2675 46.5023 46.4667 46.5125 46.6665C46.5125 46.9138 46.5571 47.1258 46.6462 47.2848C46.7354 47.4615 46.8691 47.6117 47.0385 47.7265C47.1989 47.859 47.3951 47.965 47.6179 48.071L48.3488 48.3802L49.2402 48.7777C49.5255 48.9102 49.7751 49.0603 49.9801 49.237C50.2074 49.4337 50.3865 49.6791 50.5039 49.9546C50.6213 50.23 50.6738 50.5284 50.6576 50.827C50.6576 51.5513 50.408 52.099 49.8999 52.4612C49.4007 52.8233 48.7143 53.0088 47.8496 53.0088C47.1543 53.0076 46.4653 52.8788 45.8173 52.629C45.7069 52.5797 45.5997 52.5236 45.4964 52.4612L45.746 51.781C46.1697 52.0316 46.6392 52.1967 47.1276 52.2668C47.3505 52.3022 47.5912 52.3198 47.8675 52.3198ZM58.5643 53.0088C58.0716 53.0114 57.5834 52.9153 57.1292 52.7262C56.6835 52.5495 56.3002 52.2757 55.9703 51.9223C55.6405 51.569 55.382 51.1273 55.1948 50.5973C54.997 50.0232 54.9005 49.4196 54.9096 48.813C54.9096 48.1417 55.0165 47.541 55.2216 47.0198C55.4266 46.4987 55.694 46.057 56.0327 45.7037C56.3715 45.3503 56.7637 45.0853 57.2094 44.8998C57.6551 44.7232 58.1275 44.626 58.6089 44.626C59.2751 44.6293 59.9346 44.7582 60.5521 45.0058C60.6858 45.0588 60.7839 45.1118 60.8552 45.156L60.5967 45.845C60.3637 45.7093 60.1191 45.594 59.8658 45.5005C59.5105 45.379 59.1361 45.3222 58.7604 45.3327C58.2613 45.3327 57.8245 45.421 57.4501 45.5888C57.0757 45.7655 56.7637 45.9952 56.5052 46.3043C56.2556 46.6135 56.0595 46.9845 55.9347 47.4085C55.8037 47.8682 55.7407 48.3442 55.7475 48.8218C55.7475 49.3518 55.8099 49.8377 55.9347 50.2617C56.0595 50.7033 56.2467 51.0567 56.4963 51.3658C56.7459 51.6662 57.0489 51.8958 57.4055 52.0548C57.762 52.2227 58.1721 52.3022 58.6356 52.3022C59.1437 52.3022 59.5716 52.2492 59.9103 52.152C60.258 52.0637 60.5165 51.9577 60.6948 51.8605L60.9087 52.5318C60.8552 52.5672 60.7661 52.6202 60.6413 52.6643C59.9797 52.9175 59.2731 53.0347 58.5643 53.0088ZM72.4791 48.813C72.49 49.4327 72.3873 50.0493 72.176 50.6327C71.9993 51.1217 71.7232 51.5697 71.3649 51.9488C71.0261 52.3022 70.625 52.5672 70.1704 52.7438C69.4825 53.0091 68.7326 53.0752 68.0082 52.9345C67.2839 52.7937 66.6147 52.4519 66.0788 51.9488C65.7401 51.5955 65.4727 51.1538 65.2766 50.6238C65.0633 50.0438 64.9576 49.4303 64.9646 48.813C64.9646 48.124 65.0716 47.5145 65.2677 46.9933C65.4455 46.5074 65.7215 46.0625 66.0788 45.686C66.4265 45.3327 66.8276 45.0677 67.2822 44.891C67.969 44.6276 68.717 44.5624 69.4396 44.7031C70.1622 44.8438 70.8298 45.1846 71.3649 45.686C71.7036 46.0393 71.9799 46.481 72.176 46.9933C72.3811 47.5233 72.4791 48.124 72.4791 48.813ZM71.6501 48.813C71.6569 48.319 71.5847 47.8271 71.4362 47.3555C71.3025 46.9227 71.1064 46.5605 70.8479 46.2602C70.5983 45.9598 70.2863 45.7302 69.9297 45.5712C69.5732 45.4122 69.172 45.3327 68.7263 45.3327C68.2806 45.3327 67.8706 45.4122 67.514 45.5712C67.1574 45.7302 66.8544 45.9598 66.5958 46.2602C66.3463 46.5605 66.1501 46.9227 66.0075 47.3555C65.8632 47.8278 65.7941 48.3196 65.8025 48.813C65.8025 49.3518 65.8738 49.8377 66.0075 50.2617C66.1501 50.7033 66.3463 51.0567 66.5958 51.3658C66.8544 51.6662 67.1574 51.8958 67.514 52.0548C67.8706 52.2227 68.2806 52.3022 68.7263 52.3022C69.172 52.3022 69.5732 52.2138 69.9297 52.0548C70.2863 51.8958 70.5983 51.6662 70.8479 51.3658C71.1064 51.0567 71.2936 50.6945 71.4362 50.2617C71.5788 49.8377 71.6501 49.3518 71.6501 48.813ZM81.9904 45.7832C82.6127 47.8741 83.3507 49.9295 84.201 51.94C84.4685 51.0302 84.7359 49.9525 85.0033 48.7158C85.2707 47.4792 85.5382 46.1807 85.7789 44.8027H86.5544L86.1354 47.1258C85.8758 48.4507 85.5635 49.765 85.1994 51.0655C85.0211 51.6662 84.8429 52.258 84.6379 52.8322H83.791L83.2562 51.5072C82.6575 50.0485 82.1192 48.5662 81.6427 47.064C81.0219 49.0237 80.2959 50.9492 79.4677 52.8322H78.6387C78.2075 51.6396 77.8532 50.4211 77.5779 49.184C77.4264 48.5303 77.2838 47.8502 77.1501 47.1258C77.0074 46.4015 76.8737 45.6242 76.7311 44.8027H77.5423L77.8989 46.799C78.2254 48.5312 78.6359 50.2469 79.129 51.94L80.1987 49.1575C80.5731 48.1505 80.9474 47.0375 81.3129 45.7832H81.9904ZM100.211 53.0088C99.7149 53.0126 99.2236 52.9165 98.7666 52.7262C98.3209 52.5495 97.9376 52.2757 97.6078 51.9223C97.2868 51.569 97.0284 51.1273 96.8412 50.5973C96.6436 50.0232 96.5471 49.4196 96.5559 48.813C96.5559 48.1417 96.6539 47.541 96.859 47.0198C97.064 46.4987 97.3404 46.057 97.6791 45.7037C98.0178 45.3503 98.41 45.0853 98.8557 44.8998C99.3014 44.7232 99.7649 44.626 100.255 44.626C100.921 44.6293 101.581 44.7582 102.199 45.0058C102.323 45.0588 102.421 45.1118 102.493 45.156L102.243 45.845C102.007 45.7088 101.76 45.5935 101.503 45.5005C101.151 45.3801 100.779 45.3232 100.407 45.3327C99.8987 45.3327 99.4619 45.421 99.0875 45.5888C98.7131 45.7655 98.4011 45.9952 98.1515 46.3043C97.893 46.6135 97.7058 46.9845 97.581 47.4085C97.447 47.8677 97.381 48.3438 97.3849 48.8218C97.3849 49.3518 97.4473 49.8377 97.581 50.2617C97.7058 50.7033 97.893 51.0567 98.1337 51.3658C98.3833 51.6662 98.6863 51.8958 99.0429 52.0548C99.3995 52.2227 99.8095 52.3022 100.273 52.3022C100.781 52.3022 101.209 52.2492 101.557 52.152C101.895 52.0637 102.154 51.9577 102.332 51.8605L102.555 52.5318C101.821 52.8685 101.019 53.0318 100.211 53.0088ZM107.039 44.7938H107.823V52.8322H107.039V44.7938ZM118.11 44.7938V45.4828H115.543V52.8322H114.758V45.4828H112.191V44.8027L118.11 44.7938ZM124.689 52.8322V49.5285C123.684 47.9959 122.75 46.419 121.89 44.8027H122.799C123.478 46.2037 124.247 47.5609 125.099 48.866C125.944 47.5583 126.709 46.2014 127.389 44.8027H128.245C127.835 45.5358 127.407 46.3043 126.953 47.0905C126.498 47.8855 125.999 48.6805 125.473 49.5108V52.8322H124.689ZM143.658 52.8322C143.374 52.1038 143.113 51.3673 142.873 50.6238H138.951L138.568 51.7015L138.158 52.8322H137.338C137.876 51.3636 138.429 49.9001 138.996 48.442C139.497 47.2173 140.026 46.0038 140.582 44.8027H141.278C141.554 45.3945 141.821 45.9863 142.08 46.587C142.956 48.6453 143.774 50.7279 144.531 52.8322H143.658ZM140.903 45.7037C140.296 47.1059 139.731 48.5257 139.21 49.9613H142.624C142.093 48.5256 141.519 47.1058 140.903 45.7037ZM151.689 53.0088C151.154 53.0088 150.7 52.9205 150.325 52.7615C149.971 52.6151 149.659 52.3846 149.416 52.0902C149.184 51.8075 149.015 51.4718 148.917 51.092C148.81 50.7033 148.756 50.297 148.756 49.8553V44.785H149.541V49.7317C149.541 50.1733 149.594 50.5532 149.701 50.88C149.808 51.198 149.951 51.463 150.138 51.675C150.316 51.8782 150.539 52.0283 150.807 52.1343C151.074 52.2315 151.359 52.2845 151.68 52.2845C152.01 52.2845 152.304 52.2315 152.563 52.1343C152.83 52.0283 153.044 51.8693 153.231 51.6662C153.41 51.463 153.561 51.198 153.668 50.8712C153.766 50.5532 153.82 50.1733 153.82 49.7317V44.785H154.604V49.8377C154.604 50.2793 154.551 50.6857 154.453 51.0743C154.346 51.4542 154.185 51.781 153.944 52.0725C153.713 52.364 153.41 52.5848 153.044 52.7438C152.612 52.9186 152.147 53.0028 151.68 52.9912L151.689 53.0088ZM164.855 44.7938V45.4828H162.288V52.8322H161.503V45.4828H158.936V44.8027L164.855 44.7938ZM176.229 48.813C176.229 49.502 176.131 50.1027 175.926 50.6327C175.75 51.1217 175.474 51.5697 175.115 51.9488C174.768 52.3022 174.375 52.5672 173.921 52.7438C173.233 53.0091 172.483 53.0752 171.759 52.9345C171.034 52.7937 170.365 52.4519 169.829 51.9488C169.49 51.5955 169.223 51.1538 169.027 50.6238C168.814 50.0438 168.708 49.4303 168.715 48.813C168.715 48.124 168.822 47.5145 169.018 46.9933C169.196 46.5074 169.472 46.0625 169.829 45.686C170.177 45.3327 170.578 45.0677 171.033 44.891C171.719 44.6276 172.467 44.5624 173.19 44.7031C173.913 44.8438 174.58 45.1846 175.115 45.686C175.454 46.0393 175.73 46.481 175.926 46.9933C176.131 47.5233 176.229 48.124 176.229 48.813ZM175.4 48.813C175.406 48.3191 175.334 47.8274 175.187 47.3555C175.053 46.9227 174.857 46.5605 174.598 46.2602C174.349 45.9598 174.037 45.7302 173.68 45.5712C173.324 45.4122 172.922 45.3327 172.477 45.3327C172.031 45.3327 171.621 45.4122 171.264 45.5712C170.908 45.7302 170.605 45.9598 170.346 46.2602C170.097 46.5605 169.901 46.9227 169.758 47.3555C169.614 47.8278 169.544 48.3196 169.553 48.813C169.553 49.3518 169.615 49.8377 169.758 50.2617C169.901 50.7033 170.097 51.0567 170.346 51.3658C170.605 51.6662 170.908 51.8958 171.264 52.0548C171.621 52.2227 172.031 52.3022 172.477 52.3022C172.922 52.3022 173.324 52.2138 173.68 52.0548C174.037 51.8958 174.349 51.6662 174.598 51.3658C174.857 51.0567 175.044 50.6945 175.187 50.2617C175.333 49.7926 175.405 49.3039 175.4 48.813Z" fill="white"/>
</g>
<defs>
<clipPath id="clip0_353_3414">
<rect width="197" height="53" fill="white"/>
</clipPath>
</defs>
</svg>
