<svg xmlns="http://www.w3.org/2000/svg" width="22" height="24" viewBox="0 0 22 24"><defs><mask id="zuawb" width="2" height="2" x="-1" y="-1"><path fill="#fff" d="M2 0h18v20H2z"/><path d="M13.43 7.72a2.86 2.86 0 0 1-2.858 2.857A2.86 2.86 0 0 1 7.715 7.72a2.86 2.86 0 0 1 2.857-2.857A2.86 2.86 0 0 1 13.43 7.72zm-2.858 12.245a28.297 28.297 0 0 0 4.285-3.424c1.245-1.215 2.236-2.44 2.947-3.642.888-1.501 1.34-2.97 1.34-4.362 0-2.29-.893-4.442-2.511-6.062a8.517 8.517 0 0 0-6.06-2.51c-2.29 0-4.443.892-6.062 2.51A8.517 8.517 0 0 0 2 8.537c0 1.386.45 2.85 1.339 4.35.71 1.2 1.702 2.426 2.946 3.643 2.109 2.064 4.264 3.421 4.286 3.435z"/></mask><filter id="zuawa" width="42" height="46" x="-10" y="-12" filterUnits="userSpaceOnUse"><feOffset dy="2" in="SourceGraphic" result="FeOffset1023Out"/><feGaussianBlur in="FeOffset1023Out" result="FeGaussianBlur1024Out" stdDeviation="0.8 0.8"/></filter></defs><g><g><g filter="url(#zuawa)"><path fill="none" d="M13.43 7.72a2.86 2.86 0 0 1-2.858 2.857A2.86 2.86 0 0 1 7.715 7.72a2.86 2.86 0 0 1 2.857-2.857A2.86 2.86 0 0 1 13.43 7.72zm-2.858 12.245a28.297 28.297 0 0 0 4.285-3.424c1.245-1.215 2.236-2.44 2.947-3.642.888-1.501 1.34-2.97 1.34-4.362 0-2.29-.893-4.442-2.511-6.062a8.517 8.517 0 0 0-6.06-2.51c-2.29 0-4.443.892-6.062 2.51A8.517 8.517 0 0 0 2 8.537c0 1.386.45 2.85 1.339 4.35.71 1.2 1.702 2.426 2.946 3.643 2.109 2.064 4.264 3.421 4.286 3.435z" mask="url(&quot;#zuawb&quot;)"/><path fill-opacity=".16" d="M13.43 7.72a2.86 2.86 0 0 1-2.858 2.857A2.86 2.86 0 0 1 7.715 7.72a2.86 2.86 0 0 1 2.857-2.857A2.86 2.86 0 0 1 13.43 7.72zm-2.858 12.245a28.297 28.297 0 0 0 4.285-3.424c1.245-1.215 2.236-2.44 2.947-3.642.888-1.501 1.34-2.97 1.34-4.362 0-2.29-.893-4.442-2.511-6.062a8.517 8.517 0 0 0-6.06-2.51c-2.29 0-4.443.892-6.062 2.51A8.517 8.517 0 0 0 2 8.537c0 1.386.45 2.85 1.339 4.35.71 1.2 1.702 2.426 2.946 3.643 2.109 2.064 4.264 3.421 4.286 3.435z"/></g><path fill="#fff" d="M13.43 7.72a2.86 2.86 0 0 1-2.858 2.857A2.86 2.86 0 0 1 7.715 7.72a2.86 2.86 0 0 1 2.857-2.857A2.86 2.86 0 0 1 13.43 7.72zm-2.858 12.245a28.297 28.297 0 0 0 4.285-3.424c1.245-1.215 2.236-2.44 2.947-3.642.888-1.501 1.34-2.97 1.34-4.362 0-2.29-.893-4.442-2.511-6.062a8.517 8.517 0 0 0-6.06-2.51c-2.29 0-4.443.892-6.062 2.51A8.517 8.517 0 0 0 2 8.537c0 1.386.45 2.85 1.339 4.35.71 1.2 1.702 2.426 2.946 3.643 2.109 2.064 4.264 3.421 4.286 3.435z"/></g></g></svg>