<svg xmlns="http://www.w3.org/2000/svg" width="25" height="22" viewBox="0 0 25 22"><defs><mask id="n92pb" width="2" height="2" x="-1" y="-1"><path fill="#fff" d="M2 0h21v18H2z"/><path d="M9.285 9.154l9.007-5.547c.161-.1.328.12.189.248l-7.433 6.91a1.54 1.54 0 0 0-.478.921l-.253 1.877c-.033.25-.385.275-.454.033l-.974-3.422a.907.907 0 0 1 .396-1.02zM3.18 8.35l4.609 1.72 1.784 5.736a.542.542 0 0 0 .861.26l2.569-2.095c.27-.22.653-.23.934-.026l4.633 3.364c.32.232.771.057.851-.328L22.815.655a.543.543 0 0 0-.727-.618L3.175 7.333A.544.544 0 0 0 3.18 8.35z"/></mask><filter id="n92pa" width="45" height="44" x="-10" y="-12" filterUnits="userSpaceOnUse"><feOffset dy="2" in="SourceGraphic" result="FeOffset1047Out"/><feGaussianBlur in="FeOffset1047Out" result="FeGaussianBlur1048Out" stdDeviation="0.8 0.8"/></filter></defs><g><g><g filter="url(#n92pa)"><path fill="none" d="M9.285 9.154l9.007-5.547c.161-.1.328.12.189.248l-7.433 6.91a1.54 1.54 0 0 0-.478.921l-.253 1.877c-.033.25-.385.275-.454.033l-.974-3.422a.907.907 0 0 1 .396-1.02zM3.18 8.35l4.609 1.72 1.784 5.736a.542.542 0 0 0 .861.26l2.569-2.095c.27-.22.653-.23.934-.026l4.633 3.364c.32.232.771.057.851-.328L22.815.655a.543.543 0 0 0-.727-.618L3.175 7.333A.544.544 0 0 0 3.18 8.35z" mask="url(&quot;#n92pb&quot;)"/><path fill-opacity=".16" d="M9.285 9.154l9.007-5.547c.161-.1.328.12.189.248l-7.433 6.91a1.54 1.54 0 0 0-.478.921l-.253 1.877c-.033.25-.385.275-.454.033l-.974-3.422a.907.907 0 0 1 .396-1.02zM3.18 8.35l4.609 1.72 1.784 5.736a.542.542 0 0 0 .861.26l2.569-2.095c.27-.22.653-.23.934-.026l4.633 3.364c.32.232.771.057.851-.328L22.815.655a.543.543 0 0 0-.727-.618L3.175 7.333A.544.544 0 0 0 3.18 8.35z"/></g><path fill="#fff" d="M9.285 9.154l9.007-5.547c.161-.1.328.12.189.248l-7.433 6.91a1.54 1.54 0 0 0-.478.921l-.253 1.877c-.033.25-.385.275-.454.033l-.974-3.422a.907.907 0 0 1 .396-1.02zM3.18 8.35l4.609 1.72 1.784 5.736a.542.542 0 0 0 .861.26l2.569-2.095c.27-.22.653-.23.934-.026l4.633 3.364c.32.232.771.057.851-.328L22.815.655a.543.543 0 0 0-.727-.618L3.175 7.333A.544.544 0 0 0 3.18 8.35z"/></g></g></svg>