<svg width="122" height="19" viewBox="0 0 122 19" fill="none" xmlns="http://www.w3.org/2000/svg">
<path d="M16.7944 3.65887C17.2398 4.2372 17.6168 4.8655 17.9179 5.53116L9.37774 11.8542L5.80859 9.60705V6.90358L9.37774 9.15076L16.7944 3.65887Z" fill="#8EB4F2"/>
<path d="M2.16595 9.41621C2.16595 9.2949 2.16889 9.17439 2.17478 9.05458L0.0117801 8.94812C0.00441793 9.1034 2.61389e-06 9.26018 2.61389e-06 9.4184C-0.000917684 10.6547 0.241185 11.8789 0.712428 13.0209C1.18367 14.163 1.87477 15.2003 2.74609 16.0735L4.28036 14.5332C3.60965 13.8623 3.07757 13.0648 2.71471 12.1866C2.35185 11.3085 2.16535 10.367 2.16595 9.41621Z" fill="#8EB4F2"/>
<path d="M9.37574 2.17491C9.49646 2.17491 9.61643 2.17935 9.7357 2.18526L9.84393 0.0120138C9.68888 0.00461932 9.53277 0.000922511 9.37574 0.000922511C8.1443 -0.000585789 6.92476 0.24223 5.78706 0.715427C4.64935 1.18862 3.61592 1.88288 2.74609 2.75834L4.28037 4.29936C4.9484 3.62548 5.74247 3.09087 6.61692 2.72628C7.49137 2.3617 8.42891 2.17431 9.37574 2.17491Z" fill="#8EB4F2"/>
<path d="M9.37568 16.6577C9.25496 16.6577 9.13494 16.6577 9.01497 16.6481L8.90674 18.8206C9.06232 18.8285 9.21865 18.8324 9.37568 18.8324C10.6066 18.8337 11.8256 18.5907 12.9627 18.1174C14.0998 17.6441 15.1325 16.9497 16.0017 16.0743L14.4703 14.534C13.8022 15.2075 13.0082 15.7418 12.1339 16.1063C11.2597 16.4707 10.3223 16.6581 9.37568 16.6577Z" fill="#8EB4F2"/>
<path d="M13.4395 3.43846L15.2623 2.08896C13.5962 0.733889 11.5164 -0.00376154 9.37256 1.44248e-05V2.17474C10.8243 2.17293 12.2423 2.61358 13.4395 3.43846Z" fill="#8EB4F2"/>
<path d="M18.7507 9.41625C18.7519 8.85051 18.7026 8.28575 18.6034 7.72882L16.5855 9.22251C16.5855 9.28688 16.5855 9.35119 16.5855 9.41625C16.586 10.428 16.3748 11.4286 15.9657 12.3532C15.5566 13.2777 14.9585 14.1056 14.2104 14.7832L15.666 16.3989C16.6385 15.517 17.4157 14.4397 17.9471 13.2369C18.4786 12.0339 18.7523 10.7323 18.7507 9.41625Z" fill="#8EB4F2"/>
<path d="M9.37592 16.6577C8.36849 16.658 7.37222 16.4459 6.45158 16.035C5.53099 15.624 4.70657 15.0235 4.03172 14.2722L2.42383 15.7334C3.30173 16.7104 4.37429 17.4911 5.57194 18.025C6.7696 18.5588 8.06558 18.8339 9.37592 18.8324V16.6577Z" fill="#8EB4F2"/>
<path d="M4.54099 4.04924L3.08622 2.43353C2.11337 3.31524 1.33589 4.39248 0.804212 5.5954C0.272543 6.79831 -0.00144952 8.10004 5.76689e-06 9.41616H2.16595C2.16551 8.40444 2.3767 7.40383 2.78584 6.47928C3.19498 5.55475 3.79294 4.72685 4.54099 4.04924Z" fill="#8EB4F2"/>
<mask id="mask0_415_1427" style="mask-type:luminance" maskUnits="userSpaceOnUse" x="23" y="3" width="99" height="13">
<path d="M121.639 3.27588H23.7988V15.7242H121.639V3.27588Z" fill="white"/>
</mask>
<g mask="url(#mask0_415_1427)">
<path d="M54.1035 5.38496L56.786 3.42242H47.8081V15.2155H56.786V13.253H50.3699V10.2322H55.8431V8.26966H50.3699V5.38496H54.1035Z" fill="#8EB4F2"/>
<path d="M41.767 8.01659H38.6501V5.38415H43.6246L46.3055 3.41565H36.0898V15.2088H41.4373C44.4354 15.2088 46.156 13.8594 46.156 11.5062C46.156 9.25493 44.5975 8.01659 41.767 8.01659ZM41.322 13.2456H38.6501V9.9779H41.322C42.9436 9.9779 43.7039 10.5255 43.7039 11.6118C43.7039 12.698 42.8949 13.2456 41.322 13.2456Z" fill="#8EB4F2"/>
<path d="M63.386 3.42072H58.499V15.2138H61.0604V11.873H63.386C66.504 11.873 68.4327 10.2438 68.4327 7.64057C68.4327 5.03741 66.504 3.42072 63.386 3.42072ZM63.332 9.909H61.0604V5.38475H63.332C64.972 5.38475 65.8771 6.18862 65.8771 7.64777C65.8771 9.10691 64.972 9.909 63.332 9.909Z" fill="#8EB4F2"/>
<path d="M32.2462 12.4307C31.5845 12.7865 30.8432 12.9708 30.0908 12.9664C27.8388 12.9664 26.2051 11.3699 26.2051 9.17145C26.2051 6.97297 27.8388 5.373 30.0908 5.373C30.9029 5.3593 31.6982 5.60384 32.3604 6.07093L34.1522 4.76057L34.031 4.67507C32.9858 3.76254 31.5892 3.27924 29.9907 3.27924C28.2568 3.27924 26.6847 3.85851 25.5621 4.91237C24.9946 5.45498 24.5457 6.10796 24.2434 6.83053C23.9412 7.55311 23.7921 8.32975 23.8055 9.11209C23.7935 9.90237 23.9419 10.687 24.2419 11.419C24.5419 12.1511 24.9874 12.8156 25.5516 13.3729C26.6794 14.4686 28.2481 15.0723 29.9696 15.0723C31.7684 15.0723 33.3406 14.4494 34.4052 13.3153L32.8013 12.1289L32.2462 12.4307Z" fill="#8EB4F2"/>
<path d="M78.5888 8.01659H75.4731V5.38415H82.1686V3.41565H72.9111V15.2088H78.2518C81.2495 15.2088 82.9703 13.8594 82.9703 11.5062C82.9773 9.25493 81.4192 8.01659 78.5888 8.01659ZM78.1438 13.2456H75.4731V9.9779H78.1438C79.7652 9.9779 80.5251 10.5255 80.5251 11.6118C80.5251 12.698 79.7234 13.2456 78.1438 13.2456Z" fill="#8EB4F2"/>
<path d="M112.093 15.1919H109.496V3.3988H112.093V8.35199H113.506L117.323 3.3988H120.266L115.739 9.00893L120.996 15.1919H117.55L113.687 10.5538H112.093V15.1919Z" fill="#8EB4F2"/>
<path d="M92.4051 12.9507H86.9117L85.9804 15.2408H83.2168L88.3693 3.44769H91.1323L96.2011 15.2408H93.3364L92.4051 12.9507ZM91.5448 10.8139L89.6747 6.23369L87.7941 10.8139H91.5448Z" fill="#8EB4F2"/>
<path d="M99.6971 3.44769V8.37229H105.071V3.44769H107.749V15.2408H105.071V10.5939H99.6971V15.2408H97.0195V3.44769H99.6971Z" fill="#8EB4F2"/>
</g>
</svg>
