<svg width="87" height="24" viewBox="0 0 87 24" fill="none" xmlns="http://www.w3.org/2000/svg">
<path d="M41.0594 3.08714C40.5059 2.24066 39.7511 1.59336 38.6945 1.14523C37.6881 0.697095 36.4805 0.497925 35.1219 0.497925H29.6372V16.083H32.7569V11.6515H35.1219C36.4805 11.6515 37.6881 11.4025 38.6945 11.0041C39.7008 10.556 40.5059 9.90871 41.0594 9.06224C41.6129 8.21577 41.8645 7.21992 41.8645 6.07469C41.8645 4.92946 41.5626 3.93361 41.0594 3.08714ZM38.6945 6.07469C38.6945 7.02075 38.3926 7.71784 37.7384 8.26556C37.1346 8.76348 36.1786 9.01245 34.9709 9.01245H32.7066V3.13693H34.9709C36.1786 3.13693 37.1346 3.38589 37.7384 3.88382C38.3926 4.38174 38.6945 5.12863 38.6945 6.07469Z" fill="#8EB4F2"/>
<path d="M46.4435 13.444V9.46058H52.9345V6.87137H46.4435V3.08714H53.8905V0.497925H43.3237V16.083H54.1924V13.444H46.4435Z" fill="#8EB4F2"/>
<path d="M66.2685 12.5975C65.3628 13.195 64.3564 13.5436 63.1991 13.5436C62.1424 13.5436 61.2367 13.2946 60.3813 12.8465C59.5762 12.3983 58.9221 11.751 58.4692 10.9543C58.0164 10.1577 57.7648 9.2614 57.7648 8.21576C57.7648 7.2199 58.0164 6.27385 58.4692 5.47717C58.9221 4.68049 59.5762 4.03318 60.3813 3.58505C61.1864 3.13692 62.1424 2.88795 63.1991 2.88795C64.2558 2.88795 65.2622 3.18671 66.0673 3.68463L67.8787 1.54356C67.4762 1.2448 67.0233 1.04563 66.5704 0.846461C65.5138 0.398328 64.3061 0.199158 63.0482 0.199158C61.4883 0.199158 60.0291 0.547705 58.7208 1.2448C57.4629 1.9419 56.4062 2.88795 55.7017 4.08297C54.947 5.278 54.5947 6.67219 54.5947 8.21576C54.5947 9.75932 54.947 11.1037 55.7017 12.3485C56.4062 13.5436 57.4629 14.5394 58.7208 15.1867C59.9788 15.8838 61.438 16.2324 63.0482 16.2324C64.3061 16.2324 65.5138 15.9834 66.5704 15.585C67.0736 15.3859 67.5768 15.0871 67.9793 14.7884L66.2685 12.5975Z" fill="#8EB4F2"/>
<path d="M83.6788 4.13278C82.924 2.93776 81.9177 1.94191 80.6597 1.29461C79.4018 0.59751 77.9425 0.248962 76.3324 0.248962C74.7222 0.248962 73.2629 0.59751 72.005 1.29461C70.747 1.9917 69.6904 2.93776 68.9859 4.18257C68.2311 5.37759 67.8789 6.77178 67.8789 8.26556C67.8789 9.75934 68.2311 11.1535 68.9859 12.3485C69.7407 13.5934 70.747 14.5394 72.005 15.2365C73.2629 15.9336 74.7222 16.2822 76.3324 16.2822C77.9425 16.2822 79.4018 15.9336 80.6597 15.2365C81.968 14.5394 82.9743 13.5934 83.6788 12.3983C84.4336 11.2033 84.7858 9.80913 84.7858 8.26556C84.7858 6.77178 84.4336 5.37759 83.6788 4.13278ZM81.6661 8.26556C81.6661 9.26141 81.4145 10.1577 80.9616 11.0041C80.5088 11.8008 79.8546 12.4481 79.0495 12.8963C78.2444 13.3444 77.3387 13.5934 76.3324 13.5934C75.326 13.5934 74.4203 13.3444 73.6152 12.8963C72.8101 12.4481 72.1559 11.8008 71.7031 11.0041C71.2502 10.2075 70.9986 9.3112 70.9986 8.26556C70.9986 7.26971 71.2502 6.37344 71.7031 5.52697C72.1559 4.73029 72.8101 4.08299 73.6152 3.63485C74.4203 3.18672 75.326 2.93776 76.3324 2.93776C77.3387 2.93776 78.2444 3.18672 79.0495 3.63485C79.8546 4.08299 80.5088 4.73029 80.9616 5.52697C81.4145 6.37344 81.6661 7.26971 81.6661 8.26556Z" fill="#8EB4F2"/>
<path d="M32.2537 20.9626H30.6436V23.7012H29.6372V20.166H32.2537V20.9626Z" fill="#8EB4F2"/>
<path d="M38.4931 23.0041H36.9836L36.6817 23.7012H35.625L37.2352 20.166H38.2415L39.8517 23.7012H38.795L38.4931 23.0041ZM38.1912 22.2572L37.7384 21.112L37.2855 22.2572H38.1912Z" fill="#8EB4F2"/>
<path d="M46.0911 20.3153C46.3427 20.4149 46.4936 20.5643 46.6446 20.7635C46.7955 20.9626 46.8458 21.2116 46.8458 21.4606C46.8458 21.7095 46.7955 21.9585 46.6446 22.1577C46.4936 22.3568 46.3427 22.5062 46.0911 22.6058C45.8395 22.7054 45.5879 22.7552 45.2357 22.7552H44.6319V23.7012H43.6255V20.166H45.286C45.5376 20.166 45.8395 20.2157 46.0911 20.3153ZM45.6382 21.8589C45.7388 21.7593 45.7892 21.6597 45.7892 21.4606C45.7892 21.3112 45.7388 21.1618 45.6382 21.0622C45.5376 20.9626 45.3866 20.9128 45.1854 20.9128H44.6319V21.9585H45.1854C45.3866 21.9585 45.5376 21.9585 45.6382 21.8589Z" fill="#8EB4F2"/>
<path d="M53.2363 23.0041H51.7268L51.4248 23.7012H50.3682L51.9783 20.166H52.9847L54.5949 23.7012H53.5382L53.2363 23.0041ZM52.9344 22.2572L52.4815 21.112L52.0287 22.2572H52.9344Z" fill="#8EB4F2"/>
<path d="M62.1428 20.166V23.7012H61.1364V22.307H59.7778V23.7012H58.7715V20.166H59.7778V21.4606H61.1364V20.166H62.1428Z" fill="#8EB4F2"/>
<path d="M69.5392 20.9626H68.4322V23.7012H67.4258V20.9626H66.3188V20.166H69.5392V20.9626Z" fill="#8EB4F2"/>
<path d="M73.5146 20.166H74.4707V22.2572L75.9802 20.166H76.9363V23.7012H75.9299V21.6099L74.4707 23.7012H73.5146V20.166Z" fill="#8EB4F2"/>
<path d="M83.6286 20.166V23.7012H82.6222V22.805H82.0687L81.4649 23.7012H80.4082L81.1127 22.6556C80.8611 22.556 80.7101 22.4066 80.5592 22.2074C80.4586 22.0083 80.3579 21.7593 80.3579 21.5104C80.3579 21.2116 80.4082 21.0124 80.5592 20.8133C80.7101 20.6141 80.8611 20.4647 81.1127 20.3651C81.3643 20.2655 81.6159 20.2157 81.9681 20.2157H83.6286V20.166ZM81.4146 21.4606C81.4146 21.6597 81.4649 21.7593 81.5655 21.8589C81.6662 21.9585 81.8171 22.0083 82.0184 22.0083H82.6222V20.9128H82.0184C81.6159 20.9626 81.4146 21.112 81.4146 21.4606Z" fill="#8EB4F2"/>
<path d="M24.9072 16.1328L24.7563 14.6888C24.4544 11.9502 23.5486 9.75932 22.19 8.06638C20.9321 6.52281 19.3219 5.37758 17.3092 4.5809V0.44812L15.85 0.597498C13.0825 0.896253 10.8685 1.79252 9.15765 3.13692C7.59779 4.38173 6.44048 5.97509 5.63539 7.96679H1.45898L1.60994 9.41078C1.91185 12.1494 2.81757 14.3402 4.17616 16.0332C5.43411 17.5767 7.04429 18.722 9.05702 19.5187V23.6514L10.5162 23.5021C13.2837 23.2033 15.4977 22.307 17.2086 20.9626C18.7684 19.7178 19.9257 18.1245 20.7308 16.1328H24.9072ZM15.6487 18.9709C14.592 19.8174 13.2837 20.4149 11.6736 20.7635V12.2987H9.05702V16.8299C7.8997 16.2324 6.94366 15.4855 6.18889 14.5394C5.33348 13.4938 4.72966 12.1992 4.37743 10.6058H12.9818V8.06638H8.40288C9.0067 6.92115 9.76147 5.97509 10.7175 5.2282C11.7742 4.38173 13.0825 3.78422 14.6926 3.43567V12.0498H17.2589V7.41907C18.4162 8.01658 19.3722 8.76347 20.127 9.70953C20.9824 10.7552 21.5862 12.0498 21.9385 13.6431H13.4347V16.1826H17.913C17.3595 17.278 16.6047 18.2241 15.6487 18.9709Z" fill="#8EB4F2"/>
</svg>
