<svg width="95" height="31" viewBox="0 0 95 31" fill="none" xmlns="http://www.w3.org/2000/svg">
<g clip-path="url(#clip0_415_1390)">
<path fill-rule="evenodd" clip-rule="evenodd" d="M9.77392 4.90221H13.4451V6.26306H12.742V9.30526H15.3344V6.26306H14.6474V4.90221H18.3025V6.26306H17.6154V13.7714H18.3025V15.1322H14.6474V13.7714H15.3344V10.4086H12.742V13.7714H13.4451V15.1322H9.77392V13.7714H10.477V6.26306H9.77392V4.90221ZM64.1118 4.90221H59.6838V6.26306H60.3708V13.7714H59.6838V15.1322H63.3335V13.7714H62.6465V11.3702H64.1601C66.0815 11.3702 67.1121 9.68882 67.1121 8.04424C67.1121 6.39967 66.0386 4.8917 64.1064 4.8917L64.1118 4.90221ZM62.6519 6.30509H63.1886C63.6437 6.30648 64.0797 6.48406 64.4015 6.79908C64.7233 7.11409 64.9047 7.54095 64.9061 7.98645V8.40679C64.9097 8.62621 64.869 8.84418 64.7865 9.04822C64.704 9.25227 64.5813 9.43841 64.4253 9.59601C64.2693 9.75361 64.0831 9.87958 63.8773 9.96672C63.6716 10.0539 63.4503 10.1005 63.2262 10.1039H62.6895V6.30509H62.6519ZM58.8948 4.92848H51.5256V7.76577H52.5991C52.6616 7.38622 52.8292 7.03072 53.0838 6.73797C53.3384 6.44522 53.6701 6.22644 54.0428 6.10543V13.7714H53.3558V15.1322H56.9895V13.7714H56.3078V6.04238C56.7005 6.15683 57.0528 6.37633 57.3249 6.67617C57.5971 6.97601 57.7783 7.34428 57.8482 7.7395H58.9217V4.90221L58.8948 4.92848ZM47.5378 4.60797C48.7094 4.611 49.8417 5.02269 50.7313 5.76916V7.76577H49.6578C49.2982 6.67289 48.9547 5.95306 47.7202 5.95306C46.5878 5.95306 45.5251 7.80255 45.5251 10.0514C45.5251 12.3002 46.5985 14.1497 47.7525 14.1497C48.6112 14.1497 49.7115 13.0988 50.0174 11.5803H50.7581V14.3336C49.8685 15.08 48.7363 15.4917 47.5646 15.4948C45.1977 15.4948 43.2386 13.0568 43.2386 10.0514C43.2386 7.04594 45.1977 4.60797 47.5646 4.60797H47.5378ZM39.4869 4.60797C40.656 4.61633 41.7847 5.02744 42.6751 5.76916V7.76577H41.6016C41.2205 6.67289 40.877 5.95306 39.6426 5.95306C38.5101 5.95306 37.4474 7.80255 37.4474 10.0514C37.4474 12.3002 38.5476 14.1497 39.6801 14.1497C40.555 14.1497 41.6338 13.0988 41.9451 11.5803H42.6965V14.3336C41.8062 15.0753 40.6774 15.4864 39.5084 15.4948C37.12 15.4948 35.1824 13.0568 35.1824 10.0514C35.1824 7.04594 37.12 4.60797 39.5084 4.60797H39.4869ZM30.1694 4.60797C32.5525 4.60797 34.4954 7.04594 34.4954 10.0514C34.4954 13.0568 32.5525 15.4948 30.1694 15.4948C27.7864 15.4948 25.8434 13.0568 25.8434 10.0514C25.8434 7.04594 27.7864 4.60797 30.1694 4.60797ZM30.1694 5.95306C29.0369 5.95306 28.1084 7.80255 28.1084 10.0514C28.1084 12.3002 29.0369 14.1497 30.1694 14.1497C31.3019 14.1497 32.2036 12.2739 32.2036 10.0251C32.2036 7.77628 31.2751 5.92679 30.1426 5.92679L30.1694 5.95306ZM81.931 6.28933H81.3298L79.6177 9.24746L81.9686 13.7976H82.7361V15.1322H79.0863V13.7714H79.6231L78.3618 11.3702L76.9717 13.7714H77.3527V15.1322H75.2917V13.7714H75.7211L77.7821 10.2248L75.7211 6.26306H74.8784V4.90221H78.5335V6.26306H78.0719L79.0166 8.07577L80.09 6.26306H79.9022V4.90221H81.9578V6.26306L81.931 6.28933ZM69.1677 10.9236H70.8476L70.005 7.98645L69.1838 10.9236H69.1677ZM71.1428 12.0322H68.8403L68.3465 13.7976H68.7222V15.1322H66.4734V13.7714H67.0101L69.157 6.26306H68.9369V4.90221H71.5615V5.30679H71.6474L74.0465 13.7714H74.4598V15.1322H71.2878V13.7714H71.6796L71.1858 12.0059L71.1428 12.0322ZM22.2152 6.26306V13.7714H23.2081V15.1322H19.2471V13.7714H19.9502V6.26306H19.2471V4.90221H25.5106V7.75526H24.4801C24.4801 6.70441 23.879 6.26306 23.192 6.26306H22.2152ZM3.22053 12.0217L5.7968 4.90221H8.83466V6.26306H8.12618V13.7714H8.83466V15.1322H5.1581V13.7714H5.86121V8.07577L3.34398 15.1322H0.268555V13.7714H0.971662V6.26306H0.268555V4.90221H3.93974V6.26306H3.22053V12.0427V12.0217Z" fill="#8EB4F2"/>
<path fill-rule="evenodd" clip-rule="evenodd" d="M28.0812 22.3883C28.0812 22.3883 30.1906 21.968 30.3623 22.2885C30.4858 22.4882 29.9866 23.1449 29.3694 23.9646C28.7521 24.7843 27.9471 25.8614 27.7592 26.1661H29.1332C30.1587 24.954 31.2593 23.8047 32.4287 22.7246C33.0996 22.0836 33.5773 22.0993 32.9278 22.9243C32.2784 23.7492 31.3821 24.6056 31.6719 25.7773C31.9617 26.949 34.0228 25.3412 34.8923 24.8368C35.7617 24.3324 36.3521 24.0014 36.3521 24.0014C36.3521 24.0014 35.6812 25.7615 36.8459 26.1346C38.0106 26.5076 38.923 25.4253 38.8747 25.5251L38.4937 26.1661C38.4937 26.1661 35.5095 27.4744 34.4629 29.2241C33.4163 30.9738 35.4773 31.2575 36.642 30.1804C37.6283 29.1435 38.5024 28.0095 39.2504 26.7966C39.9808 26.1883 40.7421 25.6166 41.5315 25.0837C42.3742 24.5583 43.5764 23.8753 43.5764 23.8753C43.5764 23.8753 42.9914 25.3675 43.9843 26.0085C44.9773 26.6495 46.5606 25.5882 47.0061 25.0837C47.4516 24.5793 51.6917 22.1939 51.6917 22.1939C51.8069 22.691 51.8178 23.2058 51.7239 23.7071C51.7239 23.7071 49.3569 24.511 49.2872 25.4358C49.2174 26.3605 50.0923 26.4078 51.0906 26.1241C52.8081 25.5987 52.3948 24.0224 52.529 23.9436L56.4095 22.1624C56.4095 22.1624 56.4417 22.63 56.4417 23.0504C56.4417 23.4707 56.4095 23.7754 56.4095 23.7754C56.4095 23.7754 53.8332 24.4795 54.0264 25.5514C54.2197 26.6232 55.6688 26.2239 56.2914 25.9087C56.5269 25.7872 56.7311 25.6148 56.8883 25.4045C57.0455 25.1941 57.1515 24.9515 57.1985 24.6949C57.2508 24.4761 57.2796 24.2524 57.2843 24.0277L61.2454 22.1256C60.5967 22.9578 60.0118 23.8359 59.4956 24.7527C59.1038 25.6092 59.6352 26.8177 61.1058 25.9612C62.5764 25.1048 64.3261 23.8595 65.2225 23.208C65.5482 22.955 65.8868 22.7182 66.2369 22.4987C66.7307 22.2517 67.0581 22.2307 66.6287 22.8034C65.8934 23.7282 63.9451 26.3132 63.9451 26.3132L65.4694 26.2817C65.4694 26.2817 66.4838 24.9682 66.8058 24.6004C67.0313 24.3657 67.2794 24.1528 67.5465 23.9646C67.5465 23.9646 67.2889 24.8841 68.1959 24.9366C69.103 24.9892 70.9923 23.6756 70.9923 23.6756C70.8022 23.9763 70.7015 24.3229 70.7015 24.6765C70.7015 25.0302 70.8022 25.3768 70.9923 25.6775C71.6471 26.7861 73.0372 25.8246 73.327 25.5724C73.4742 25.4542 73.6074 25.3203 73.7242 25.1731C73.7242 25.1731 73.327 27.2065 75.6081 25.7773C77.8891 24.3482 79.247 23.3604 79.247 23.3604L77.288 26.1661H78.4903L79.7247 24.4848C79.673 24.7713 79.7145 25.0666 79.8436 25.3287C79.9727 25.5908 80.1827 25.8066 80.4439 25.9454C81.3564 26.3815 82.9343 25.42 84.4103 24.5531C85.8863 23.6861 86.7451 23.3446 86.7451 23.3446L84.668 26.1346H85.9883C86.5848 25.3484 87.2263 24.5958 87.9098 23.8805C88.9188 22.8297 90.5021 21.679 89.8795 22.7404C89.2569 23.8017 88.4411 23.7912 88.4733 25.1941C88.5055 26.597 89.6917 26.3815 90.7061 25.4095C91.2703 24.8933 91.8078 24.3497 92.3163 23.7807L91.5488 23.849C91.5488 23.849 90.5343 24.8999 90.1586 25.1731C89.7829 25.4463 88.8544 25.8141 89.4716 24.9209C90.0889 24.0277 90.5021 23.87 90.7759 23.3761C91.0496 22.8822 91.1194 21.4478 89.8795 21.7631C89.3518 21.9768 88.8694 22.2851 88.4572 22.6721L88.8544 22.0678C88.8544 22.0678 92.0264 20.3392 93.4326 18.7104C94.8389 17.0815 95.1502 15.9361 93.3307 16.2251C91.5112 16.5141 89.0959 19.4407 88.2372 20.8226C87.3784 22.2044 87.2228 22.3988 87.2228 22.3988L82.0434 25.2729C80.9699 25.8771 80.7874 24.9366 80.8036 24.3482C81.4584 24.2326 82.2634 24.3166 83.1383 23.3919C83.2666 23.2682 83.366 23.1188 83.4296 22.954C83.4932 22.7891 83.5196 22.6127 83.5068 22.4369C83.494 22.2611 83.4425 22.09 83.3557 21.9356C83.2689 21.7812 83.149 21.647 83.0041 21.5424C82.8789 21.4605 82.7385 21.4034 82.5908 21.3743C82.5908 21.3743 85.2154 19.6929 86.3479 18.3846C87.4804 17.0763 87.8722 15.7154 85.8112 16.2041C83.7502 16.6927 81.3993 19.8453 80.7123 21.0222C80.4684 21.4987 80.1752 21.9494 79.8374 22.3673C79.8374 22.3673 75.8067 24.9944 75.4471 25.2204C75.0875 25.4463 74.2824 25.8614 74.9103 24.8158C75.5383 23.7702 76.9177 21.7263 76.9177 21.7263H75.6617L75.3021 22.2517C75.3021 22.2517 74.8406 21.0748 73.2626 21.7788C71.6846 22.4829 71.4968 22.7351 71.4968 22.7351C71.4968 22.7351 69.9671 23.56 69.3499 23.9121C68.7326 24.2641 67.9437 24.7002 68.1476 23.7754C68.2872 23.25 69.3338 22.8349 69.7578 22.4146C70.0369 22.1309 69.8973 21.7473 69.4519 21.6948C68.5609 21.6107 68.0456 22.4671 67.8417 23.1712L67.305 23.4392C67.1171 23.5232 68.3355 21.7473 67.0312 21.6948C66.312 21.6632 65.4694 22.3358 64.5247 22.9873C63.3439 23.7754 62.1739 24.6004 61.3688 25.1363C61.3688 25.1363 60.6496 25.7405 60.4242 25.5251C60.1987 25.3097 61.1487 23.9961 61.8518 22.9873C62.555 21.9785 63.2205 21.1904 63.2205 21.1904L67.4445 19.2253L67.3425 19.0099L64.7126 18.9416L66.7575 16.1515H65.2976L63.4459 18.8207L48.9812 18.9258V19.9661L62.7911 19.9031L61.8518 21.0748L57.2146 23.4287L57.1126 22.1361C57.1126 22.1361 57.8855 22.1361 57.7513 21.5477C57.6171 20.9592 57.2843 21.0222 56.6778 21.2954C56.0713 21.5687 52.4753 23.3971 52.4753 23.3971L52.4055 22.1571C52.4055 22.1571 53.2321 22.1204 53.0603 21.5529C52.8886 20.9854 52.5236 21.0275 51.7722 21.5004C51.0208 21.9732 47.7897 23.87 47.7897 23.87C47.7897 23.87 48.5143 22.5249 47.4677 21.8682C46.4211 21.2114 44.9934 22.1887 44.4459 22.6248C43.8985 23.0609 40.1521 25.4621 40.1521 25.4621L42.401 21.7841H41.0699L40.6781 22.3515C40.6781 22.3515 40.5225 21.3953 39.068 21.7841C38.2402 21.982 37.4786 22.3856 36.8567 22.9558C36.8567 22.9558 33.8886 24.8893 33.3358 25.2414C32.7829 25.5934 31.9993 25.7983 32.7185 24.8578C33.1318 24.3324 33.7168 23.5285 33.9369 23.208C34.1569 22.8875 34.2965 21.8156 33.4002 21.8314C32.5038 21.8471 31.9456 22.6563 31.1567 23.3131C31.0332 23.4129 31.8222 21.9154 30.8454 21.7368C29.8685 21.5582 28.5321 21.8524 28.4945 21.7893C28.4569 21.7263 29.2996 20.9329 30.4321 19.1622C31.1389 18.0393 31.7476 16.8599 32.2516 15.6366C31.9847 15.8035 31.7047 15.9493 31.4143 16.0727C31.1853 16.177 30.9406 16.2445 30.6897 16.2724C30.243 17.2952 29.6698 18.2604 28.9829 19.1465C28.3805 20.0869 27.6848 20.9669 26.9058 21.7736C26.9058 21.7736 24.3993 21.8734 23.079 20.2446C22.256 19.2735 21.7675 18.0727 21.6835 16.8136C21.6336 16.5199 21.6049 16.2232 21.5976 15.9256L20.9321 15.8678C20.9321 15.8678 21.018 18.7944 22.4939 20.3865C23.9699 21.9785 26.4228 22.2517 26.4228 22.2517C26.4228 22.2517 23.6747 25.7458 19.8586 25.7458C16.0425 25.7458 15.3448 22.6563 15.3448 22.6563C16.0652 23.054 16.8855 23.2452 17.7117 23.208C19.0858 23.1449 20.3954 22.5354 20.2182 22.3883C20.0411 22.2412 18.6939 22.5039 17.1965 22.32C16.1376 22.1667 15.0943 21.9241 14.0781 21.5949C14.0781 21.5949 14.5719 24.6687 17.0086 25.9139C19.4454 27.1592 22.3759 26.4393 23.9592 25.5619C24.9985 25.0128 25.9647 24.3404 26.836 23.56C27.2976 23.1082 28.0705 22.3883 28.0705 22.3883H28.0812ZM34.3502 5.62206C34.7098 3.38901 34.538 1.60782 33.1855 1.37664C30.8507 0.956297 28.355 2.42748 26.4228 4.19816H25.4728C26.9004 2.71646 28.8863 1.07189 31.1889 0.399348C35.3055 -0.793364 35.9067 1.29257 35.6651 4.53443L34.3502 5.62206ZM89.2355 21.2114C89.8417 20.4187 90.494 19.6609 91.1891 18.9416C91.8439 18.2532 92.5471 17.5807 92.9603 17.5649C93.3736 17.5492 92.9228 18.3741 91.5004 19.551C90.7865 20.1562 90.0296 20.7111 89.2355 21.2114ZM81.7911 21.2114C82.3974 20.4187 83.0497 19.6609 83.7448 18.9416C84.3996 18.2532 85.1027 17.5807 85.5106 17.5649C85.9185 17.5492 85.4784 18.3741 84.0561 19.551C83.3422 20.1562 82.5853 20.7111 81.7911 21.2114ZM82.3278 22.2622C82.5694 22.3831 82.6016 22.6826 82.1561 23.1187C81.7106 23.5548 80.6801 23.828 80.5459 23.6756C80.4117 23.5232 80.5942 23.2238 81.0075 22.8349C81.4208 22.4461 82.0809 22.1466 82.3278 22.2622ZM56.3558 24.3166C56.2398 24.7344 55.9872 25.1036 55.6366 25.3675C55.2233 25.667 54.6383 25.6039 54.8637 25.2309C55.3079 24.8431 55.8114 24.5258 56.3558 24.2904V24.3166ZM51.6541 24.3166C51.5385 24.7387 51.279 25.1094 50.9188 25.3675C50.5055 25.667 49.9044 25.6039 50.1459 25.2309C50.3874 24.8578 51.6541 24.2904 51.6541 24.2904V24.3166ZM38.1072 26.907C38.1072 26.907 36.905 29.1032 35.9979 29.8756C35.2948 30.4641 34.5595 30.2802 35.0694 29.4553C35.5512 28.7413 36.1756 28.13 36.905 27.6583L38.1072 26.907ZM63.5264 20.4915L64.0954 19.7822L65.3996 19.6982L63.5264 20.4915ZM72.0067 25.6617C71.4699 25.6617 71.6256 24.8736 72.2643 23.8805C72.903 22.8875 73.7725 22.0836 74.3038 22.0678C74.8352 22.0521 74.6634 23.0083 73.9925 23.9856C73.3216 24.9629 72.5219 25.646 72.0067 25.6617ZM44.6338 25.6617C44.0971 25.6617 44.2581 24.8736 44.8914 23.8805C45.5247 22.8875 46.3996 22.0836 46.931 22.0678C47.4623 22.0521 47.2906 23.0083 46.625 23.9856C45.9595 24.9629 45.1651 25.646 44.6338 25.6617ZM37.4256 25.6302C36.8889 25.6302 37.066 24.8421 37.7369 23.8805C38.4078 22.919 39.2987 22.1204 39.8462 22.1204C40.3937 22.1204 40.1736 23.0609 39.4705 24.0329C38.7674 25.0049 37.9408 25.6092 37.4256 25.6092V25.6302Z" fill="#8EB4F2"/>
</g>
<defs>
<clipPath id="clip0_415_1390">
<rect width="95" height="31" fill="white"/>
</clipPath>
</defs>
</svg>
