<svg width="88" height="16" viewBox="0 0 88 16" fill="none" xmlns="http://www.w3.org/2000/svg">
<g clip-path="url(#clip0_415_1419)">
<path d="M7.22259 0.406311C10.8573 0.406311 14.4682 1.36894 14.4682 5.81991C14.4682 9.32818 11.7891 10.9323 8.22427 10.9323H5.05588V15.6385H0V0.406311H7.22259ZM5.05384 7.3799H7.49978C8.73461 7.3799 9.59736 7.01651 9.59736 5.77573C9.59736 4.68492 8.89793 4.14979 7.40692 4.14979H5.05384V7.3799Z" fill="#8EB4F2"/>
<path d="M32.7339 8.02147C32.7339 12.7917 29.3784 16 24.393 16C19.3141 16 15.9126 12.8128 15.9126 8.00032C15.9126 3.16603 19.2904 0 24.4398 0C29.4022 0 32.7339 3.2295 32.7339 8.02147ZM21.0844 7.9356C21.0844 10.6517 22.2961 12.2136 24.393 12.2136C26.4662 12.2136 27.5845 10.6953 27.5845 7.80679C27.5845 5.26115 26.3964 3.74224 24.3693 3.74224C22.3192 3.74224 21.0844 5.32587 21.0844 7.93497" fill="#8EB4F2"/>
<path d="M49.6487 0.406311V15.6366H44.5928V4.32091H41.543V5.2182C41.543 9.53912 41.6596 15.9141 35.7654 15.9141C35.0717 15.9233 34.3828 15.8068 33.7383 15.5712V11.956C34.0446 12.1122 34.3896 12.1934 34.74 12.1918C36.4641 12.1918 36.5339 9.43209 36.5339 6.95055V0.406311H49.6487Z" fill="#8EB4F2"/>
<path d="M57.1302 5.13294H59.9489C64.4687 5.13294 66.4964 7.07935 66.4964 10.2665C66.4964 13.5607 64.1921 15.6142 59.6466 15.6142H52.0513V0.384521H57.1302V5.13294ZM57.1302 11.9777H59.4623C60.5568 11.9777 61.5592 11.6355 61.5592 10.3088C61.5592 9.00211 60.6971 8.59765 59.486 8.59765H57.1329L57.1302 11.9777Z" fill="#8EB4F2"/>
<path d="M80.4745 14.1613V15.6372H75.4884V14.1613C70.8053 14.1613 67.8931 11.5298 67.8931 7.95803C67.8931 5.11246 70.0367 1.92217 75.4884 1.92217V0.40387H80.4745V1.92217C85.2972 1.92217 87.9973 4.63893 87.9973 7.91136C87.9973 11.5049 85.3413 14.1582 80.4745 14.1582M75.605 5.21824C73.5779 5.21824 72.972 6.82241 72.972 7.95616C72.972 9.30333 73.6009 10.844 75.605 10.844V5.21824ZM80.3579 5.21824V10.8223C82.5266 10.8223 82.9204 9.00403 82.9204 7.95616C82.9204 6.92944 82.4311 5.21824 80.3579 5.21824Z" fill="#8EB4F2"/>
</g>
<defs>
<clipPath id="clip0_415_1419">
<rect width="88" height="16" fill="white"/>
</clipPath>
</defs>
</svg>
