<svg width="83" height="45" viewBox="0 0 83 45" fill="none" xmlns="http://www.w3.org/2000/svg">
<g clip-path="url(#clip0_415_1396)">
<path d="M48.0063 22.8928L44.3881 30.208H44.3129L44.1299 22.8928H41.1035L40.9854 23.156L41.245 23.319C41.4955 23.5007 41.5655 23.6851 41.598 24.1928L42.0081 33.0699H45.3796L50.8211 22.8928H48.0063ZM37.2363 28.1611C36.8975 29.1618 36.6315 29.8058 36.2383 30.2307C35.9294 30.5647 35.5219 30.8039 34.5837 30.8039C33.8478 30.8039 33.4377 30.4939 33.4377 29.9074C33.4326 29.5292 33.5325 28.9547 33.9257 27.8364C34.2657 26.837 34.5317 26.193 34.9263 25.7681C35.2312 25.4341 35.64 25.1936 36.5796 25.1936C37.3154 25.1936 37.7242 25.5036 37.7229 26.0874C37.7307 26.4709 37.6308 27.0454 37.2363 28.1611ZM37.0792 22.7672H36.7652C34.9029 22.7672 33.8388 23.2843 32.9654 24.2396C31.8792 25.4221 30.8591 28.6194 30.8786 30.3109C30.8994 32.0358 31.983 33.2316 34.2605 33.2316H34.594C36.4615 33.2316 37.5257 32.7145 38.399 31.7592C39.484 30.5741 40.4832 27.3781 40.4637 25.6879C40.4417 23.9644 39.3581 22.7672 37.0792 22.7672ZM27.9353 26.5871C27.7653 27.0214 27.5784 27.1256 27.3331 27.2285C27.1683 27.2953 26.8192 27.3193 26.4831 27.3193H25.1815L25.8901 25.2163H27.4629C27.934 25.2163 28.1261 25.4688 28.1326 25.7561C28.1352 25.9391 28.0534 26.2745 27.9353 26.5871ZM27.7017 22.8928H23.4334L23.3478 23.156L23.5204 23.3311C23.702 23.5154 23.6956 23.7346 23.5359 24.2049L20.5537 33.0699H23.279L24.4444 29.5506L25.3671 29.552L26.3923 33.0699H29.1305L27.8432 29.4691C28.5907 29.3449 28.9657 29.1244 29.3408 28.781C29.8547 28.2974 30.2103 27.6186 30.5048 26.6192C30.9357 25.1695 30.6748 24.3412 30.3984 23.9163C30.0182 23.3311 29.2175 22.8928 27.7017 22.8928ZM56.2937 28.9881L57.049 26.8597H53.5749L54.1135 25.235H57.8769L58.7036 22.8861H51.5984L51.4998 23.1854L51.6698 23.3578C51.8528 23.5408 51.845 23.7586 51.6867 24.2316L48.7278 33.0659H55.3671L56.1691 30.701H52.294L52.865 28.9881H56.2937ZM64.2657 26.5871C64.0957 27.0214 63.9062 27.1256 63.6649 27.2285C63.4962 27.2953 63.1523 27.3193 62.8161 27.3193H61.5158L62.2179 25.2163H63.7933C64.2618 25.2163 64.4565 25.4688 64.4604 25.7561C64.4656 25.9391 64.3812 26.2745 64.2657 26.5871ZM64.0282 22.8928H59.7612L59.6782 23.156L59.8495 23.3311C60.0325 23.5154 60.0234 23.7346 59.8664 24.2049L56.8815 33.0699H59.6107L60.7748 29.552H61.6962L62.7227 33.0699H65.4584L64.1736 29.4691C64.9198 29.3449 65.2948 29.1244 65.6686 28.781C66.1838 28.2974 66.5407 27.6186 66.8353 26.6192C67.2661 25.1695 67.0053 24.3412 66.7301 23.9163C66.3499 23.3311 65.5479 22.8928 64.0282 22.8928ZM69.6241 36.5505C62.1374 40.5334 52.1513 42.7273 41.5006 42.7273C30.8513 42.7273 20.8665 40.5334 13.3785 36.5505C6.17728 32.7185 2.20876 27.7282 2.20876 22.5013C2.20876 17.2705 6.17728 12.2801 13.3785 8.45086C20.8665 4.46927 30.8513 2.27271 41.5006 2.27271C52.1513 2.27271 62.1374 4.46927 69.6241 8.45086C76.8266 12.2801 80.7912 17.2705 80.7912 22.5013C80.7912 27.7282 76.8266 32.7185 69.6241 36.5505ZM70.6377 6.43067C62.8408 2.2834 52.4939 0 41.5006 0C30.5074 0 20.1592 2.2834 12.3649 6.43067C7.74755 8.88777 0 14.2429 0 22.5013C0 30.7558 7.74755 36.1122 12.3649 38.5693C20.1579 42.7166 30.5048 45 41.5006 45C52.4952 45 62.8421 42.7166 70.6377 38.5693C75.255 36.1122 83 30.7571 83 22.5013C83 14.2415 75.255 8.88777 70.6377 6.43067ZM68.5755 34.4621C60.5204 38.7457 50.5005 40.3744 41.5006 40.3744C32.4995 40.3744 22.4822 38.7457 14.4245 34.4621C10.1614 32.1921 4.4941 28.0101 4.4941 22.5013C4.4941 16.9872 10.1601 12.8092 14.4245 10.5405C22.4822 6.25698 32.4995 4.62827 41.5006 4.62827C50.5005 4.62827 60.5204 6.2543 68.5755 10.5405C72.8425 12.8092 78.5072 16.9872 78.5072 22.5013C78.5072 28.0128 72.8412 32.1921 68.5755 34.4621ZM68.9934 9.70546C60.815 5.3511 50.6316 3.68497 41.5006 3.68497C32.3684 3.68497 22.1876 5.35244 14.0053 9.70546C9.41126 12.1479 3.58048 16.557 3.58048 22.5013C3.58048 28.4403 9.41126 32.8521 14.0053 35.2972C22.1876 39.6476 32.371 41.315 41.5006 41.315C50.6316 41.315 60.815 39.6502 68.9934 35.2972C73.59 32.8521 79.4208 28.4403 79.4208 22.5013C79.4208 16.557 73.5913 12.1479 68.9934 9.70546ZM20.8717 24.2049L13.4135 26.7301L12.5025 29.3034H19.0795L19.936 26.8784H15.377L20.5524 25.0747L20.8717 24.2049ZM50.5485 12.9295H51.6296C52.3654 12.9295 52.7716 13.1833 52.7807 13.7699C52.7872 14.148 52.6885 14.6664 52.307 15.7821C51.9696 16.7801 51.6996 17.3587 51.3168 17.7822C51.0092 18.1162 50.6005 18.2645 49.6622 18.2645H48.7589L50.5485 12.9295ZM48.1789 11.8272L45.2278 20.6923H49.5817C51.4479 20.6923 52.5133 20.266 53.3776 19.3121C54.4625 18.1309 55.454 15.0579 55.4216 13.3664C55.3891 11.6401 54.3068 10.5165 52.0293 10.5165H48.0737L47.9907 10.7784L48.162 10.9507C48.3437 11.1364 48.3372 11.3556 48.1789 11.8272ZM64.6083 14.1654H58.0313L57.1748 16.5877H61.7325L56.5558 18.3968L56.2366 19.264L63.6947 16.7387L64.6083 14.1654ZM35.2131 20.6869H37.6918L39.8538 14.1039L41.1178 20.6869H43.5991L46.981 10.5125L44.3881 10.5165L42.5817 16.0466L41.55 10.5165H38.0551L37.9695 10.7784L38.1408 10.9507C38.3251 11.1364 38.316 11.3556 38.159 11.8272L35.2131 20.6869ZM17.4417 20.6923L24.1861 20.6896L25.0011 18.2645H21.0806L23.6709 10.5165H20.289L20.2046 10.7784L20.3733 10.9507C20.5576 11.1364 20.5498 11.3556 20.3915 11.8272L17.4417 20.6923ZM31.7909 13.329H31.8792L31.9259 16.402H30.1064L31.7909 13.329ZM24.8856 20.6869H27.7549L28.9982 18.4382H31.9687L31.9985 20.6869H34.6018L34.0399 10.5165H30.1428L30.0558 10.7784L30.1817 10.908C30.3867 11.1151 30.3024 11.413 29.5432 12.6529L24.8856 20.6869Z" fill="#8EB4F2"/>
</g>
<defs>
<clipPath id="clip0_415_1396">
<rect width="83" height="45" fill="white"/>
</clipPath>
</defs>
</svg>
