<svg width="80" height="80" viewBox="0 0 80 80" fill="none" xmlns="http://www.w3.org/2000/svg">
<path d="M60 23.8666C59.8 23.8333 59.5666 23.8333 59.3666 23.8666C54.7666 23.7 51.1 19.9333 51.1 15.2666C51.1 10.5 54.9333 6.66663 59.7 6.66663C64.4666 6.66663 68.3 10.5333 68.3 15.2666C68.2666 19.9333 64.6 23.7 60 23.8666Z" stroke="#1D68E4" stroke-width="4" stroke-linecap="round" stroke-linejoin="round"/>
<path d="M56.5667 48.1333C61.1334 48.9 66.1667 48.1 69.7 45.7333C74.4 42.6 74.4 37.4667 69.7 34.3333C66.1334 31.9667 61.0333 31.1667 56.4667 31.9667" stroke="#1D68E4" stroke-width="4" stroke-linecap="round" stroke-linejoin="round"/>
<path d="M19.9001 23.8666C20.1001 23.8333 20.3334 23.8333 20.5334 23.8666C25.1334 23.7 28.8001 19.9333 28.8001 15.2666C28.8001 10.5 24.9668 6.66663 20.2001 6.66663C15.4334 6.66663 11.6001 10.5333 11.6001 15.2666C11.6334 19.9333 15.3001 23.7 19.9001 23.8666Z" stroke="#1D68E4" stroke-width="4" stroke-linecap="round" stroke-linejoin="round"/>
<path d="M23.3334 48.1333C18.7667 48.9 13.7334 48.1 10.2 45.7333C5.50005 42.6 5.50005 37.4667 10.2 34.3333C13.7667 31.9667 18.8667 31.1667 23.4334 31.9667" stroke="#1D68E4" stroke-width="4" stroke-linecap="round" stroke-linejoin="round"/>
<path d="M40 48.7667C39.8 48.7333 39.5666 48.7333 39.3666 48.7667C34.7666 48.6 31.1 44.8333 31.1 40.1667C31.1 35.4 34.9333 31.5667 39.7 31.5667C44.4666 31.5667 48.3 35.4333 48.3 40.1667C48.2666 44.8333 44.6 48.6333 40 48.7667Z" stroke="#1D68E4" stroke-width="4" stroke-linecap="round" stroke-linejoin="round"/>
<path d="M30.3 59.2667C25.6 62.4 25.6 67.5334 30.3 70.6667C35.6334 74.2334 44.3667 74.2334 49.7 70.6667C54.4 67.5334 54.4 62.4 49.7 59.2667C44.4 55.7334 35.6334 55.7334 30.3 59.2667Z" stroke="#1D68E4" stroke-width="4" stroke-linecap="round" stroke-linejoin="round"/>
</svg>
