<svg width="80" height="80" viewBox="0 0 80 80" fill="none" xmlns="http://www.w3.org/2000/svg">
<path d="M48.5001 6.66663H31.5001C25.5001 6.66663 24.1668 9.66666 23.4001 13.3667L20.6667 26.4333H59.3334L56.6001 13.3667C55.8334 9.66666 54.5001 6.66663 48.5001 6.66663Z" stroke="#1D68E4" stroke-width="4" stroke-linecap="round" stroke-linejoin="round"/>
<path d="M64.1334 47.7333C64.4 50.5666 62.1334 53 59.2334 53H54.7C52.1 53 51.7334 51.9 51.2667 50.5L50.7667 49.0665C50.1 47.0999 49.6667 45.7666 46.1667 45.7666H33.8C30.3334 45.7666 29.8 47.2665 29.2 49.0665L28.7 50.5C28.2334 51.8667 27.8667 53 25.2667 53H20.7334C17.8334 53 15.5667 50.5666 15.8333 47.7333L17.2 33C17.5334 29.3667 18.2333 26.3999 24.5667 26.3999H55.4C61.7333 26.3999 62.4334 29.3667 62.7667 33L64.1334 47.7333Z" stroke="#1D68E4" stroke-width="4" stroke-linecap="round" stroke-linejoin="round"/>
<path d="M20.6667 19.1666H18.2334" stroke="#1D68E4" stroke-width="4" stroke-linecap="round" stroke-linejoin="round"/>
<path d="M61.7667 19.1666H59.3334" stroke="#1D68E4" stroke-width="4" stroke-linecap="round" stroke-linejoin="round"/>
<path d="M25.5 36.1H32.7334" stroke="#1D68E4" stroke-width="4" stroke-linecap="round" stroke-linejoin="round"/>
<path d="M47.2667 36.1H54.5001" stroke="#1D68E4" stroke-width="4" stroke-linecap="round" stroke-linejoin="round"/>
<path d="M40 56.6666V60" stroke="#1D68E4" stroke-width="4" stroke-linecap="round" stroke-linejoin="round"/>
<path d="M40 70V73.3333" stroke="#1D68E4" stroke-width="4" stroke-linecap="round" stroke-linejoin="round"/>
<path d="M9.99996 60L6.66663 73.3333" stroke="#1D68E4" stroke-width="4" stroke-linecap="round" stroke-linejoin="round"/>
<path d="M70 60L73.3333 73.3333" stroke="#1D68E4" stroke-width="4" stroke-linecap="round" stroke-linejoin="round"/>
</svg>
