<svg width="80" height="80" viewBox="0 0 80 80" fill="none" xmlns="http://www.w3.org/2000/svg">
<path d="M6.66675 33.3334H73.3334" stroke="#1D68E4" stroke-width="4" stroke-miterlimit="10" stroke-linecap="round" stroke-linejoin="round"/>
<path d="M38.4943 68.3326H21.4611C9.62773 68.3326 6.62769 65.3992 6.62769 53.6992V26.2992C6.62769 15.6992 9.09445 12.2992 18.3945 11.7659C19.3278 11.7326 20.3611 11.6992 21.4611 11.6992H58.4943C70.3277 11.6992 73.3277 14.6326 73.3277 26.3326V41.0326" stroke="#1D68E4" stroke-width="4" stroke-linecap="round" stroke-linejoin="round"/>
<path d="M20 53.3334H33.3333" stroke="#1D68E4" stroke-width="4" stroke-miterlimit="10" stroke-linecap="round" stroke-linejoin="round"/>
<path d="M73.3334 60C73.3334 62.5 72.6334 64.8666 71.4 66.8666C69.1 70.7333 64.8667 73.3333 60.0001 73.3333C55.1334 73.3333 50.9001 70.7333 48.6001 66.8666C47.3668 64.8666 46.6667 62.5 46.6667 60C46.6667 52.6333 52.6334 46.6666 60.0001 46.6666C67.3667 46.6666 73.3334 52.6333 73.3334 60Z" stroke="#1D68E4" stroke-width="4" stroke-miterlimit="10" stroke-linecap="round" stroke-linejoin="round"/>
<path d="M54.8047 59.9985L58.1047 63.2985L65.2047 56.7318" stroke="#1D68E4" stroke-width="4" stroke-linecap="round" stroke-linejoin="round"/>
</svg>
