<svg width="80" height="80" viewBox="0 0 80 80" fill="none" xmlns="http://www.w3.org/2000/svg">
<path d="M47.1 37.8001C48.4 32.3334 43.6333 27.5666 38.1667 28.8666C35.6 29.4999 33.5 31.6 32.8667 34.1666C31.5667 39.6333 36.3333 44.4 41.8 43.1C44.4 42.4666 46.5 40.3667 47.1 37.8001Z" stroke="#1D68E4" stroke-width="4" stroke-linecap="round" stroke-linejoin="round"/>
<path d="M60.0334 57.3C65.7334 51.9666 69.3 44.3999 69.3 35.9666C69.3 19.7666 56.1667 6.66663 40.0001 6.66663C23.8334 6.66663 10.7001 19.7999 10.7001 35.9666C10.7001 44.4332 14.3001 52.0665 20.0667 57.3999" stroke="#1D68E4" stroke-width="4" stroke-linecap="round" stroke-linejoin="round"/>
<path d="M26.6666 48.5C23.6 45.2333 21.7 40.8333 21.7 35.9666C21.7 25.8666 29.9 17.6666 40 17.6666C50.1 17.6666 58.3 25.8666 58.3 35.9666C58.3 40.8333 56.4 45.2 53.3333 48.5" stroke="#1D68E4" stroke-width="4" stroke-linecap="round" stroke-linejoin="round"/>
<path d="M34.3334 55.5332L29.5334 61.5C25.7334 66.2667 29.1 73.2999 35.2 73.2999H44.7667C50.8667 73.2999 54.2667 66.2334 50.4334 61.5L45.6334 55.5332C42.7667 51.8999 37.2334 51.8999 34.3334 55.5332Z" stroke="#1D68E4" stroke-width="4" stroke-linecap="round" stroke-linejoin="round"/>
</svg>
