<svg width="192" height="155" viewBox="0 0 192 155" fill="none" xmlns="http://www.w3.org/2000/svg">
<g clip-path="url(#clip0_106_1142)">
<path d="M158.544 72.7713L158.979 71.4147C159.139 70.9194 159.463 70.4918 159.897 70.2017C160.33 69.9117 160.848 69.7765 161.365 69.8183L162.887 69.9476C163.404 69.9885 163.921 69.8529 164.355 69.5629L168.637 66.6783C169.071 66.3886 169.394 65.9588 169.55 65.4616L170.244 63.2991C170.405 62.8039 170.729 62.3762 171.162 62.0861C171.596 61.7961 172.113 61.6609 172.63 61.7028L175.195 61.9129C175.713 61.9556 176.231 61.8199 176.664 61.5282L183.542 56.9088L180.385 52.1551L177.224 47.4066L170.315 52.0466C169.881 52.3363 169.558 52.7661 169.402 53.2633L168.615 55.7216C168.455 56.2169 168.133 56.645 167.7 56.9359C167.267 57.2269 166.75 57.3634 166.234 57.323L163.989 57.1264C163.472 57.0837 162.954 57.2195 162.521 57.5111L158.239 60.3956C157.803 60.6832 157.479 61.1112 157.321 61.6073L156.865 63.0761C156.707 63.5728 156.385 64.0024 155.952 64.2938C155.519 64.5851 155.001 64.7205 154.484 64.6775L153.069 64.5629C152.552 64.5199 152.033 64.6553 151.6 64.9466C151.167 65.2379 150.845 65.6676 150.687 66.1643L150.377 67.0417C150.219 67.5377 149.896 67.9666 149.463 68.2577C149.031 68.5489 148.513 68.6848 147.996 68.6431C147.479 68.6013 146.961 68.7365 146.528 69.0265C146.094 69.3166 145.77 69.7442 145.61 70.2395L144.688 73.1364L146.061 75.2063L147.44 77.2711L150.417 77.5147C150.934 77.5565 151.452 77.4213 151.886 77.1313C152.319 76.8412 152.643 76.4136 152.804 75.9183C152.961 75.4217 153.283 74.992 153.716 74.7006C154.15 74.4093 154.668 74.2739 155.185 74.3169L156.188 74.3981C156.704 74.4336 157.219 74.2917 157.647 73.9959C158.076 73.7002 158.392 73.2682 158.544 72.7713Z" fill="#263238"/>
<path opacity="0.6" d="M158.544 72.7713L158.979 71.4147C159.139 70.9194 159.463 70.4918 159.897 70.2017C160.33 69.9117 160.848 69.7765 161.365 69.8183L162.887 69.9476C163.404 69.9885 163.921 69.8529 164.355 69.5629L168.637 66.6783C169.071 66.3886 169.394 65.9588 169.55 65.4616L170.244 63.2991C170.405 62.8039 170.729 62.3762 171.162 62.0861C171.596 61.7961 172.113 61.6609 172.63 61.7028L175.195 61.9129C175.713 61.9556 176.231 61.8199 176.664 61.5282L183.542 56.9088L180.385 52.1551L177.224 47.4066L170.315 52.0466C169.881 52.3363 169.558 52.7661 169.402 53.2633L168.615 55.7216C168.455 56.2169 168.133 56.645 167.7 56.9359C167.267 57.2269 166.75 57.3634 166.234 57.323L163.989 57.1264C163.472 57.0837 162.954 57.2195 162.521 57.5111L158.239 60.3956C157.803 60.6832 157.479 61.1112 157.321 61.6073L156.865 63.0761C156.707 63.5728 156.385 64.0024 155.952 64.2938C155.519 64.5851 155.001 64.7205 154.484 64.6775L153.069 64.5629C152.552 64.5199 152.033 64.6553 151.6 64.9466C151.167 65.2379 150.845 65.6676 150.687 66.1643L150.377 67.0417C150.219 67.5377 149.896 67.9666 149.463 68.2577C149.031 68.5489 148.513 68.6848 147.996 68.6431C147.479 68.6013 146.961 68.7365 146.528 69.0265C146.094 69.3166 145.77 69.7442 145.61 70.2395L144.688 73.1364L146.061 75.2063L147.44 77.2711L150.417 77.5147C150.934 77.5565 151.452 77.4213 151.886 77.1313C152.319 76.8412 152.643 76.4136 152.804 75.9183C152.961 75.4217 153.283 74.992 153.716 74.7006C154.15 74.4093 154.668 74.2739 155.185 74.3169L156.188 74.3981C156.704 74.4336 157.219 74.2917 157.647 73.9959C158.076 73.7002 158.392 73.2682 158.544 72.7713Z" fill="white"/>
<path opacity="0.2" d="M175.174 61.9335C175.692 61.9762 176.21 61.8404 176.643 61.5488L183.521 56.9293L181.945 54.555L180.364 52.1757L177.203 47.4271L172.077 50.861L175.265 55.5941L146.081 75.1859L147.46 77.2507L150.437 77.4943C150.954 77.5361 151.472 77.401 151.906 77.1109C152.339 76.8209 152.663 76.3932 152.824 75.898C152.981 75.4013 153.303 74.9716 153.736 74.6803C154.17 74.3889 154.688 74.2535 155.205 74.2966L156.187 74.3982C156.704 74.4412 157.223 74.3058 157.656 74.0145C158.089 73.7231 158.411 73.2934 158.568 72.7968L159.003 71.4401C159.164 70.9449 159.488 70.5172 159.922 70.2271C160.355 69.9371 160.873 69.8019 161.39 69.8437L162.911 69.973C163.429 70.0139 163.946 69.8783 164.38 69.5883L168.662 66.7038C169.096 66.414 169.419 65.9842 169.575 65.4871L170.269 63.3245C170.43 62.8293 170.753 62.4016 171.187 62.1116C171.621 61.8215 172.138 61.6863 172.655 61.7282L175.174 61.9335Z" fill="black"/>
<path d="M199.542 57.245C199.748 54.9425 197.393 48.0309 195.413 45.0274C193.433 42.024 187.94 37.2167 185.744 36.526C180.865 35.0045 172.921 38.9577 173.404 44.8153C173.594 47.1869 177.283 53.3226 178.959 56.0731C180.634 58.8237 185.064 64.3698 187.197 65.5293C192.446 68.4133 199.077 62.3594 199.542 57.245ZM193.632 52.3586L187.986 43.8761C187.587 43.2622 188.151 42.5464 188.78 42.9197C190.688 44.0499 192.432 45.4152 193.17 46.5313C193.907 47.6475 194.501 49.7776 194.805 51.9856C194.913 52.7182 194.041 52.9826 193.632 52.3586Z" fill="#263238"/>
<path opacity="0.6" d="M199.542 57.245C199.748 54.9425 197.393 48.0309 195.413 45.0274C193.433 42.024 187.94 37.2167 185.744 36.526C180.865 35.0045 172.921 38.9577 173.404 44.8153C173.594 47.1869 177.283 53.3226 178.959 56.0731C180.634 58.8237 185.064 64.3698 187.197 65.5293C192.446 68.4133 199.077 62.3594 199.542 57.245ZM193.632 52.3586L187.986 43.8761C187.587 43.2622 188.151 42.5464 188.78 42.9197C190.688 44.0499 192.432 45.4152 193.17 46.5313C193.907 47.6475 194.501 49.7776 194.805 51.9856C194.913 52.7182 194.041 52.9826 193.632 52.3586Z" fill="black"/>
<path d="M198.168 55.1752C198.374 52.8728 196.039 45.9406 194.049 42.9474C192.059 39.9542 186.561 35.1521 184.375 34.4511C179.496 32.9194 171.557 36.8777 172.04 42.7353C172.231 45.1069 175.924 51.2477 177.6 53.9982C179.276 56.7487 183.701 62.3 185.828 63.4646C191.066 66.3385 197.703 60.2896 198.168 55.1752ZM192.253 50.2837L186.612 41.8063C186.208 41.1976 186.777 40.4766 187.401 40.8449C189.304 41.9802 191.053 43.3505 191.796 44.4615C192.538 45.5726 193.117 47.7079 193.431 49.9159C193.539 50.6383 192.667 50.9128 192.253 50.2837Z" fill="#263238"/>
<path d="M187.951 45.4394C184.994 46.6553 181.694 46.6859 178.74 45.5247C175.787 44.3635 173.409 42.1004 172.104 39.2089C170.8 36.3173 170.669 33.0211 171.739 30.0097C172.81 26.9982 174.999 24.5048 177.849 23.0507C184.526 19.7255 192.973 22.6228 195.566 28.9426L195.968 29.9078C196.052 30.129 196.046 30.3753 195.95 30.5938C195.855 30.8123 195.678 30.9856 195.457 31.0765C195.348 31.1222 195.23 31.1458 195.111 31.1459C194.993 31.1461 194.876 31.1229 194.767 31.0776C194.658 31.0323 194.559 30.9658 194.476 30.882C194.393 30.7981 194.328 30.6985 194.284 30.589L193.877 29.6187C191.711 24.3302 184.616 21.8737 178.9 24.5317C176.384 25.6998 174.417 27.8045 173.422 30.3923C172.428 32.9802 172.486 35.8441 173.583 38.3672C174.68 40.8904 176.73 42.8708 179.289 43.8819C181.849 44.893 184.714 44.8539 187.268 43.773C193.238 41.2765 193.21 35.1567 191.371 30.676L190.828 29.3551C190.739 29.1341 190.74 28.8856 190.833 28.6638C190.926 28.442 191.102 28.265 191.324 28.1712C191.433 28.1246 191.551 28.1002 191.67 28.0992C191.789 28.0983 191.906 28.1209 192.016 28.1657C192.126 28.2106 192.225 28.2768 192.308 28.3605C192.392 28.4443 192.458 28.5439 192.502 28.6536L193.045 29.9745C195.829 36.782 193.789 42.9945 187.951 45.4394Z" fill="#263238"/>
<g opacity="0.5">
<path d="M187.951 45.4394C184.994 46.6553 181.694 46.6859 178.74 45.5247C175.787 44.3635 173.409 42.1004 172.104 39.2089C170.8 36.3173 170.669 33.0211 171.739 30.0097C172.81 26.9982 174.999 24.5048 177.849 23.0507C184.526 19.7255 192.973 22.6228 195.566 28.9426L195.968 29.9078C196.052 30.129 196.046 30.3753 195.95 30.5938C195.855 30.8123 195.678 30.9856 195.457 31.0765C195.348 31.1222 195.23 31.1458 195.111 31.1459C194.993 31.1461 194.876 31.1229 194.767 31.0776C194.658 31.0323 194.559 30.9658 194.476 30.882C194.393 30.7981 194.328 30.6985 194.284 30.589L193.877 29.6187C191.711 24.3302 184.616 21.8737 178.9 24.5317C176.384 25.6998 174.417 27.8045 173.422 30.3923C172.428 32.9802 172.486 35.8441 173.583 38.3672C174.68 40.8904 176.73 42.8708 179.289 43.8819C181.849 44.893 184.714 44.8539 187.268 43.773C193.238 41.2765 193.21 35.1567 191.371 30.676L190.828 29.3551C190.739 29.1341 190.74 28.8856 190.833 28.6638C190.926 28.442 191.102 28.265 191.324 28.1712C191.433 28.1246 191.551 28.1002 191.67 28.0992C191.789 28.0983 191.906 28.1209 192.016 28.1657C192.126 28.2106 192.225 28.2768 192.308 28.3605C192.392 28.4443 192.458 28.5439 192.502 28.6536L193.045 29.9745C195.829 36.782 193.789 42.9945 187.951 45.4394Z" fill="white"/>
</g>
<path d="M173.09 48.3812C175.316 45.4874 176.418 37.3758 175.052 34.0534C173.685 30.7309 167.22 25.7711 163.638 25.322C155.66 24.2857 137.653 30.5946 133.882 37.7583C132.4 40.6175 134.44 47.5309 135.417 50.606C136.393 53.6811 140.301 59.7392 143.36 60.7919C150.912 63.3986 168.148 54.7417 173.09 48.3812ZM172.185 40.7387L168.32 31.3047C168.244 31.1545 168.224 30.9819 168.263 30.8171C168.302 30.6523 168.397 30.5057 168.532 30.403C168.668 30.3004 168.834 30.2481 169.003 30.2555C169.172 30.2628 169.332 30.3293 169.455 30.4432C171.24 31.8795 172.779 33.5107 173.271 34.73C173.763 35.9493 173.827 38.2248 173.566 40.5123C173.551 40.6723 173.483 40.8233 173.373 40.9414C173.262 41.0594 173.116 41.1376 172.958 41.1636C172.799 41.1897 172.637 41.162 172.497 41.085C172.356 41.008 172.247 40.8861 172.185 40.7387Z" fill="#263238"/>
<path opacity="0.6" d="M173.09 48.3812C175.316 45.4874 176.418 37.3758 175.052 34.0534C173.685 30.7309 167.22 25.7711 163.638 25.322C155.66 24.2857 137.653 30.5946 133.882 37.7583C132.4 40.6175 134.44 47.5309 135.417 50.606C136.393 53.6811 140.301 59.7392 143.36 60.7919C150.912 63.3986 168.148 54.7417 173.09 48.3812ZM172.185 40.7387L168.32 31.3047C168.244 31.1545 168.224 30.9819 168.263 30.8171C168.302 30.6523 168.397 30.5057 168.532 30.403C168.668 30.3004 168.834 30.2481 169.003 30.2555C169.172 30.2628 169.332 30.3293 169.455 30.4432C171.24 31.8795 172.779 33.5107 173.271 34.73C173.763 35.9493 173.827 38.2248 173.566 40.5123C173.551 40.6723 173.483 40.8233 173.373 40.9414C173.262 41.0594 173.116 41.1376 172.958 41.1636C172.799 41.1897 172.637 41.162 172.497 41.085C172.356 41.008 172.247 40.8861 172.185 40.7387Z" fill="black"/>
<path d="M172.12 46.0493C174.346 43.1555 175.449 35.044 174.082 31.7215C172.715 28.3991 166.245 23.4444 162.668 22.9902C154.725 21.9893 136.703 28.2932 132.963 35.4262C131.451 38.3161 133.521 45.1988 134.477 48.3045C135.433 51.4103 139.356 57.4326 142.416 58.4853C149.968 61.0921 167.198 52.4403 172.12 46.0493ZM171.24 38.4423L167.37 29.0033C167.295 28.8531 167.274 28.6805 167.313 28.5157C167.352 28.3509 167.447 28.2043 167.583 28.1016C167.718 27.999 167.884 27.9467 168.053 27.9541C168.222 27.9614 168.382 28.0279 168.505 28.1418C170.3 29.5781 171.839 31.2092 172.321 32.4286C172.803 33.6479 172.883 35.9183 172.616 38.2109C172.6 38.3694 172.532 38.5186 172.422 38.6354C172.313 38.7522 172.169 38.8298 172.011 38.8563C171.854 38.8827 171.693 38.8564 171.554 38.7815C171.414 38.7067 171.304 38.5874 171.24 38.4423Z" fill="#263238"/>
<path d="M160.595 48.2857L152.977 29.7022C150.395 30.3457 147.872 31.2146 145.438 32.2989L153.458 51.8781C155.937 50.8933 158.325 49.6911 160.595 48.2857Z" fill="#1D68E4"/>
<path d="M143.468 33.2362C140.603 34.7129 138.298 36.3801 137.475 38.0036C137.418 38.1516 136.869 39.8551 139.011 46.7069C139.772 49.1466 142.765 53.0815 143.898 53.4878C145.58 54.0642 148.357 53.6368 151.413 52.6274L143.468 33.2362Z" fill="#1D68E4"/>
<path d="M162.445 47.0537C163.793 46.1359 165.009 45.036 166.057 43.7858C167.252 42.2265 168.062 36.3618 167.324 34.5583C166.585 32.7548 161.91 29.1753 159.971 28.9363C158.36 28.801 156.736 28.9006 155.148 29.2322L162.445 47.0537Z" fill="#1D68E4"/>
<path d="M154.242 42.3238L152.676 38.5005L149.875 39.6729L151.442 43.4962L154.242 42.3238Z" fill="white"/>
<path d="M153.373 42.0876L153.157 41.5643L154.545 40.9866C154.754 40.8719 154.914 40.6842 154.993 40.4599C155.073 40.2357 155.066 39.9908 154.976 39.7727C154.885 39.5545 154.716 39.3787 154.502 39.2792C154.288 39.1797 154.044 39.1636 153.816 39.234L152.439 39.8117L152.228 39.2935L153.605 38.7158C153.971 38.5912 154.368 38.6095 154.718 38.767C155.067 38.9244 155.343 39.2092 155.488 39.564C155.634 39.9187 155.638 40.3169 155.502 40.6781C155.365 41.0393 155.097 41.3366 154.751 41.5099L153.373 42.0876Z" fill="white"/>
<path d="M144.984 46.1988L143.418 42.3755L140.618 43.5479L142.184 47.3712L144.984 46.1988Z" fill="white"/>
<path d="M143.187 43.6854L142.97 43.1621L144.353 42.5895C144.725 42.4342 145.141 42.4322 145.511 42.584C145.881 42.7357 146.173 43.0287 146.324 43.3986C146.476 43.7684 146.473 44.1848 146.317 44.5561C146.162 44.9274 145.866 45.2233 145.494 45.3786L145.283 44.8604C145.404 44.8158 145.515 44.7471 145.61 44.6586C145.704 44.5701 145.78 44.4636 145.832 44.3455C145.884 44.2274 145.912 44.1001 145.914 43.9715C145.915 43.8428 145.891 43.7154 145.842 43.597C145.793 43.4786 145.72 43.3716 145.628 43.2826C145.536 43.1936 145.427 43.1243 145.307 43.0791C145.187 43.0338 145.059 43.0134 144.931 43.0192C144.802 43.025 144.676 43.0569 144.559 43.1128L143.187 43.6854Z" fill="white"/>
<path d="M164.829 39.475L164.181 37.8849L164.78 35.4123L159.952 37.4342L162.104 38.7566L162.757 40.3416L164.829 39.475Z" fill="white"/>
<path d="M159.168 35.3305C159.539 34.4519 160.24 33.7517 161.12 33.3826C161.999 33.0136 162.985 33.0055 163.863 33.3602L163.553 34.0747C162.861 33.792 162.081 33.7966 161.386 34.0876C160.69 34.3787 160.136 34.9323 159.843 35.6273L159.168 35.3305Z" fill="white"/>
<path d="M160.794 36.0039C160.886 35.7825 161.02 35.581 161.19 35.4108C161.359 35.2406 161.56 35.1052 161.781 35.0122C162.002 34.9193 162.238 34.8707 162.477 34.8691C162.716 34.8676 162.952 34.9132 163.172 35.0033L162.863 35.7178C162.734 35.6643 162.596 35.6371 162.456 35.6379C162.316 35.6386 162.178 35.6673 162.048 35.7222C161.919 35.7761 161.801 35.855 161.702 35.9542C161.603 36.0535 161.524 36.1712 161.47 36.3006L160.794 36.0039Z" fill="white"/>
</g>
<g clip-path="url(#clip1_106_1142)">
<path d="M14.8431 107.7C14.8431 107.7 12.4102 105.275 11.7096 119.965C11.0513 133.83 10.0851 153.819 13.4726 162.397C13.8313 163.327 14.4883 164.116 15.3435 164.643C16.2338 165.178 17.2232 165.532 18.2537 165.685C21.1909 166.137 32.7971 165.882 32.7971 165.882C32.7971 165.882 39.3836 165.882 39.4837 160.527C39.5645 156.122 39.4837 146.54 39.4837 146.54L14.8431 107.7Z" fill="#263238"/>
<g opacity="0.3">
<path d="M14.8431 107.7C14.8431 107.7 12.4102 105.275 11.7096 119.965C11.0513 133.83 10.0851 153.819 13.4726 162.397C13.8313 163.327 14.4883 164.116 15.3435 164.643C16.2338 165.178 17.2232 165.532 18.2537 165.685C21.1909 166.137 32.7971 165.882 32.7971 165.882C32.7971 165.882 39.3836 165.882 39.4837 160.527C39.5645 156.122 39.4837 146.54 39.4837 146.54L14.8431 107.7Z" fill="black"/>
</g>
<path d="M148.918 107.7C148.918 107.7 146.482 105.275 145.781 119.965C145.123 133.83 144.156 153.819 147.532 162.397C147.892 163.327 148.549 164.115 149.403 164.643C150.297 165.179 151.291 165.533 152.325 165.685C155.262 166.137 166.868 165.882 166.868 165.882C166.868 165.882 173.455 165.882 173.555 160.527C173.64 156.122 173.555 146.54 173.555 146.54L148.918 107.7Z" fill="#263238"/>
<g opacity="0.3">
<path d="M148.918 107.7C148.918 107.7 146.482 105.275 145.781 119.965C145.123 133.83 144.156 153.819 147.532 162.397C147.892 163.327 148.549 164.115 149.403 164.643C150.297 165.179 151.291 165.533 152.325 165.685C155.262 166.137 166.868 165.882 166.868 165.882C166.868 165.882 173.455 165.882 173.555 160.527C173.64 156.122 173.555 146.54 173.555 146.54L148.918 107.7Z" fill="black"/>
</g>
<path d="M184.777 82.2875C184.777 82.2875 184.042 84.7694 182.521 85.0279C181 85.2863 168.994 85.6474 168.994 85.6474L167.839 88.0267H165.579L163.939 78.4829L165.341 78.768C165.576 78.816 165.796 78.9196 165.981 79.0699C166.167 79.2201 166.313 79.4126 166.407 79.6308C166.511 79.8718 166.679 80.0808 166.893 80.236C167.107 80.3911 167.359 80.4866 167.623 80.5125L184.777 82.2875Z" fill="#263238"/>
<path d="M184.26 82.656C184.47 82.6409 184.675 82.5832 184.862 82.4866C185.049 82.3899 185.214 82.2564 185.346 82.0942C185.479 81.9321 185.576 81.7447 185.632 81.5439C185.688 81.343 185.702 81.133 185.672 80.9267C185.287 78.2015 183.832 72.9032 178.501 72.1164C175.209 71.5866 171.86 71.5023 168.546 71.8656C167.718 71.972 167.31 72.7131 167.21 73.5341C166.756 77.2817 167.122 81.9263 168.219 82.5002C169.316 83.0741 180.368 82.9563 184.26 82.656Z" fill="#397BE7"/>
<path d="M177.115 72.1355C177.231 72.2506 177.333 72.3781 177.419 72.5156C177.604 72.7626 177.858 73.1313 178.158 73.5988C179.713 76.0467 180.881 78.7137 181.623 81.5083C181.762 82.0442 181.862 82.4775 181.916 82.7853C181.957 82.9405 181.981 83.0999 181.985 83.2604C181.922 83.112 181.873 82.958 181.839 82.8005C181.762 82.5041 181.642 82.0708 181.484 81.5425C181.078 80.1687 180.587 78.8207 180.014 77.506C179.434 76.1884 178.775 74.9065 178.039 73.6672C177.754 73.1959 177.519 72.812 177.354 72.5536C177.259 72.4233 177.179 72.2831 177.115 72.1355Z" fill="#263238"/>
<path d="M182.054 117.65C182.054 117.65 184.49 115.221 185.187 129.911C185.849 143.777 186.815 163.765 183.439 172.344C183.079 173.273 182.423 174.062 181.568 174.59C180.673 175.125 179.678 175.479 178.643 175.631C175.71 176.084 164.103 175.829 164.103 175.829C164.103 175.829 157.513 175.829 157.413 170.474C157.332 166.068 157.413 156.487 157.413 156.487L182.054 117.65Z" fill="#263238"/>
<path d="M182.055 117.65C182.055 117.65 182.02 117.715 181.943 117.84L181.601 118.391C181.297 118.882 180.831 119.6 180.261 120.531L175.203 128.558C170.853 135.426 164.705 145.141 157.495 156.536V156.487C157.495 160.668 157.495 165.038 157.495 169.573C157.473 170.138 157.497 170.703 157.568 171.264C157.65 171.821 157.833 172.36 158.107 172.853C158.705 173.84 159.62 174.603 160.706 175.019C162.881 175.981 165.36 175.696 167.773 175.78C170.325 175.802 172.847 175.81 175.326 175.745C176.553 175.737 177.777 175.643 178.991 175.464C179.582 175.347 180.158 175.165 180.708 174.921C181.253 174.687 181.756 174.367 182.197 173.974C182.624 173.575 182.969 173.099 183.214 172.572C183.33 172.305 183.43 172.032 183.514 171.754C183.61 171.477 183.702 171.2 183.795 170.926C183.89 170.652 183.969 170.373 184.03 170.09L184.238 169.25C184.392 168.695 184.484 168.129 184.588 167.566C184.815 166.449 184.938 165.327 185.092 164.221C185.161 163.666 185.204 163.115 185.258 162.564C185.312 162.013 185.369 161.47 185.4 160.926C185.712 156.578 185.754 152.427 185.727 148.551C185.7 144.674 185.577 141.055 185.454 137.76C185.331 134.465 185.188 131.477 185.069 128.862C184.969 126.623 184.753 124.391 184.422 122.173C184.122 120.36 183.756 118.95 183.241 118.121C183.131 117.939 182.989 117.778 182.821 117.646C182.699 117.552 182.548 117.504 182.394 117.509C182.267 117.519 182.146 117.566 182.047 117.646C182.068 117.621 182.093 117.6 182.12 117.582C182.201 117.528 182.293 117.496 182.39 117.487C182.551 117.479 182.711 117.527 182.84 117.623C183.014 117.755 183.162 117.917 183.275 118.102C183.81 118.935 184.188 120.345 184.499 122.162C184.845 124.379 185.073 126.614 185.181 128.855C185.323 131.474 185.466 134.457 185.604 137.753C185.743 141.048 185.862 144.666 185.904 148.547C185.947 152.427 185.904 156.582 185.596 160.941C185.566 161.485 185.508 162.032 185.454 162.583C185.4 163.134 185.358 163.685 185.292 164.244C185.138 165.35 185.015 166.479 184.788 167.6C184.684 168.167 184.592 168.74 184.438 169.292L184.23 170.139C184.167 170.424 184.088 170.704 183.991 170.979C183.899 171.26 183.803 171.538 183.71 171.815C183.626 172.1 183.523 172.38 183.402 172.651C183.149 173.202 182.789 173.699 182.344 174.115C181.889 174.524 181.369 174.855 180.804 175.095C180.243 175.35 179.654 175.537 179.048 175.654C177.824 175.837 176.588 175.932 175.349 175.939C172.862 176.008 170.345 176 167.789 175.977L164.162 175.924C162.954 175.901 161.761 175.654 160.644 175.198C159.516 174.765 158.568 173.971 157.949 172.944C157.664 172.43 157.474 171.87 157.387 171.291C157.317 170.721 157.293 170.146 157.314 169.573C157.314 165.035 157.314 160.656 157.314 156.483V156.456V156.433L175.087 128.486L180.192 120.504L181.554 118.384L181.909 117.84C182.013 117.707 182.055 117.65 182.055 117.65Z" fill="#455A64"/>
<path d="M3.90266 117.65C3.90266 117.65 1.46593 115.221 0.769167 129.911C0.107053 143.777 -0.855321 163.784 2.51684 172.344C2.87819 173.272 3.53459 174.06 4.38769 174.59C5.28324 175.125 6.27777 175.479 7.31331 175.631C10.2466 176.084 21.8567 175.829 21.8567 175.829C21.8567 175.829 28.4432 175.829 28.5433 170.474C28.6241 166.068 28.5433 156.487 28.5433 156.487L3.90266 117.65Z" fill="#263238"/>
<path d="M184.318 104.994L178.929 101.493C177.705 96.0541 167.704 84.7695 167.704 84.7695C167.704 84.7695 157.31 59.9806 148.314 54.1388C139.317 48.297 95.4679 49.0305 95.4679 49.0305L93.1582 49.0647C93.1582 49.0647 46.6755 48.3046 37.6985 54.1388C28.7214 59.973 18.3009 84.7695 18.3009 84.7695C18.3009 84.7695 8.29217 96.0541 7.07573 101.493L1.68643 104.994C1.14928 105.34 0.711874 105.818 0.416504 106.381C0.121134 106.944 -0.0222043 107.572 0.000351323 108.205C0.327559 117.38 2.11373 153.815 5.23567 157.916C8.22288 161.831 36.4435 159.756 44.1156 159.744C55.1213 159.725 89.3857 159.28 89.3857 159.28L139.737 159.159C145.454 158.554 176.869 162.348 180.746 157.916C184.137 154.043 185.654 117.38 185.981 108.205C186.006 107.574 185.866 106.947 185.575 106.385C185.284 105.822 184.851 105.343 184.318 104.994Z" fill="#397BE7"/>
<path d="M145.873 55.8034C145.762 55.6105 145.603 55.4486 145.411 55.333C145.219 55.2173 145.001 55.1516 144.776 55.1421L93.7816 52.987L93.3967 52.968V53.0022L41.1898 55.1421C40.9652 55.1516 40.7467 55.2173 40.5548 55.333C40.3629 55.4486 40.2039 55.6105 40.0927 55.8034L26.7888 78.7108C26.6863 78.8875 26.6319 79.0874 26.6309 79.291C26.6299 79.4946 26.6823 79.695 26.7832 79.8726C26.884 80.0503 27.0297 80.1991 27.2061 80.3045C27.3825 80.41 27.5835 80.4685 27.7897 80.4744C29.2486 80.5162 31.4159 80.539 33.9489 80.4364C38.037 80.2692 70.5653 80.3452 87.7341 80.3984V80.4364H93.0079H98.2778V80.3984C115.45 80.3452 147.975 80.2692 152.063 80.4364C154.708 80.5428 156.967 80.5124 158.426 80.4668C158.61 80.4617 158.789 80.4095 158.945 80.3155C159.102 80.2215 159.232 80.0889 159.321 79.9306C159.41 79.7723 159.456 79.5938 159.455 79.4126C159.453 79.2314 159.404 79.0538 159.312 78.8971L145.873 55.8034Z" fill="#455A64"/>
<path d="M1.19727 82.2875C1.19727 82.2875 1.92482 84.7694 3.46462 85.0279C5.00442 85.2863 16.9379 85.6474 16.9379 85.6474L18.0927 88.0267H20.3485L22.0192 78.4829L20.618 78.768C20.3829 78.816 20.1631 78.9196 19.9773 79.0699C19.7916 79.2201 19.6456 79.4126 19.5517 79.6308C19.4475 79.8718 19.2796 80.0808 19.0656 80.236C18.8516 80.3911 18.5994 80.4866 18.3352 80.5125L1.19727 82.2875Z" fill="#263238"/>
<path d="M31.7389 76.1225L154.384 75.7957L155.381 78.2016L96.1179 78.5816L30.5879 78.1636L31.7389 76.1225Z" fill="#397BE7"/>
<g opacity="0.5">
<path d="M31.7389 76.1225L154.034 75.7957L155.381 78.2016L96.1179 78.5816L30.5879 78.1636L31.7389 76.1225Z" fill="black"/>
</g>
<path d="M77.6983 76.6736C77.6983 75.3509 77.1825 71.6147 75.9429 70.6189C74.9844 69.8588 72.717 69.6193 71.5968 69.5547H71.4891C70.8962 69.5547 66.9351 69.6649 65.7456 70.6189C64.5561 71.5729 63.9902 75.3509 63.9902 76.6736V76.7116C63.9902 77.1057 64.1488 77.4837 64.4311 77.7624C64.7134 78.0411 65.0962 78.1977 65.4954 78.1977H76.1931C76.5923 78.1977 76.9752 78.0411 77.2574 77.7624C77.5397 77.4837 77.6983 77.1057 77.6983 76.7116V76.6736Z" fill="#263238"/>
<g opacity="0.3">
<path d="M77.6983 76.6736C77.6983 75.3509 77.1825 71.6147 75.9429 70.6189C74.9844 69.8588 72.717 69.6193 71.5968 69.5547H71.4891C70.8962 69.5547 66.9351 69.6649 65.7456 70.6189C64.5561 71.5729 63.9902 75.3509 63.9902 76.6736V76.7116C63.9902 77.1057 64.1488 77.4837 64.4311 77.7624C64.7134 78.0411 65.0962 78.1977 65.4954 78.1977H76.1931C76.5923 78.1977 76.9752 78.0411 77.2574 77.7624C77.5397 77.4837 77.6983 77.1057 77.6983 76.7116V76.6736Z" fill="black"/>
</g>
<path d="M72.298 75.7006C72.298 73.538 71.455 67.4225 69.4225 65.7882C67.8557 64.5301 64.141 64.1538 62.3086 64.0512C62.2509 64.0474 62.193 64.0474 62.1354 64.0512C61.1653 64.0512 54.675 64.2336 52.731 65.792C50.7024 67.4263 49.8555 73.5418 49.8555 75.7044V75.7691C49.8555 76.0888 49.9193 76.4054 50.0434 76.7008C50.1674 76.9962 50.3492 77.2645 50.5784 77.4905C50.8076 77.7164 51.0797 77.8955 51.379 78.0175C51.6784 78.1395 51.9991 78.2021 52.323 78.2016H69.8305C70.1544 78.2021 70.4752 78.1395 70.7745 78.0175C71.0739 77.8955 71.3459 77.7164 71.5751 77.4905C71.8043 77.2645 71.9861 76.9962 72.1101 76.7008C72.2342 76.4054 72.298 76.0888 72.298 75.7691V75.7006Z" fill="#263238"/>
<g opacity="0.3">
<path d="M50.8558 138.938C50.8558 138.938 11.5909 133.842 10.0087 133.652C7.58356 133.363 6.28243 134.913 6.28243 136.761C6.28243 138.064 6.10536 143.032 5.99757 145.852C5.96563 146.67 6.15714 147.481 6.552 148.201C6.94687 148.92 7.53054 149.522 8.24183 149.942C9.33283 150.557 10.4964 151.037 11.7064 151.371C15.0092 152.329 34.9073 153.237 39.0378 153.416C39.5202 153.435 39.9917 153.27 40.3543 152.956C41.8364 151.664 45.8129 148.136 47.064 146.388C51.1676 140.668 50.8789 138.938 50.8789 138.938H50.8558ZM30.4534 149.535L11.4716 146.494L12.2145 136.232L38.0061 138.543L30.4534 149.535Z" fill="black"/>
</g>
<g opacity="0.3">
<path d="M6.86017 112.584C6.86017 112.584 4.91233 118.414 17.2538 121.128C29.7647 123.876 48.2808 128.855 48.2808 128.855L38.3529 121.854C38.3529 121.854 9.75114 117.144 9.03899 112.827C8.22674 107.886 9.03899 102.333 9.03899 102.333L6.86017 112.584Z" fill="black"/>
</g>
<path d="M55.1254 138.763C55.0799 138.758 55.0349 138.749 54.9907 138.737L54.6058 138.646L53.1045 138.266C51.7995 137.954 49.9132 137.505 47.565 136.977C42.8763 135.939 36.363 134.674 29.1259 133.507C25.5036 132.929 22.0506 132.393 18.9017 131.987L14.4324 131.378C13.144 131.16 11.8401 131.043 10.5329 131.029C9.45589 131.006 8.39718 131.306 7.49561 131.888C6.83026 132.347 6.26265 132.931 5.82493 133.606C5.44987 134.184 5.19593 134.83 5.07812 135.506C5.08665 135.328 5.11374 135.151 5.15896 134.978C5.28288 134.48 5.48554 134.004 5.75949 133.568C6.19056 132.873 6.7587 132.27 7.43017 131.797C8.34059 131.194 9.41399 130.878 10.5098 130.888C11.8242 130.894 13.1359 131.005 14.4324 131.219L18.9055 131.804C22.0621 132.184 25.5151 132.732 29.1375 133.325C36.3784 134.488 42.8956 135.776 47.5766 136.852C49.9209 137.384 51.811 137.866 53.1045 138.205L54.5981 138.615L54.983 138.725C55.0318 138.733 55.0796 138.745 55.1254 138.763Z" fill="#263238"/>
<path d="M5.28487 123.69C5.27286 123.618 5.26643 123.546 5.26562 123.473C5.26562 123.306 5.26562 123.093 5.26562 122.85C5.26562 122.31 5.26562 121.527 5.26562 120.569C5.28872 118.634 5.39651 115.963 5.65057 113.025C5.90464 110.086 6.28959 107.434 6.61295 105.526C6.77463 104.572 6.91321 103.8 7.02485 103.272C7.07489 103.025 7.12108 102.823 7.15188 102.66C7.16436 102.588 7.18502 102.518 7.21347 102.451C7.21406 102.523 7.20762 102.596 7.19422 102.667C7.16728 102.831 7.14033 103.047 7.10184 103.283C7.0133 103.846 6.89781 104.613 6.75153 105.564C6.46667 107.464 6.11636 110.124 5.85075 113.059C5.58513 115.993 5.4658 118.661 5.40036 120.592C5.37726 121.538 5.35416 122.314 5.34261 122.872C5.34261 123.123 5.34261 123.328 5.32337 123.496C5.31841 123.562 5.30549 123.627 5.28487 123.69Z" fill="#263238"/>
<path d="M13.8813 97.4261C13.8625 97.2708 13.8625 97.1138 13.8813 96.9586C13.8778 96.7756 13.888 96.5927 13.9121 96.4113C13.9391 96.1984 13.9506 95.9514 14.0045 95.6891C14.2369 94.3092 14.5741 92.9485 15.0131 91.6184C15.5097 90.0525 16.0409 88.6652 16.449 87.6732C16.653 87.1753 16.8339 86.7762 16.9494 86.5026C17.0069 86.3564 17.0791 86.2164 17.165 86.0845C17.134 86.2374 17.0862 86.3865 17.0225 86.5292L16.5798 87.7226C16.1949 88.726 15.6983 90.1171 15.2017 91.6755C14.7661 92.9996 14.4076 94.3473 14.1277 95.7119C13.9275 96.7609 13.9198 97.4261 13.8813 97.4261Z" fill="#263238"/>
<path d="M16.2147 100.087C16.2147 100.087 9.77449 97.7682 8.9507 102.698C8.1269 107.627 8.21159 112.531 9.2933 114.256C10.375 115.982 20.3183 118.334 20.3183 118.334L37.514 122.067C37.514 122.067 38.7497 122.321 38.0067 120.926C37.1714 119.376 32.6174 109.459 29.9844 107.046C25.1263 102.61 16.2147 100.087 16.2147 100.087Z" fill="#F5F5F5"/>
<g opacity="0.3">
<path d="M22.558 118.821C22.558 118.821 22.585 107.202 21.7227 105.898C20.8604 104.594 10.7285 99.9802 10.7285 99.9802C10.7285 99.9802 11.714 99.1707 13.7388 99.5507C16.5807 100.09 19.3386 100.994 21.9421 102.242C24.7407 103.659 29.2176 105.689 30.8883 108.038C31.6159 109.057 33.1364 111.493 34.5877 114.119C36.474 117.559 38.2601 121.238 38.2601 121.443C38.2601 121.865 38.3602 122.249 36.6857 121.896C32.8015 121.101 22.558 118.821 22.558 118.821Z" fill="black"/>
</g>
<path d="M28.1631 117.772C30.4677 117.772 32.3359 115.927 32.3359 113.652C32.3359 111.376 30.4677 109.531 28.1631 109.531C25.8585 109.531 23.9902 111.376 23.9902 113.652C23.9902 115.927 25.8585 117.772 28.1631 117.772Z" fill="#F5F5F5"/>
<path d="M32.335 113.652C32.2986 113.315 32.242 112.982 32.1657 112.652C32.0203 112.105 31.761 111.594 31.4043 111.152C31.0476 110.71 30.6014 110.346 30.0941 110.084C29.5869 109.822 29.0298 109.667 28.4585 109.629C27.8872 109.592 27.3143 109.672 26.7764 109.866C26.4063 109.997 26.0585 110.183 25.7447 110.417C25.414 110.655 25.1242 110.944 24.8863 111.272C24.3714 111.961 24.0936 112.794 24.0936 113.65C24.0936 114.505 24.3714 115.339 24.8863 116.027C25.1242 116.356 25.414 116.644 25.7447 116.882C26.0585 117.116 26.4063 117.302 26.7764 117.433C27.3145 117.624 27.8868 117.702 28.4571 117.663C29.0274 117.624 29.5834 117.469 30.0898 117.207C30.5963 116.946 31.0423 116.583 31.3996 116.142C31.7569 115.702 32.0177 115.193 32.1657 114.647C32.2415 114.319 32.298 113.986 32.335 113.652C32.3584 113.993 32.3272 114.335 32.2427 114.666C32.101 115.234 31.8405 115.766 31.4778 116.227C31.1152 116.689 30.6585 117.071 30.1373 117.348C29.6161 117.625 29.0418 117.79 28.4517 117.835C27.8615 117.879 27.2685 117.8 26.7109 117.604C25.9166 117.322 25.2253 116.812 24.7246 116.141C24.183 115.421 23.8906 114.547 23.8906 113.65C23.8906 112.752 24.183 111.879 24.7246 111.158C25.2253 110.487 25.9166 109.978 26.7109 109.695C27.4278 109.442 28.1998 109.383 28.9475 109.524C29.7415 109.676 30.4744 110.05 31.0588 110.602C31.6431 111.154 32.0541 111.86 32.2427 112.637C32.3272 112.968 32.3584 113.311 32.335 113.652Z" fill="#263238"/>
<path d="M28.1628 113.473C28.8892 113.472 29.6024 113.664 30.2276 114.029C30.8528 114.395 31.3669 114.919 31.7159 115.548C32.0565 114.938 32.2302 114.251 32.2198 113.555C32.2093 112.858 32.0152 112.177 31.6565 111.577C31.2977 110.977 30.7868 110.48 30.1742 110.135C29.5615 109.79 28.8683 109.608 28.1628 109.608C27.4574 109.608 26.7642 109.79 26.1515 110.135C25.5388 110.48 25.0279 110.977 24.6692 111.577C24.3105 112.177 24.1163 112.858 24.1059 113.555C24.0955 114.251 24.2691 114.938 24.6098 115.548C24.9588 114.919 25.4729 114.395 26.0981 114.029C26.7232 113.664 27.4365 113.472 28.1628 113.473Z" fill="#E0E0E0"/>
<path d="M29.9607 113.515C29.9607 113.866 29.8552 114.209 29.6577 114.501C29.4602 114.793 29.1794 115.02 28.8509 115.155C28.5224 115.289 28.161 115.324 27.8122 115.256C27.4635 115.187 27.1432 115.018 26.8918 114.77C26.6404 114.522 26.4691 114.205 26.3998 113.861C26.3304 113.517 26.366 113.16 26.5021 112.835C26.6381 112.511 26.8686 112.234 27.1642 112.039C27.4598 111.844 27.8074 111.74 28.163 111.74C28.6397 111.74 29.097 111.927 29.4341 112.26C29.7713 112.592 29.9607 113.044 29.9607 113.515Z" fill="white"/>
<path d="M29.9606 113.515C29.9606 113.515 29.9605 113.355 29.8682 113.089C29.7554 112.716 29.523 112.389 29.206 112.158C28.9748 111.992 28.7056 111.884 28.4222 111.845C28.1389 111.806 27.8501 111.836 27.5816 111.934C27.2534 112.052 26.9701 112.268 26.77 112.55C26.5698 112.833 26.4625 113.17 26.4625 113.515C26.4625 113.86 26.5698 114.197 26.77 114.479C26.9701 114.762 27.2534 114.977 27.5816 115.096C27.8501 115.193 28.1389 115.224 28.4222 115.185C28.7056 115.146 28.9748 115.038 29.206 114.872C29.523 114.64 29.7554 114.314 29.8682 113.941C29.9413 113.674 29.9413 113.515 29.9606 113.515C29.9798 113.515 29.9606 113.553 29.9606 113.629C29.963 113.74 29.9514 113.851 29.9259 113.96C29.839 114.365 29.6099 114.727 29.2792 114.982C29.0318 115.173 28.7393 115.3 28.429 115.35C28.1187 115.4 27.8007 115.371 27.5046 115.267C27.1377 115.139 26.82 114.902 26.5953 114.588C26.3706 114.274 26.25 113.899 26.25 113.515C26.25 113.131 26.3706 112.756 26.5953 112.442C26.82 112.128 27.1377 111.891 27.5046 111.763C27.8007 111.659 28.1187 111.63 28.429 111.68C28.7393 111.73 29.0318 111.856 29.2792 112.048C29.611 112.303 29.8401 112.667 29.9259 113.074C29.9515 113.181 29.9631 113.291 29.9606 113.401C29.9721 113.477 29.9682 113.515 29.9606 113.515Z" fill="#263238"/>
<path d="M29.7378 110.729C29.6608 110.854 29.2835 110.729 28.7138 110.706C27.999 110.631 27.2778 110.769 26.6436 111.103C26.0094 111.437 25.4914 111.952 25.1569 112.58C24.872 113.066 24.7719 113.435 24.6064 113.427C24.4409 113.42 24.3331 113.002 24.4986 112.325C24.6166 111.881 24.8265 111.465 25.1151 111.105C25.4037 110.744 25.7647 110.447 26.1755 110.231C26.5862 110.015 27.0378 109.885 27.5019 109.85C27.9659 109.814 28.4323 109.874 28.8717 110.026C29.5338 110.269 29.8071 110.622 29.7378 110.729Z" fill="white"/>
<path d="M30.7969 111.379C30.5698 111.535 30.3619 111.626 30.3234 111.592C30.2849 111.557 30.3735 111.345 30.5236 111.117C30.6737 110.889 30.9086 110.771 31.0202 110.881C31.1318 110.991 31.0087 111.227 30.7969 111.379Z" fill="white"/>
<path d="M93.8387 100.691C93.7837 100.696 93.7283 100.696 93.6732 100.691H93.1882H91.3289L84.4883 100.717H61.9226L49.5002 100.695H44.0763H41.6203C40.8753 100.633 40.1334 100.845 39.5377 101.291L36.5698 103.785L35.3418 104.796C34.9828 105.072 34.568 105.269 34.1253 105.373C33.7744 105.459 33.4113 105.486 33.0513 105.453L32.2814 105.411L31.7964 105.385H31.6309C31.6858 105.378 31.7414 105.378 31.7964 105.385H32.2814L33.0513 105.408C33.4058 105.431 33.7618 105.399 34.1061 105.313C34.5349 105.202 34.9359 105.006 35.284 104.735L36.5005 103.709L39.4646 101.212C40.0856 100.745 40.8571 100.517 41.6357 100.569H49.5156H61.9379L84.5037 100.622L91.3443 100.66L93.2036 100.683H93.6886L93.8387 100.691Z" fill="#263238"/>
<path d="M174.525 154.871C174.32 154.438 173.882 154.134 173.012 154.229C170.606 154.499 145.384 155.054 141.912 154.229C138.439 153.404 126.852 140.428 121.952 139.547C117.841 138.805 97.8541 138.406 91.514 138.589C85.1738 138.406 65.1834 138.805 61.0721 139.547C56.1717 140.428 44.7657 154.674 41.2896 155.51C37.8135 156.346 12.4183 154.51 10.0124 154.241C9.14627 154.146 8.70743 154.45 8.49955 154.883C8.40616 155.093 8.36689 155.323 8.38527 155.552C8.40364 155.78 8.47908 156.001 8.60485 156.194C8.73063 156.387 8.90283 156.547 9.10611 156.658C9.30939 156.769 9.53743 156.829 9.76989 156.833C15.1592 156.985 35.8849 157.213 39.7613 157.148C43.8341 157.08 85.4818 156.327 92.4571 156.198C102.982 156.266 138.928 156.491 142.732 156.544C147.22 156.608 167.884 156.985 173.258 156.833C173.492 156.83 173.721 156.769 173.925 156.657C174.129 156.545 174.302 156.384 174.427 156.19C174.553 155.995 174.628 155.773 174.645 155.543C174.662 155.313 174.62 155.082 174.525 154.871Z" fill="#263238"/>
<path d="M84.4434 54.7012C84.6512 54.7012 85.271 58.2777 88.1966 58.2093C91.1222 58.1409 98.2515 58.2093 98.2515 58.2093V53.7244L84.4434 54.7012Z" fill="#263238"/>
<path d="M1.69749 82.656C1.48704 82.6409 1.28198 82.5832 1.09505 82.4866C0.908112 82.3899 0.743291 82.2564 0.610814 82.0942C0.478337 81.9321 0.381031 81.7447 0.324936 81.5439C0.268842 81.343 0.255155 81.133 0.284727 80.9267C0.669676 78.2015 2.12479 72.9032 7.45634 72.1164C10.7477 71.5866 14.0967 71.5023 17.4111 71.8656C18.2388 71.972 18.6468 72.7131 18.7469 73.5341C19.2012 77.2817 18.8355 81.9263 17.7383 82.5002C16.6412 83.0741 5.58933 82.9563 1.69749 82.656Z" fill="#397BE7"/>
<path d="M38.595 53.7245C38.595 53.7245 38.595 53.7549 38.5565 53.8119C38.518 53.8689 38.4757 53.964 38.4256 54.0666L37.9059 55.0282L35.9812 58.5515L29.4871 70.1326L23.9785 79.8892L19.5438 83.2605C19.0242 83.6406 18.6161 83.9561 18.3197 84.1727L17.9963 84.4084C17.9615 84.4378 17.9226 84.4621 17.8809 84.4806C17.9108 84.4468 17.9444 84.4162 17.9809 84.3894L18.2928 84.1385L19.4899 83.2073L23.8668 79.7866V79.8094L29.31 70.0337L35.8388 58.5021L37.8367 55.0092C38.0715 54.6291 38.2562 54.2946 38.3871 54.0666L38.5373 53.8233C38.5732 53.7549 38.5924 53.722 38.595 53.7245Z" fill="#263238"/>
<path d="M45.6973 51.5808C45.3894 51.7316 45.0703 51.8587 44.7426 51.9609C43.9744 52.2415 43.2491 52.6252 42.5869 53.1011C41.9447 53.5997 41.3748 54.1829 40.8931 54.8343C40.7045 55.1167 40.4947 55.3848 40.2656 55.6363C40.3979 55.321 40.5699 55.0234 40.7776 54.7507C41.2359 54.0608 41.807 53.4507 42.4675 52.9453C43.1449 52.4616 43.8977 52.0906 44.6964 51.8469C45.0176 51.7176 45.3538 51.6282 45.6973 51.5808Z" fill="#263238"/>
<g opacity="0.3">
<path d="M23.9434 79.8777L23.5585 80.1285C23.4084 79.9461 32.4508 98.6612 36.7045 103.595L39.5031 101.253C33.4902 95.4838 28.9747 86.5177 23.9434 79.8777Z" fill="black"/>
</g>
<path d="M41.8789 153.446C41.9542 153.421 42.0264 153.388 42.0945 153.347C42.29 153.226 42.4777 153.092 42.6565 152.948C43.1377 152.568 43.8114 151.994 44.6813 151.222C46.3982 149.676 48.8311 147.38 51.7529 144.465C52.4843 143.731 53.2465 142.963 54.0279 142.154C54.8116 141.28 55.6458 140.451 56.5262 139.672C57.5219 138.885 58.6416 138.265 59.8407 137.836C61.1108 137.388 62.4371 137.115 63.7825 137.023C64.4716 136.973 65.1722 136.973 65.8767 136.966L68.0093 136.947L72.4131 136.905L81.6519 136.817L114.146 136.551L123.993 136.494H127.369H126.672L123.996 136.536L114.149 136.658L81.6558 136.981L72.3939 137.065L67.9939 137.099L65.8574 137.118C65.153 137.118 64.4601 137.118 63.7787 137.171C62.4484 137.26 61.1365 137.527 59.8792 137.965C58.6975 138.386 57.5934 138.994 56.6109 139.767C55.7342 140.539 54.9027 141.36 54.1203 142.226C53.3504 143.032 52.5805 143.8 51.8337 144.506C48.8965 147.414 46.4444 149.695 44.7121 151.226C43.846 151.986 43.1723 152.564 42.6642 152.929C42.479 153.068 42.2848 153.195 42.0829 153.309C42.0259 153.369 41.9562 153.416 41.8789 153.446Z" fill="#263238"/>
<g opacity="0.3">
<path d="M21.1413 130.782C19.9901 129.575 18.7097 128.496 17.3226 127.562C15.9098 126.681 13.8773 125.662 12.5954 126.468C11.9489 127.17 11.4282 127.976 11.0556 128.851C10.9744 128.992 10.9246 129.148 10.9093 129.309C10.894 129.47 10.9137 129.633 10.9671 129.786C11.1441 130.147 11.6099 130.238 12.0141 130.288L20.868 131.386C21.0373 131.405 21.2529 131.409 21.3338 131.261C21.4146 131.112 21.2722 130.911 21.1413 130.782Z" fill="white"/>
</g>
<g opacity="0.3">
<path d="M55.5781 125.259C78.1285 131.189 101.953 129.703 125.135 127.057C128.711 126.65 132.607 126.061 135.047 123.45" fill="black"/>
</g>
<path d="M139.624 104.731C130.817 103.504 112.293 102.892 93.9153 102.903C75.5378 102.914 57.0179 103.504 48.2103 104.731C47.5595 104.82 46.9357 105.046 46.3813 105.394C45.8269 105.742 45.3547 106.204 44.9969 106.748C44.6391 107.292 44.404 107.906 44.3075 108.547C44.211 109.189 44.2554 109.843 44.4378 110.467L44.4685 110.558C45.4309 113.682 49.2304 123.652 55.2779 125.145C58.0842 125.837 73.9018 126.502 90.7742 126.639V126.662H97.0604V126.639C113.937 126.502 129.75 125.837 132.557 125.145C138.608 123.652 142.407 113.682 143.37 110.558C143.37 110.527 143.389 110.497 143.397 110.467C143.579 109.843 143.624 109.189 143.527 108.547C143.431 107.906 143.195 107.292 142.838 106.748C142.48 106.204 142.008 105.742 141.453 105.394C140.899 105.046 140.275 104.82 139.624 104.731Z" fill="#263238"/>
<path d="M141.855 123.823C141.855 123.823 141.778 123.868 141.62 123.948L140.931 124.302L139.803 124.868C139.58 124.978 139.341 125.103 139.083 125.225L138.24 125.605C134.898 127.096 131.43 128.298 127.877 129.197C122.603 130.521 117.226 131.411 111.802 131.858C105.689 132.416 98.9329 132.538 91.8499 132.507C84.7668 132.477 78.0109 132.158 71.921 131.367C66.519 130.708 61.1937 129.537 56.0188 127.87C52.5324 126.742 49.1536 125.313 45.9215 123.598C45.3441 123.302 44.8475 123.009 44.4164 122.762C43.9852 122.515 43.6195 122.298 43.3308 122.12L42.6725 121.709C42.5263 121.618 42.4531 121.565 42.4531 121.565L42.6841 121.694L43.3539 122.074C43.6465 122.249 44.0083 122.454 44.4472 122.701C44.886 122.948 45.3787 123.226 45.9562 123.519C49.1964 125.204 52.5771 126.611 56.0611 127.726C61.2326 129.371 66.5509 130.527 71.9441 131.177C78.0263 131.964 84.7745 132.272 91.8537 132.317C98.9329 132.363 105.677 132.23 111.786 131.683C117.201 131.252 122.571 130.384 127.843 129.087C131.389 128.185 134.853 126.993 138.198 125.522L139.041 125.141C139.303 125.027 139.541 124.902 139.765 124.796L140.9 124.248L141.601 123.914C141.77 123.876 141.855 123.823 141.855 123.823Z" fill="#263238"/>
<path d="M142.939 109.589C142.939 109.642 120.946 109.687 93.8267 109.687C66.707 109.687 44.7109 109.642 44.7109 109.589C44.7109 109.535 66.6993 109.49 93.8267 109.49C120.954 109.49 142.939 109.532 142.939 109.589Z" fill="#455A64"/>
<path d="M142.939 106.635C142.939 106.689 120.946 106.734 93.8267 106.734C66.707 106.734 44.7109 106.689 44.7109 106.635C44.7109 106.582 66.6993 106.533 93.8267 106.533C120.954 106.533 142.939 106.578 142.939 106.635Z" fill="#455A64"/>
<path d="M129.04 103.678C129.04 103.735 113.299 103.777 93.886 103.777C74.473 103.777 58.7324 103.735 58.7324 103.678C58.7324 103.621 74.4692 103.58 93.886 103.58C113.303 103.58 129.04 103.625 129.04 103.678Z" fill="#455A64"/>
<path d="M142.939 112.584C142.939 112.637 120.946 112.683 93.8267 112.683C66.707 112.683 44.7109 112.637 44.7109 112.584C44.7109 112.53 66.6993 112.485 93.8267 112.485C120.954 112.485 142.939 112.527 142.939 112.584Z" fill="#455A64"/>
<path d="M140.756 115.579C140.756 115.632 119.641 115.678 93.5996 115.678C67.5578 115.678 46.4395 115.632 46.4395 115.579C46.4395 115.525 67.5501 115.476 93.5996 115.476C119.649 115.476 140.756 115.514 140.756 115.579Z" fill="#455A64"/>
<path d="M139.801 118.555C139.801 118.612 119.257 118.653 93.9192 118.653C68.5818 118.653 48.0293 118.612 48.0293 118.555C48.0293 118.498 68.5702 118.456 93.9192 118.456C119.268 118.456 139.801 118.517 139.801 118.555Z" fill="#455A64"/>
<path d="M137.426 121.565C137.426 121.622 117.94 121.664 93.9271 121.664C69.9139 121.664 50.4277 121.622 50.4277 121.565C50.4277 121.508 69.9062 121.466 93.9463 121.466C117.986 121.466 137.426 121.512 137.426 121.565Z" fill="#455A64"/>
<path d="M134.483 124.56C134.483 124.613 116.429 124.659 94.1633 124.659C71.8978 124.659 53.8398 124.613 53.8398 124.56C53.8398 124.507 71.8901 124.461 94.1633 124.461C116.437 124.461 134.483 124.507 134.483 124.56Z" fill="#455A64"/>
<path d="M18.8904 155.59V155.62C18.9355 155.774 18.9445 155.936 18.9168 156.094C18.8891 156.252 18.8253 156.402 18.7304 156.532C18.6354 156.662 18.5118 156.769 18.3688 156.844C18.2258 156.92 18.0672 156.963 17.905 156.969L11.5032 156.863C11.2505 156.831 11.0162 156.716 10.8385 156.536C10.6609 156.356 10.5505 156.121 10.5255 155.871L10.4831 155.521C10.4723 155.369 10.4947 155.216 10.5489 155.073C10.6031 154.929 10.6878 154.799 10.7973 154.691C10.9068 154.583 11.0385 154.5 11.1835 154.446C11.3285 154.392 11.4835 154.37 11.638 154.381L17.9858 154.841C18.1945 154.864 18.3917 154.947 18.5526 155.08C18.7136 155.214 18.8311 155.391 18.8904 155.59Z" fill="white"/>
<path d="M138.262 151.911C138.262 151.968 117.629 152.009 92.1839 152.009C66.7387 152.009 46.1016 151.968 46.1016 151.911C46.1016 151.854 66.731 151.812 92.1839 151.812C117.637 151.812 138.262 151.857 138.262 151.911Z" fill="#455A64"/>
<path d="M66.4163 155.228H63.714L63.5215 151.91H66.6203L66.4163 155.228Z" fill="#455A64"/>
<path d="M91.6956 155.228H88.9933L88.8008 151.91H91.8996L91.6956 155.228Z" fill="#455A64"/>
<path d="M116.975 155.228H114.269L114.08 151.91H117.175L116.975 155.228Z" fill="#455A64"/>
<path d="M136.834 150.713C131.945 146.551 125.358 140.159 121.967 139.547C117.86 138.805 97.8691 138.406 91.529 138.589C85.1889 138.406 65.2023 138.805 61.091 139.547C57.9345 140.113 52.0909 146.213 47.3945 150.713H136.834Z" fill="#455A64"/>
<path d="M6.73633 148.532C6.80232 148.463 6.87307 148.4 6.94805 148.342L7.58707 147.821C8.16064 147.357 8.97674 146.703 10.0007 145.886H10.0199H10.0469L23.3392 147.498L30.6032 148.391L37.1127 151.926L38.9566 152.944L39.4417 153.222C39.4993 153.252 39.5546 153.286 39.6072 153.324C39.6072 153.324 39.5417 153.305 39.4301 153.248L38.9297 152.998L37.0627 152.021L30.5185 148.551H30.5493L23.2853 147.661L10.0007 145.981H10.0507L7.59862 147.882L6.94035 148.38C6.87741 148.437 6.80909 148.487 6.73633 148.532Z" fill="#263238"/>
<path d="M39.6489 141.276C39.6489 141.276 40.9538 139.094 39.6489 138.543C38.1476 137.912 13.0873 134.944 12.0595 134.856C10.027 134.678 9.28787 135.582 8.81053 137.943C8.33319 140.303 7.27073 146.145 9.28787 147.844C11.305 149.543 14.4462 150.295 20.6554 150.671C26.8647 151.048 30.129 151.257 33.1856 149.558C36.2421 147.859 39.6489 141.276 39.6489 141.276Z" fill="#263238"/>
<path d="M38.3517 121.854C38.2863 121.884 37.9321 121.242 37.3278 120.075C36.7234 118.908 35.8573 117.213 34.7371 115.153C34.1673 114.127 33.5476 113.002 32.8123 111.831C32.069 110.581 31.2461 109.379 30.3486 108.232C29.871 107.631 29.3332 107.08 28.7434 106.586C28.116 106.076 27.4464 105.62 26.7417 105.221C26.0179 104.811 25.2442 104.416 24.4627 104.009C23.6813 103.602 22.896 103.196 22.0876 102.804C20.5343 102.027 18.9231 101.369 17.268 100.835C16.4837 100.588 15.6871 100.38 14.8814 100.212C14.1367 100.033 13.3727 99.9447 12.6063 99.9496C11.9217 99.9511 11.2525 100.151 10.6815 100.524C10.1708 100.916 9.78249 101.443 9.56135 102.044C9.32721 102.643 9.14436 103.261 9.01472 103.891C8.87998 104.511 8.7414 105.123 8.60667 105.693L7.31324 111.094C7.00143 112.367 6.8282 113.074 6.75891 113.062C6.68962 113.051 6.73581 112.325 6.92829 111.021C7.12076 109.718 7.46337 107.844 7.92916 105.541C8.03694 104.967 8.15243 104.362 8.27561 103.735C8.39088 103.055 8.56737 102.386 8.80299 101.736C9.07018 100.988 9.54508 100.33 10.1734 99.8356C10.8764 99.3453 11.7112 99.0728 12.5717 99.0526C13.4156 99.0278 14.2592 99.1108 15.0815 99.2997C15.9222 99.4627 16.7536 99.6695 17.5721 99.9192C19.2781 100.459 20.9385 101.13 22.538 101.926C23.3579 102.325 24.1586 102.739 24.9401 103.15C25.7215 103.56 26.4799 103.959 27.2498 104.397C27.9996 104.827 28.7094 105.321 29.3709 105.875C30.0027 106.417 30.5779 107.021 31.0877 107.677C31.989 108.872 32.8082 110.125 33.5399 111.428C34.2405 112.633 34.8256 113.788 35.3607 114.849C36.4116 116.966 37.1776 118.714 37.6704 119.934C38.1631 121.154 38.4133 121.827 38.3517 121.854Z" fill="#263238"/>
<path d="M15.7324 109.399C16.6593 109.401 17.5685 109.649 18.3649 110.117C19.1614 110.585 19.8157 111.256 20.2594 112.059C20.6919 111.283 20.9119 110.408 20.8978 109.522C20.8837 108.636 20.636 107.768 20.1791 107.005C19.7221 106.243 19.0717 105.61 18.292 105.171C17.5123 104.732 16.6301 104.501 15.7324 104.501C14.8348 104.501 13.9526 104.732 13.1729 105.171C12.3931 105.61 11.7428 106.243 11.2858 107.005C10.8289 107.768 10.5811 108.636 10.567 109.522C10.5529 110.408 10.773 111.283 11.2054 112.059C11.6482 111.255 12.3023 110.583 13.099 110.115C13.8956 109.647 14.8053 109.4 15.7324 109.399Z" fill="#E0E0E0"/>
<path d="M15.7328 111.618C16.9617 111.618 17.9578 110.635 17.9578 109.421C17.9578 108.208 16.9617 107.224 15.7328 107.224C14.504 107.224 13.5078 108.208 13.5078 109.421C13.5078 110.635 14.504 111.618 15.7328 111.618Z" fill="white"/>
<path d="M17.9573 109.433C17.9573 109.433 17.9573 109.235 17.8496 108.904C17.7149 108.438 17.428 108.03 17.0335 107.741C16.7158 107.508 16.3385 107.366 15.9438 107.331C15.5491 107.297 15.1525 107.372 14.7984 107.547C14.4443 107.723 14.1465 107.992 13.9385 108.325C13.7304 108.658 13.6203 109.042 13.6203 109.433C13.6203 109.824 13.7304 110.207 13.9385 110.54C14.1465 110.873 14.4443 111.143 14.7984 111.318C15.1525 111.494 15.5491 111.568 15.9438 111.534C16.3385 111.5 16.7158 111.358 17.0335 111.124C17.4282 110.834 17.7151 110.424 17.8496 109.957C17.9419 109.627 17.9381 109.429 17.9573 109.433C17.9766 109.437 17.9573 109.478 17.9573 109.573C17.9605 109.709 17.9463 109.844 17.915 109.976C17.8023 110.475 17.518 110.919 17.1105 111.234C16.8672 111.417 16.5897 111.55 16.2939 111.626C15.9982 111.702 15.6901 111.719 15.3876 111.677C15.085 111.634 14.794 111.533 14.5314 111.379C14.2688 111.225 14.0398 111.02 13.8576 110.778C13.5632 110.386 13.4043 109.91 13.4043 109.421C13.4043 108.933 13.5632 108.457 13.8576 108.064C14.0404 107.821 14.2704 107.616 14.5343 107.462C14.7982 107.307 15.0906 107.206 15.3945 107.164C15.6984 107.122 16.0077 107.141 16.3043 107.218C16.6009 107.296 16.8789 107.431 17.122 107.616C17.5288 107.931 17.8129 108.376 17.9265 108.874C17.9578 109.007 17.9721 109.144 17.9689 109.281C17.9689 109.372 17.965 109.433 17.9573 109.433Z" fill="#263238"/>
<path d="M20.899 109.589C20.8596 109.173 20.7927 108.76 20.6989 108.353C20.402 107.249 19.7376 106.276 18.8126 105.59C18.1362 105.083 17.3415 104.751 16.5014 104.625C15.6614 104.5 14.8028 104.585 14.0046 104.872C13.544 105.033 13.1115 105.264 12.7227 105.556C12.3095 105.851 11.948 106.21 11.6525 106.62C11.0123 107.477 10.6669 108.513 10.6669 109.577C10.6669 110.642 11.0123 111.678 11.6525 112.534C11.949 112.944 12.3103 113.303 12.7227 113.599C13.1124 113.889 13.5447 114.12 14.0046 114.283C14.8571 114.588 15.776 114.665 16.6684 114.507C17.4472 114.367 18.1816 114.048 18.8126 113.576C19.7369 112.889 20.4011 111.916 20.6989 110.813C20.7921 110.405 20.859 109.993 20.899 109.577C20.9067 109.686 20.9067 109.795 20.899 109.904C20.9013 110.032 20.891 110.159 20.8682 110.284C20.8509 110.464 20.8187 110.642 20.772 110.816C20.5428 111.779 20.0363 112.656 19.3137 113.341C18.591 114.027 17.683 114.491 16.6992 114.678C15.7764 114.851 14.8235 114.778 13.9391 114.465C12.9603 114.115 12.1083 113.487 11.4909 112.66C10.8245 111.771 10.4648 110.694 10.4648 109.589C10.4648 108.483 10.8245 107.406 11.4909 106.518C11.7974 106.092 12.1734 105.72 12.6034 105.415C13.0088 105.116 13.4578 104.879 13.9353 104.712C14.8192 104.398 15.7727 104.324 16.6954 104.499C17.6792 104.681 18.5889 105.14 19.3149 105.82C20.0409 106.501 20.5522 107.374 20.7874 108.334C20.8345 108.509 20.8667 108.687 20.8836 108.867C20.9064 108.992 20.9167 109.119 20.9144 109.247C20.9176 109.361 20.9125 109.475 20.899 109.589Z" fill="#263238"/>
<path d="M17.6812 105.97C17.6042 106.096 17.1499 105.932 16.4339 105.864C15.5276 105.762 14.6109 105.925 13.797 106.331C13.0013 106.772 12.3536 107.432 11.9339 108.232C11.5912 108.855 11.4758 109.319 11.3256 109.311C11.1755 109.304 11.0562 108.794 11.2717 107.977C11.4244 107.442 11.6851 106.943 12.0383 106.51C12.3915 106.077 12.8299 105.719 13.327 105.457C13.824 105.196 14.3695 105.036 14.9306 104.989C15.4917 104.941 16.0568 105.006 16.5917 105.18C17.3963 105.457 17.7504 105.868 17.6812 105.97Z" fill="white"/>
<path d="M18.9737 106.772C18.7465 106.928 18.5233 107.004 18.4694 106.951C18.4155 106.898 18.4694 106.677 18.6349 106.445C18.8004 106.213 19.0198 106.115 19.1661 106.24C19.3124 106.366 19.2008 106.624 18.9737 106.772Z" fill="white"/>
<path d="M48.2953 128.855C48.226 129.117 41.3161 127.623 32.8665 125.518C24.4168 123.412 17.6109 121.485 17.6802 121.215C17.7495 120.945 24.6555 122.443 33.109 124.552C41.5625 126.662 48.3607 128.589 48.2953 128.855Z" fill="#263238"/>
<path d="M7.57106 100.938C7.56486 100.899 7.56486 100.859 7.57106 100.82C7.57106 100.744 7.598 100.63 7.63265 100.478C7.72993 100.044 7.88936 99.6253 8.10614 99.2353C8.45229 98.6096 8.95954 98.0852 9.57665 97.715C9.76483 97.6081 9.95889 97.5117 10.1579 97.4261C10.3749 97.3476 10.5959 97.2804 10.82 97.2247C11.0579 97.1673 11.2998 97.1279 11.5437 97.1068C11.8 97.0881 12.0574 97.0881 12.3136 97.1068C13.4498 97.2214 14.5732 97.4364 15.6704 97.7492C16.856 98.0646 18.1071 98.4561 19.4121 98.8894C22.2479 99.8566 25.0321 100.965 27.754 102.211C28.1158 102.382 28.47 102.553 28.8203 102.74C29.1666 102.928 29.4951 103.147 29.8019 103.393C30.405 103.867 30.9537 104.405 31.4379 104.997C32.331 106.206 33.1202 107.396 33.8939 108.528C35.4337 110.809 36.7348 112.876 37.8012 114.648C38.8675 116.419 39.6797 117.878 40.2302 118.897C40.5074 119.402 40.7152 119.798 40.8538 120.071C40.9193 120.197 40.9731 120.299 41.0116 120.379C41.032 120.412 41.0475 120.448 41.0578 120.486C41.0335 120.454 41.0116 120.421 40.9924 120.387L40.8038 120.075C40.6459 119.801 40.4188 119.414 40.1494 118.935C39.5758 117.931 38.7404 116.483 37.6664 114.724C36.5924 112.964 35.2605 110.892 33.7245 108.642C32.9546 107.521 32.1462 106.32 31.2724 105.134C30.795 104.555 30.2555 104.029 29.6633 103.564C29.3643 103.325 29.0449 103.111 28.7087 102.926C28.366 102.743 28.0119 102.572 27.6539 102.405C24.7899 101.071 21.9412 99.9916 19.3621 99.0871C18.0609 98.6424 16.8137 98.2471 15.6358 97.9278C14.5506 97.616 13.4405 97.3961 12.3175 97.2703C12.0676 97.2514 11.8167 97.2514 11.5668 97.2703C11.3296 97.2876 11.094 97.3231 10.8624 97.3767C10.6434 97.4281 10.4275 97.4916 10.2157 97.5667C10.0207 97.6472 9.83045 97.7386 9.64594 97.8404C9.03955 98.1932 8.53568 98.6946 8.18313 99.2961C7.96344 99.6783 7.79521 100.087 7.68269 100.512C7.6442 100.657 7.6211 100.771 7.60185 100.847C7.59485 100.878 7.58452 100.909 7.57106 100.938Z" fill="#263238"/>
<path d="M8.85382 72.1355C8.79013 72.2831 8.71009 72.4233 8.61515 72.5536C8.44962 72.812 8.2302 73.1959 7.92994 73.6672C7.19022 74.9062 6.5269 76.1881 5.9436 77.506C5.37061 78.822 4.87952 80.1712 4.47309 81.5463C4.31526 82.0746 4.19593 82.5079 4.11894 82.8044C4.08493 82.9618 4.03595 83.1158 3.97266 83.2642C3.97678 83.1037 4.00004 82.9443 4.04195 82.7891C4.09584 82.4813 4.19593 82.048 4.33451 81.5121C5.07674 78.7175 6.24493 76.0505 7.79906 73.6026C8.09932 73.1351 8.35338 72.7664 8.53816 72.5194C8.6282 72.3799 8.73411 72.2511 8.85382 72.1355Z" fill="#263238"/>
<g opacity="0.3">
<path d="M5.97113 103.093C5.58618 103.218 3.49975 104.503 2.61437 104.993C2.15883 105.219 1.7538 105.533 1.42321 105.917C1.09262 106.3 0.843174 106.744 0.68962 107.224C0.431704 108.19 0.712717 109.209 0.99373 110.166C1.92531 113.302 2.97237 118.935 3.8847 122.074C4.59686 116.373 5.37446 106.704 5.97113 103.093Z" fill="white"/>
</g>
<path d="M34.6455 148.201C34.6455 148.254 28.6826 147.486 21.3494 146.483C14.0161 145.48 8.08398 144.624 8.08398 144.571C8.08398 144.518 14.043 145.286 21.3801 146.289C28.7173 147.293 34.6455 148.148 34.6455 148.201Z" fill="#455A64"/>
<path d="M32.7432 149.638C32.6599 149.644 32.5763 149.644 32.493 149.638L31.777 149.562L29.1593 149.25L20.5133 148.201C17.1335 147.821 14.077 147.441 11.8712 147.125C10.7664 146.973 9.87333 146.844 9.25741 146.745L8.5491 146.631C8.4651 146.623 8.38237 146.606 8.30273 146.578C8.38577 146.567 8.46991 146.567 8.55295 146.578L9.26896 146.654L11.8866 146.966L20.5364 147.984C23.9124 148.364 26.9689 148.744 29.1747 149.06C30.2795 149.212 31.1726 149.341 31.7885 149.44L32.4968 149.554C32.5822 149.572 32.6649 149.6 32.7432 149.638Z" fill="#455A64"/>
<path d="M28.5779 150.713C27.7264 150.708 26.8763 150.646 26.0333 150.527C24.4589 150.371 22.2839 150.147 19.8741 149.854C17.4644 149.562 15.3086 149.311 13.738 149.094L11.8826 148.847C11.6537 148.826 11.427 148.785 11.2051 148.725C11.4343 148.725 11.6632 148.74 11.8903 148.771L13.7534 148.957L19.9126 149.641L26.0487 150.371L27.908 150.603C28.343 150.675 28.5971 150.713 28.5779 150.713Z" fill="#455A64"/>
<path d="M36.0273 146.563C36.0273 146.62 29.7565 145.848 22.0382 144.849C14.32 143.849 8.06457 142.99 8.07227 142.948C8.07997 142.906 14.3431 143.663 22.0652 144.666C29.7873 145.67 36.035 146.51 36.0273 146.563Z" fill="#455A64"/>
<path d="M37.1085 145.046C37.1085 145.1 30.6182 144.286 22.6267 143.264C14.6351 142.241 8.16412 141.341 8.16797 141.287C8.17182 141.234 14.6621 142.048 22.6536 143.07C30.6452 144.092 37.1162 144.993 37.1085 145.046Z" fill="#455A64"/>
<path d="M38.3328 143.26C38.3328 143.317 31.6578 142.5 23.4429 141.428C15.2281 140.356 8.56848 139.451 8.57618 139.398C8.58388 139.345 15.2512 140.158 23.4699 141.23C31.6886 142.302 38.3405 143.195 38.3328 143.26Z" fill="#455A64"/>
<path d="M39.2645 141.417C39.2645 141.474 32.474 140.637 24.109 139.55C15.744 138.463 8.97278 137.54 8.98048 137.487C8.98817 137.433 15.771 138.27 24.1359 139.353C32.5009 140.436 39.2645 141.36 39.2645 141.417Z" fill="#455A64"/>
<path d="M40.2159 139.588C40.2159 139.641 33.3677 138.798 24.9373 137.688C16.5069 136.578 9.67785 135.662 9.68555 135.609C9.69325 135.556 16.5338 136.396 24.9642 137.509C33.3946 138.623 40.2236 139.531 40.2159 139.588Z" fill="#455A64"/>
<path d="M18.1347 135.408C18.1886 135.408 17.5265 138.71 16.6527 142.758C15.7788 146.806 15.0128 150.101 14.9743 150.071C14.9358 150.041 15.5825 146.768 16.4563 142.716C17.3302 138.665 18.0924 135.396 18.1347 135.408Z" fill="#455A64"/>
<path d="M15.6166 134.993C15.6705 134.993 15.0045 138.296 14.1307 142.344C13.2568 146.392 12.5062 149.664 12.4523 149.653C12.3984 149.641 13.0643 146.354 13.9382 142.302C14.812 138.25 15.5627 134.982 15.6166 134.993Z" fill="#455A64"/>
<path d="M13.0881 134.575C13.1419 134.575 12.5145 137.703 11.6907 141.53C10.8669 145.358 10.1509 148.459 10.097 148.448C10.0431 148.436 10.6667 145.32 11.4944 141.489C12.322 137.657 13.0419 134.567 13.0881 134.575Z" fill="#455A64"/>
<path d="M10.3622 135.141C10.3648 135.284 10.348 135.425 10.3122 135.563C10.2583 135.871 10.189 136.247 10.1081 136.703C9.92722 137.703 9.6924 138.984 9.43064 140.424C9.16887 141.865 8.91096 143.195 8.69538 144.138C8.59145 144.613 8.49906 144.993 8.42977 145.255C8.40536 145.394 8.36266 145.53 8.30273 145.658C8.30523 145.518 8.32199 145.377 8.35278 145.24C8.41052 144.932 8.47596 144.556 8.5568 144.1C8.73773 143.1 8.9764 141.819 9.23431 140.379C9.49223 138.938 9.75784 137.608 9.96957 136.662C10.0774 136.19 10.1697 135.81 10.239 135.548C10.2641 135.408 10.3054 135.272 10.3622 135.141Z" fill="#455A64"/>
<path d="M21.05 135.92C21.1039 135.92 20.4648 139.109 19.6218 143.017C18.7788 146.924 18.0512 150.101 17.9973 150.071C17.9434 150.04 18.5824 146.882 19.4255 142.975C20.2685 139.068 20.9961 135.909 21.05 135.92Z" fill="#455A64"/>
<path d="M23.9444 136.502C23.9983 136.502 23.3593 139.698 22.5163 143.613C21.6732 147.528 20.9418 150.698 20.8879 150.687C20.834 150.675 21.4731 147.49 22.32 143.571C23.1668 139.653 23.8905 136.491 23.9444 136.502Z" fill="#455A64"/>
<path d="M26.9468 136.658C27.0006 136.658 26.3655 139.828 25.5263 143.708C24.6871 147.589 23.9672 150.729 23.9133 150.717C23.8595 150.706 24.4946 147.551 25.3338 143.667C26.173 139.782 26.8813 136.647 26.9468 136.658Z" fill="#455A64"/>
<path d="M29.8761 137.038C29.93 137.038 29.2987 140.189 28.4633 144.05C27.628 147.912 26.9235 151.032 26.8581 151.021C26.7927 151.01 27.4355 147.87 28.2709 144.009C29.1062 140.147 29.8222 137.026 29.8761 137.038Z" fill="#455A64"/>
<path d="M32.7749 137.604C32.8288 137.604 32.2398 140.554 31.4622 144.164C30.6846 147.775 30.0264 150.694 29.9532 150.683C29.8801 150.671 30.4883 147.737 31.2659 144.123C32.0435 140.508 32.721 137.593 32.7749 137.604Z" fill="#455A64"/>
<path d="M35.7465 137.847C35.8004 137.847 35.2537 140.603 34.5262 143.978C33.7986 147.353 33.1635 150.101 33.1057 150.071C33.048 150.04 33.5985 147.311 34.326 143.936C35.0536 140.561 35.6926 137.836 35.7465 137.847Z" fill="#455A64"/>
<path d="M38.6684 138.319C38.5053 139.54 38.2778 140.751 37.9871 141.949C37.7591 143.16 37.4661 144.359 37.1094 145.54C37.2706 144.319 37.4981 143.108 37.7907 141.911C38.0165 140.698 38.3095 139.499 38.6684 138.319Z" fill="#455A64"/>
<path d="M134.621 149.212C134.621 149.265 115.493 149.311 91.8915 149.311C68.2903 149.311 49.1621 149.265 49.1621 149.212C49.1621 149.159 68.2903 149.113 91.8915 149.113C115.493 149.113 134.621 149.159 134.621 149.212Z" fill="#263238"/>
<path d="M132.943 147.3C132.943 147.357 114.639 147.399 92.0612 147.399C69.4839 147.399 51.1719 147.357 51.1719 147.3C51.1719 147.243 69.4762 147.201 92.0612 147.201C114.646 147.201 132.943 147.247 132.943 147.3Z" fill="#263238"/>
<path d="M130.399 145.347C130.399 145.404 113.076 145.445 91.7306 145.445C70.3852 145.445 53.0586 145.404 53.0586 145.347C53.0586 145.29 70.3813 145.248 91.7306 145.248C113.08 145.248 130.399 145.293 130.399 145.347Z" fill="#263238"/>
<path d="M128.703 143.397C128.703 143.45 112.212 143.496 91.8712 143.496C71.5304 143.496 55.0469 143.45 55.0469 143.397C55.0469 143.344 71.5343 143.294 91.8827 143.294C112.231 143.294 128.703 143.34 128.703 143.397Z" fill="#263238"/>
<path d="M125.878 141.534C125.878 141.588 110.588 141.633 91.7289 141.633C72.8702 141.633 57.5762 141.588 57.5762 141.534C57.5762 141.481 72.8664 141.436 91.7289 141.436C110.591 141.436 125.878 141.481 125.878 141.534Z" fill="#263238"/>
<path d="M122.676 139.676C122.676 139.729 108.86 139.775 91.8225 139.775C74.7846 139.775 60.9688 139.729 60.9688 139.676C60.9688 139.623 74.7807 139.577 91.8225 139.577C108.864 139.577 122.676 139.619 122.676 139.676Z" fill="#263238"/>
<g opacity="0.3">
<path d="M98.2517 80.4364L26.6934 80.3262C27.7791 81.4452 29.0874 82.3304 30.5362 82.9263C31.985 83.5222 33.543 83.8158 35.1122 83.7887C40.0819 83.7621 88.4855 83.7887 96.9813 83.7887H98.2517C106.093 83.7887 147.741 83.7621 152.048 83.7887C153.412 83.8118 154.763 83.5209 155.993 82.939C157.223 82.3571 158.299 81.5003 159.135 80.4364H98.2517Z" fill="black"/>
</g>
<path d="M159.368 78.9313L145.833 55.7464C145.73 55.5677 145.582 55.4178 145.403 55.3108C145.225 55.2038 145.022 55.1431 144.813 55.1345L98.2499 53.1809L93.7806 52.9946C93.2442 52.9718 92.7092 52.9718 92.1754 52.9946L87.7061 53.1809L41.1272 55.1535C40.9186 55.1621 40.7157 55.2228 40.5373 55.3298C40.3589 55.4368 40.2109 55.5867 40.1071 55.7654L26.5607 78.9313C26.459 79.1032 26.4016 79.2971 26.3936 79.496C26.3855 79.6948 26.427 79.8927 26.5144 80.072C26.6018 80.2514 26.7325 80.4068 26.8949 80.5247C27.0573 80.6426 27.2466 80.7193 27.4461 80.7481C27.6385 80.7785 27.831 80.8051 28.062 80.8279C29.2438 80.9571 76.4964 80.8735 92.9684 80.8279C109.437 80.8621 156.689 80.9457 157.871 80.8279C158.086 80.8051 158.294 80.7785 158.487 80.7481C158.686 80.7187 158.875 80.6416 159.037 80.5235C159.199 80.4054 159.329 80.2499 159.416 80.0707C159.503 79.8914 159.544 79.6938 159.536 79.4952C159.527 79.2965 159.47 79.1029 159.368 78.9313ZM153.14 77.9545L92.9799 78.3574L32.8007 77.9545C32.5842 77.9534 32.3717 77.8961 32.1847 77.7884C31.9976 77.6806 31.8425 77.5263 31.7349 77.3407C31.6273 77.1552 31.571 76.945 31.5716 76.7312C31.5722 76.5174 31.6296 76.3075 31.7383 76.1225C34.3328 71.6908 40.85 60.6 41.8932 59.3192C43.7872 56.9969 73.0742 56.689 88.6646 56.6928C88.7589 56.7162 88.8561 56.7265 88.9533 56.7232L92.9799 56.7004L97.0026 56.7232C97.0998 56.7267 97.1971 56.7164 97.2913 56.6928C112.874 56.6928 142.169 56.9969 144.063 59.3192C145.106 60.6 151.623 71.6908 154.218 76.1225C154.326 76.3075 154.384 76.5174 154.384 76.7312C154.385 76.945 154.329 77.1552 154.221 77.3407C154.113 77.5263 153.958 77.6806 153.771 77.7884C153.584 77.8961 153.372 77.9534 153.155 77.9545H153.14Z" fill="#263238"/>
<path d="M108.26 76.6736C108.26 75.3509 108.776 71.6147 110.015 70.6189C110.974 69.8588 113.245 69.6193 114.361 69.5547H114.469C115.062 69.5547 119.027 69.6649 120.212 70.6189C121.398 71.5729 121.972 75.3509 121.968 76.6736V76.7116C121.968 77.1057 121.809 77.4837 121.527 77.7624C121.245 78.0411 120.862 78.1977 120.463 78.1977H109.769C109.571 78.1982 109.375 78.1601 109.192 78.0857C109.009 78.0112 108.842 77.9018 108.702 77.7638C108.562 77.6257 108.451 77.4617 108.375 77.2812C108.299 77.1006 108.26 76.9071 108.26 76.7116V76.6736Z" fill="#263238"/>
<g opacity="0.3">
<path d="M108.26 76.6736C108.26 75.3509 108.776 71.6147 110.015 70.6189C110.974 69.8588 113.245 69.6193 114.361 69.5547H114.469C115.062 69.5547 119.027 69.6649 120.212 70.6189C121.398 71.5729 121.972 75.3509 121.968 76.6736V76.7116C121.968 77.1057 121.809 77.4837 121.527 77.7624C121.245 78.0411 120.862 78.1977 120.463 78.1977H109.769C109.571 78.1982 109.375 78.1601 109.192 78.0857C109.009 78.0112 108.842 77.9018 108.702 77.7638C108.562 77.6257 108.451 77.4617 108.375 77.2812C108.299 77.1006 108.26 76.9071 108.26 76.7116V76.6736Z" fill="black"/>
</g>
<path d="M113.66 75.7006C113.66 73.538 114.503 67.4225 116.536 65.7882C118.102 64.5301 121.817 64.1538 123.65 64.0512C123.707 64.0474 123.765 64.0474 123.823 64.0512C124.793 64.0512 131.283 64.2336 133.227 65.792C135.256 67.4263 136.103 73.5418 136.103 75.7044V75.7691C136.103 76.0888 136.039 76.4054 135.915 76.7008C135.791 76.9962 135.609 77.2645 135.38 77.4905C135.151 77.7164 134.879 77.8955 134.579 78.0175C134.28 78.1395 133.959 78.2021 133.635 78.2016H116.128C115.804 78.2021 115.483 78.1395 115.184 78.0175C114.884 77.8955 114.612 77.7164 114.383 77.4905C114.154 77.2645 113.972 76.9962 113.848 76.7008C113.724 76.4054 113.66 76.0888 113.66 75.7691V75.7006Z" fill="#263238"/>
<g opacity="0.3">
<path d="M135.118 138.938C135.118 138.938 134.825 140.668 138.929 146.388C140.18 148.136 144.156 151.664 145.639 152.956C146.001 153.27 146.473 153.435 146.955 153.416C151.082 153.237 170.98 152.329 174.286 151.371C175.496 151.037 176.66 150.557 177.751 149.942C178.462 149.522 179.046 148.92 179.441 148.201C179.836 147.481 180.027 146.67 179.995 145.852C179.887 143.032 179.714 138.064 179.714 136.761C179.714 134.913 178.409 133.363 175.984 133.652C174.383 133.842 135.118 138.938 135.118 138.938ZM147.948 138.558L173.74 136.247L174.483 146.51L155.501 149.55L147.948 138.558Z" fill="black"/>
</g>
<g opacity="0.3">
<path d="M179.102 112.584C179.102 112.584 181.046 118.414 168.689 121.128C156.178 123.876 137.662 128.855 137.662 128.855L147.605 121.854C147.605 121.854 176.207 117.144 176.919 112.827C177.735 107.886 176.919 102.333 176.919 102.333L179.102 112.584Z" fill="black"/>
</g>
<path d="M130.832 138.763C130.874 138.744 130.918 138.728 130.963 138.718L131.348 138.608L132.841 138.197C134.143 137.859 136.025 137.376 138.369 136.844C143.05 135.768 149.568 134.48 156.808 133.317C160.431 132.739 163.884 132.207 167.04 131.797L171.514 131.211C172.81 130.997 174.122 130.887 175.436 130.881C176.538 130.866 177.619 131.183 178.535 131.789C179.206 132.263 179.775 132.865 180.206 133.56C180.481 133.995 180.684 134.471 180.806 134.97C180.851 135.143 180.879 135.32 180.887 135.499C180.769 134.822 180.515 134.176 180.14 133.598C179.703 132.923 179.135 132.339 178.47 131.88C177.568 131.298 176.509 130.999 175.432 131.021C174.125 131.035 172.821 131.152 171.533 131.371L167.067 131.994C163.918 132.397 160.465 132.933 156.847 133.515C149.61 134.681 143.093 135.947 138.404 136.985C136.056 137.498 134.17 137.961 132.865 138.273L131.363 138.653L130.978 138.744C130.93 138.755 130.881 138.761 130.832 138.763Z" fill="#263238"/>
<path d="M180.671 123.69C180.654 123.619 180.646 123.546 180.648 123.473C180.648 123.306 180.648 123.093 180.648 122.85C180.648 122.283 180.614 121.508 180.59 120.569C180.533 118.638 180.402 115.974 180.14 113.036C179.878 110.098 179.524 107.453 179.239 105.541C179.093 104.61 178.978 103.842 178.889 103.26C178.853 103.007 178.822 102.802 178.797 102.645C178.783 102.573 178.777 102.501 178.777 102.428C178.806 102.495 178.826 102.565 178.839 102.637C178.87 102.8 178.916 103.017 178.966 103.249C179.078 103.777 179.22 104.549 179.378 105.503C179.701 107.403 180.075 110.064 180.34 113.002C180.606 115.94 180.725 118.612 180.725 120.546C180.725 121.516 180.725 122.299 180.725 122.827C180.725 123.078 180.725 123.283 180.706 123.45C180.704 123.531 180.693 123.612 180.671 123.69Z" fill="#263238"/>
<path d="M172.073 97.4261C172.034 97.4261 172.026 96.7609 171.826 95.7119C171.548 94.3469 171.19 92.9991 170.752 91.6755C170.256 90.1171 169.744 88.726 169.374 87.7226L168.931 86.5292C168.868 86.3865 168.82 86.2374 168.789 86.0845C168.875 86.2164 168.947 86.3564 169.005 86.5026C169.128 86.7762 169.305 87.1753 169.505 87.6732C169.913 88.6652 170.444 90.0525 170.945 91.6184C171.385 92.9491 171.728 94.3095 171.969 95.6891C172.019 95.9514 172.03 96.1984 172.057 96.4113C172.081 96.5927 172.092 96.7756 172.088 96.9586C172.102 97.1144 172.097 97.2714 172.073 97.4261Z" fill="#263238"/>
<path d="M169.762 100.087C169.762 100.087 176.202 97.7682 177.026 102.698C177.85 107.627 177.765 112.531 176.684 114.256C175.602 115.982 165.662 118.334 165.662 118.334L148.463 122.067C148.463 122.067 147.227 122.321 147.97 120.926C148.806 119.376 153.359 109.459 155.993 107.046C160.831 102.61 169.762 100.087 169.762 100.087Z" fill="#F5F5F5"/>
<g opacity="0.3">
<path d="M163.399 118.821C163.399 118.821 163.372 107.202 164.234 105.898C165.096 104.594 175.232 99.9802 175.232 99.9802C175.232 99.9802 174.243 99.1478 172.218 99.5279C169.381 100.072 166.628 100.98 164.03 102.23C161.235 103.648 156.755 105.678 155.084 108.026C154.356 109.045 152.836 111.481 151.385 114.108C149.498 117.547 147.712 121.227 147.712 121.432C147.712 121.854 147.612 122.238 149.287 121.884C153.155 121.101 163.399 118.821 163.399 118.821Z" fill="black"/>
</g>
<path d="M157.794 117.772C160.099 117.772 161.967 115.927 161.967 113.652C161.967 111.376 160.099 109.531 157.794 109.531C155.489 109.531 153.621 111.376 153.621 113.652C153.621 115.927 155.489 117.772 157.794 117.772Z" fill="#F5F5F5"/>
<path d="M153.626 113.652C153.6 113.311 153.631 112.968 153.718 112.637C153.936 111.717 154.469 110.899 155.227 110.322C155.75 109.922 156.361 109.649 157.01 109.524C157.757 109.383 158.529 109.442 159.246 109.695C160.041 109.978 160.732 110.487 161.233 111.158C161.774 111.879 162.067 112.752 162.067 113.65C162.067 114.547 161.774 115.421 161.233 116.141C160.732 116.812 160.041 117.322 159.246 117.604C158.577 117.842 157.858 117.909 157.156 117.8C156.454 117.692 155.79 117.41 155.227 116.981C154.471 116.403 153.938 115.586 153.718 114.666C153.631 114.335 153.6 113.993 153.626 113.652C153.66 113.987 153.715 114.319 153.792 114.647C154.038 115.537 154.58 116.319 155.331 116.867C155.874 117.271 156.511 117.534 157.183 117.633C157.856 117.732 158.542 117.663 159.181 117.433C159.551 117.302 159.899 117.116 160.213 116.882C160.543 116.644 160.833 116.356 161.071 116.027C161.586 115.339 161.864 114.505 161.864 113.65C161.864 112.794 161.586 111.961 161.071 111.272C160.833 110.944 160.543 110.655 160.213 110.417C159.899 110.183 159.551 109.997 159.181 109.866C158.643 109.675 158.07 109.597 157.5 109.636C156.93 109.675 156.374 109.83 155.867 110.092C155.361 110.354 154.915 110.717 154.558 111.157C154.2 111.598 153.94 112.107 153.792 112.652C153.715 112.981 153.66 113.315 153.626 113.652Z" fill="#263238"/>
<path d="M157.796 113.473C157.069 113.472 156.356 113.664 155.731 114.029C155.106 114.395 154.592 114.919 154.243 115.548C153.902 114.938 153.728 114.251 153.739 113.555C153.749 112.858 153.943 112.177 154.302 111.577C154.661 110.977 155.172 110.48 155.784 110.135C156.397 109.79 157.09 109.608 157.796 109.608C158.501 109.608 159.194 109.79 159.807 110.135C160.42 110.48 160.931 110.977 161.289 111.577C161.648 112.177 161.842 112.858 161.853 113.555C161.863 114.251 161.689 114.938 161.349 115.548C161 114.919 160.486 114.395 159.86 114.029C159.235 113.664 158.522 113.472 157.796 113.473Z" fill="#E0E0E0"/>
<path d="M155.996 113.515C155.996 113.866 156.102 114.209 156.299 114.501C156.497 114.793 156.777 115.02 157.106 115.155C157.434 115.289 157.796 115.324 158.145 115.256C158.493 115.187 158.814 115.018 159.065 114.77C159.316 114.522 159.488 114.205 159.557 113.861C159.626 113.517 159.591 113.16 159.455 112.835C159.319 112.511 159.088 112.234 158.793 112.039C158.497 111.844 158.149 111.74 157.794 111.74C157.558 111.74 157.324 111.786 157.106 111.875C156.888 111.964 156.69 112.095 156.523 112.26C156.356 112.424 156.223 112.62 156.133 112.835C156.043 113.051 155.996 113.282 155.996 113.515Z" fill="white"/>
<path d="M155.996 113.515C155.996 113.515 155.996 113.477 155.996 113.401C155.994 113.291 156.005 113.181 156.031 113.074C156.117 112.667 156.346 112.303 156.678 112.048C156.925 111.856 157.218 111.73 157.528 111.68C157.838 111.63 158.156 111.659 158.452 111.763C158.819 111.891 159.137 112.128 159.362 112.442C159.586 112.756 159.707 113.131 159.707 113.515C159.707 113.899 159.586 114.274 159.362 114.588C159.137 114.902 158.819 115.139 158.452 115.267C158.156 115.371 157.838 115.4 157.528 115.35C157.218 115.3 156.925 115.173 156.678 114.982C156.347 114.727 156.118 114.365 156.031 113.96C156.006 113.851 155.994 113.74 155.996 113.629C155.996 113.553 155.996 113.515 155.996 113.515C155.996 113.515 156.016 113.674 156.093 113.941C156.202 114.314 156.434 114.641 156.751 114.872C156.982 115.038 157.251 115.146 157.535 115.185C157.818 115.224 158.107 115.193 158.375 115.096C158.704 114.977 158.987 114.762 159.187 114.479C159.387 114.197 159.495 113.86 159.495 113.515C159.495 113.17 159.387 112.833 159.187 112.55C158.987 112.268 158.704 112.052 158.375 111.934C158.107 111.836 157.818 111.806 157.535 111.845C157.251 111.884 156.982 111.992 156.751 112.158C156.434 112.388 156.202 112.716 156.093 113.089C156.016 113.355 156.016 113.515 155.996 113.515Z" fill="#263238"/>
<path d="M156.219 110.729C156.15 110.622 156.423 110.269 157.086 110.026C157.525 109.874 157.991 109.814 158.455 109.85C158.919 109.885 159.371 110.015 159.782 110.231C160.193 110.447 160.554 110.744 160.842 111.105C161.131 111.465 161.341 111.881 161.459 112.325C161.624 113.002 161.478 113.427 161.351 113.427C161.224 113.427 161.089 113.066 160.8 112.58C160.466 111.952 159.948 111.437 159.314 111.103C158.679 110.769 157.958 110.631 157.243 110.706C156.674 110.744 156.289 110.854 156.219 110.729Z" fill="white"/>
<path d="M155.178 111.379C154.95 111.227 154.839 110.999 154.954 110.881C155.07 110.763 155.301 110.881 155.451 111.117C155.601 111.352 155.69 111.554 155.651 111.592C155.613 111.63 155.405 111.535 155.178 111.379Z" fill="white"/>
<path d="M92.123 100.691H92.2847H92.7698L94.6291 100.668L101.47 100.63L124.035 100.577H136.458H144.357C145.135 100.524 145.907 100.753 146.528 101.219L149.492 103.716L150.709 104.743C151.057 105.013 151.458 105.21 151.886 105.32C152.231 105.407 152.587 105.439 152.941 105.415L153.711 105.393H154.196C154.251 105.386 154.307 105.386 154.362 105.393H154.196L153.715 105.419L152.926 105.461C152.106 105.534 151.288 105.299 150.635 104.803L149.407 103.792L146.424 101.318C145.828 100.872 145.087 100.659 144.341 100.721H141.885H136.462L124.039 100.744H101.47L94.6291 100.718H92.7698H92.2847C92.2301 100.714 92.176 100.705 92.123 100.691Z" fill="#263238"/>
<path d="M11.4324 154.871C11.6364 154.438 12.0753 154.134 12.9453 154.229C15.3512 154.499 40.5731 155.054 44.0492 154.229C47.5253 153.404 59.1046 140.428 64.005 139.547C68.1163 138.805 88.1067 138.406 94.443 138.589C100.783 138.406 120.774 138.805 124.885 139.547C129.785 140.428 141.191 154.674 144.667 155.51C148.143 156.346 173.539 154.51 175.945 154.241C176.811 154.146 177.249 154.45 177.457 154.883C177.551 155.093 177.59 155.323 177.572 155.552C177.553 155.78 177.478 156.001 177.352 156.194C177.226 156.387 177.054 156.547 176.851 156.658C176.648 156.769 176.419 156.829 176.187 156.833C170.817 156.985 150.072 157.213 146.196 157.148C142.123 157.08 100.479 156.327 93.4998 156.198C82.9792 156.266 47.0287 156.491 43.2254 156.544C38.7369 156.608 18.0728 156.985 12.6989 156.833C12.4653 156.83 12.2361 156.769 12.0319 156.657C11.8278 156.545 11.6551 156.384 11.5295 156.19C11.4039 155.995 11.3293 155.773 11.3123 155.543C11.2954 155.313 11.3366 155.082 11.4324 154.871Z" fill="#263238"/>
<path d="M101.515 54.7011C101.307 54.7011 101.481 58.2739 98.5549 58.2054C95.6293 58.137 90.1284 58.2054 90.1284 58.2054L87.707 53.7395L101.515 54.7011Z" fill="#263238"/>
<path d="M100.223 59.4331C100.421 59.4338 100.617 59.4806 100.794 59.5698C100.972 59.6589 101.125 59.7878 101.243 59.9462C101.939 60.885 103.333 62.831 103.371 63.4354C103.397 63.6208 103.384 63.8093 103.334 63.9897C103.284 64.1701 103.197 64.3388 103.08 64.4856C102.962 64.6324 102.816 64.7544 102.65 64.8443C102.484 64.9342 102.301 64.9902 102.113 65.0089C101.308 65.1039 85.8947 65.0089 84.2972 65.0089C84.1986 65.009 84.1004 64.9975 84.0046 64.9747C83.585 64.8721 82.4918 64.53 82.5726 63.7926C82.6496 63.1199 83.8352 61.0789 84.4589 60.045C84.5717 59.8582 84.7318 59.7035 84.9235 59.5962C85.1152 59.489 85.3318 59.4327 85.5521 59.4331H100.223Z" fill="#263238"/>
<path d="M147.366 53.7244C147.387 53.7488 147.405 53.7756 147.42 53.8042L147.57 54.0474L148.12 54.99L150.13 58.502L156.674 70.0526L162.144 79.8283L162.125 79.8055L166.494 83.2262L167.695 84.1764L168.003 84.4272C168.04 84.454 168.073 84.4846 168.103 84.5185C168.061 84.4999 168.022 84.4756 167.988 84.4462L167.664 84.2106C167.368 83.9939 166.96 83.6861 166.44 83.2984L162.025 79.9499C160.485 77.2513 158.591 73.8686 156.516 70.1932L149.995 58.5514C149.183 57.0729 148.521 55.8908 148.07 55.028L147.551 54.0664L147.424 53.8118C147.374 53.7548 147.362 53.7244 147.366 53.7244Z" fill="#263238"/>
<path d="M140.26 51.5808C140.602 51.6184 140.938 51.6976 141.261 51.8165C142.059 52.0601 142.812 52.4312 143.489 52.9149C144.15 53.4203 144.721 54.0304 145.179 54.7203C145.387 54.993 145.559 55.2906 145.691 55.6059C145.462 55.3543 145.253 55.0863 145.064 54.8039C144.582 54.1525 144.012 53.5693 143.37 53.0707C142.708 52.5948 141.983 52.2111 141.214 51.9305C140.888 51.8381 140.568 51.7212 140.26 51.5808Z" fill="#263238"/>
<g opacity="0.3">
<path d="M162.018 79.8777L162.384 80.1285C162.534 79.9461 153.492 98.6612 149.238 103.595L146.439 101.253C152.475 95.4838 156.983 86.5177 162.018 79.8777Z" fill="black"/>
</g>
<path d="M144.08 153.446C144.001 153.435 143.925 153.408 143.857 153.366C143.655 153.252 143.461 153.125 143.275 152.986C142.786 152.606 142.094 152.047 141.227 151.283C139.491 149.763 137.043 147.482 134.106 144.563C133.369 143.839 132.607 143.079 131.819 142.283C131.043 141.409 130.217 140.58 129.344 139.801C128.361 139.028 127.257 138.42 126.076 137.999C124.818 137.561 123.507 137.294 122.176 137.205C121.495 137.16 120.802 137.159 120.097 137.152L117.965 137.133L113.561 137.099L104.299 137.015L71.8056 136.692L61.9585 136.57L59.2831 136.529H58.5864H58.3516C58.3516 136.529 58.4324 136.529 58.5864 136.529H61.9624L71.8094 136.586L104.303 136.852L113.542 136.939L117.946 136.981L120.078 137C120.783 137 121.483 137 122.172 137.057C123.518 137.149 124.844 137.422 126.114 137.87C127.313 138.299 128.433 138.919 129.429 139.706C130.309 140.485 131.143 141.314 131.927 142.188C132.712 142.996 133.471 143.767 134.202 144.499C137.124 147.414 139.557 149.71 141.274 151.257C142.136 152.017 142.813 152.614 143.298 152.982C143.477 153.127 143.665 153.26 143.86 153.381C143.931 153.41 144.005 153.432 144.08 153.446Z" fill="#263238"/>
<g opacity="0.3">
<path d="M164.817 130.782C165.959 129.577 167.231 128.498 168.608 127.562C170.025 126.681 172.073 125.662 173.336 126.468C173.982 127.17 174.503 127.976 174.875 128.851C174.956 128.992 175.006 129.148 175.021 129.309C175.037 129.47 175.019 129.632 174.968 129.786C174.787 130.147 174.321 130.238 173.917 130.288L165.063 131.386C164.894 131.405 164.678 131.409 164.597 131.261C164.516 131.112 164.686 130.911 164.817 130.782Z" fill="white"/>
</g>
<path d="M167.068 155.59V155.62C167.022 155.774 167.013 155.936 167.041 156.094C167.069 156.252 167.133 156.402 167.228 156.532C167.322 156.662 167.446 156.769 167.589 156.844C167.732 156.92 167.891 156.963 168.053 156.969L174.455 156.863C174.707 156.831 174.942 156.716 175.119 156.536C175.297 156.356 175.407 156.121 175.432 155.871L175.479 155.521C175.489 155.369 175.466 155.216 175.412 155.073C175.357 154.93 175.272 154.801 175.163 154.693C175.054 154.585 174.922 154.501 174.778 154.447C174.633 154.394 174.478 154.371 174.324 154.381L167.976 154.841C167.766 154.862 167.568 154.945 167.406 155.078C167.244 155.212 167.126 155.39 167.068 155.59Z" fill="white"/>
<path d="M47.6953 151.911C47.6953 151.857 68.3286 151.812 93.7738 151.812C119.219 151.812 139.856 151.857 139.856 151.911C139.856 151.964 119.231 152.009 93.7738 152.009C68.3171 152.009 47.6953 151.968 47.6953 151.911Z" fill="#455A64"/>
<path d="M119.542 155.228H122.244L122.437 151.91H119.338L119.542 155.228Z" fill="#455A64"/>
<path d="M94.2626 155.228H96.9688L97.1574 151.91H94.0586L94.2626 155.228Z" fill="#455A64"/>
<path d="M68.9872 155.228H71.6896L71.8782 151.91H68.7832L68.9872 155.228Z" fill="#455A64"/>
<path d="M49.123 150.713C54.0119 146.551 60.5984 140.159 63.9898 139.547C68.1011 138.805 88.0877 138.406 94.4278 138.589C100.768 138.406 120.758 138.805 124.866 139.547C128.022 140.113 133.866 146.213 138.562 150.713H49.123Z" fill="#455A64"/>
<path d="M179.22 148.532C179.136 148.487 179.058 148.433 178.985 148.372L178.327 147.874L175.879 145.974H175.925L162.64 147.654L155.376 148.581H155.411L148.867 152.051L147 153.028L146.499 153.279C146.388 153.336 146.326 153.362 146.322 153.355C146.375 153.317 146.43 153.282 146.488 153.252L146.973 152.975L148.817 151.956L155.326 148.421L162.59 147.513L175.921 145.871C176.945 146.688 177.761 147.342 178.335 147.806L178.974 148.326C179.061 148.388 179.144 148.457 179.22 148.532Z" fill="#263238"/>
<path d="M146.324 141.276C146.324 141.276 145.015 139.094 146.324 138.543C147.821 137.912 172.885 134.944 173.909 134.856C175.942 134.678 176.681 135.582 177.158 137.943C177.636 140.303 178.698 146.145 176.681 147.844C174.664 149.543 171.523 150.295 165.313 150.671C159.104 151.048 155.84 151.257 152.787 149.558C149.735 147.859 146.324 141.276 146.324 141.276Z" fill="#263238"/>
<path d="M147.605 121.854C147.544 121.827 147.775 121.136 148.275 119.915C148.776 118.695 149.542 116.947 150.585 114.83C151.12 113.777 151.705 112.622 152.406 111.409C153.137 110.105 153.958 108.852 154.862 107.658C155.369 107.001 155.943 106.398 156.575 105.856C157.236 105.303 157.946 104.808 158.696 104.378C159.466 103.941 160.236 103.545 161.006 103.131C161.775 102.717 162.588 102.306 163.408 101.907C165.007 101.111 166.668 100.44 168.373 99.9004C169.192 99.6507 170.023 99.4439 170.864 99.2809C171.686 99.092 172.53 99.009 173.374 99.0338C174.234 99.054 175.069 99.3265 175.772 99.8168C176.401 100.311 176.875 100.969 177.143 101.717C177.378 102.367 177.555 103.036 177.67 103.716C177.793 104.344 177.909 104.948 178.016 105.522C178.482 107.825 178.829 109.703 179.017 111.003C179.206 112.302 179.252 113.036 179.187 113.044C179.121 113.051 178.944 112.348 178.632 111.075C178.321 109.802 177.863 107.943 177.327 105.67C177.189 105.1 177.05 104.488 176.916 103.868C176.786 103.239 176.603 102.621 176.369 102.021C176.148 101.421 175.759 100.894 175.249 100.501C174.678 100.127 174.009 99.9279 173.324 99.927C172.558 99.9221 171.794 100.01 171.049 100.189C170.243 100.357 169.447 100.566 168.662 100.813C167.007 101.347 165.396 102.005 163.843 102.781C163.034 103.162 162.245 103.58 161.467 103.986C160.69 104.393 159.928 104.788 159.189 105.199C158.484 105.597 157.814 106.054 157.187 106.563C156.597 107.057 156.059 107.608 155.582 108.209C154.685 109.356 153.864 110.558 153.122 111.808C152.398 112.979 151.782 114.089 151.197 115.13C150.073 117.19 149.211 118.885 148.602 120.052C147.994 121.219 147.671 121.884 147.605 121.854Z" fill="#263238"/>
<path d="M170.225 109.399C169.298 109.401 168.389 109.649 167.592 110.117C166.796 110.585 166.141 111.256 165.698 112.059C165.265 111.283 165.045 110.408 165.059 109.522C165.073 108.636 165.321 107.768 165.778 107.005C166.235 106.243 166.885 105.61 167.665 105.171C168.445 104.732 169.327 104.501 170.225 104.501C171.122 104.501 172.004 104.732 172.784 105.171C173.564 105.61 174.214 106.243 174.671 107.005C175.128 107.768 175.376 108.636 175.39 109.522C175.404 110.408 175.184 111.283 174.752 112.059C174.309 111.255 173.655 110.583 172.858 110.115C172.061 109.647 171.152 109.4 170.225 109.399Z" fill="#E0E0E0"/>
<path d="M168 109.433C168 109.868 168.131 110.294 168.376 110.656C168.621 111.018 168.969 111.3 169.377 111.466C169.784 111.633 170.233 111.676 170.665 111.591C171.098 111.506 171.495 111.296 171.806 110.988C172.118 110.679 172.33 110.287 172.415 109.86C172.501 109.433 172.456 108.99 172.287 108.588C172.118 108.186 171.831 107.843 171.464 107.601C171.097 107.36 170.666 107.231 170.225 107.232C169.932 107.232 169.643 107.289 169.373 107.4C169.102 107.51 168.857 107.673 168.65 107.877C168.444 108.081 168.28 108.324 168.168 108.591C168.057 108.858 167.999 109.144 168 109.433Z" fill="white"/>
<path d="M168 109.433C168 109.433 168 109.383 168 109.292C167.999 109.155 168.013 109.019 168.042 108.885C168.156 108.387 168.44 107.943 168.847 107.627C169.09 107.443 169.368 107.307 169.665 107.23C169.961 107.152 170.271 107.134 170.574 107.176C170.878 107.217 171.171 107.318 171.435 107.473C171.699 107.628 171.929 107.833 172.111 108.076C172.406 108.469 172.565 108.944 172.565 109.433C172.565 109.921 172.406 110.397 172.111 110.79C171.928 111.033 171.698 111.237 171.434 111.392C171.17 111.546 170.877 111.647 170.574 111.688C170.27 111.729 169.961 111.711 169.664 111.633C169.368 111.555 169.09 111.419 168.847 111.234C168.439 110.92 168.155 110.475 168.042 109.976C168.013 109.844 167.999 109.709 168 109.573C168 109.478 168 109.433 168 109.433C168 109.433 168 109.627 168.108 109.957C168.242 110.424 168.529 110.835 168.924 111.124C169.242 111.359 169.62 111.503 170.016 111.538C170.412 111.573 170.809 111.498 171.165 111.323C171.52 111.147 171.819 110.877 172.028 110.544C172.237 110.21 172.347 109.825 172.347 109.433C172.347 109.04 172.237 108.656 172.028 108.322C171.819 107.988 171.52 107.718 171.165 107.543C170.809 107.367 170.412 107.293 170.016 107.328C169.62 107.363 169.242 107.506 168.924 107.741C168.529 108.03 168.243 108.439 168.108 108.904C168.015 109.224 168.023 109.433 168 109.433Z" fill="#263238"/>
<path d="M165.062 109.588C165.052 109.48 165.052 109.37 165.062 109.262C165.061 109.134 165.071 109.007 165.092 108.882C165.109 108.702 165.142 108.524 165.189 108.349C165.418 107.388 165.924 106.512 166.646 105.827C167.368 105.143 168.275 104.679 169.258 104.492C170.18 104.316 171.134 104.39 172.018 104.704C172.495 104.871 172.944 105.108 173.35 105.408C173.78 105.713 174.157 106.085 174.466 106.51C175.131 107.399 175.49 108.475 175.49 109.581C175.49 110.686 175.131 111.763 174.466 112.652C173.849 113.479 172.997 114.108 172.018 114.457C171.133 114.77 170.18 114.844 169.258 114.67C168.277 114.485 167.372 114.025 166.649 113.345C165.927 112.664 165.419 111.793 165.185 110.835C165.138 110.661 165.106 110.483 165.089 110.303C165.068 110.177 165.057 110.05 165.058 109.923C165.048 109.814 165.048 109.705 165.058 109.596C165.093 110.012 165.158 110.425 165.254 110.831C165.552 111.935 166.216 112.908 167.14 113.595C167.771 114.066 168.506 114.385 169.285 114.526C170.177 114.684 171.096 114.606 171.948 114.301C172.89 113.959 173.709 113.351 174.304 112.553C174.943 111.696 175.288 110.66 175.288 109.596C175.288 108.532 174.943 107.496 174.304 106.639C174.009 106.229 173.647 105.869 173.234 105.575C172.845 105.283 172.413 105.052 171.952 104.891C171.155 104.602 170.297 104.515 169.457 104.639C168.617 104.762 167.822 105.092 167.144 105.598C166.219 106.284 165.555 107.257 165.258 108.361C165.162 108.765 165.096 109.175 165.062 109.588Z" fill="#263238"/>
<path d="M168.276 105.97C168.207 105.868 168.561 105.457 169.365 105.18C169.9 105.006 170.466 104.941 171.027 104.989C171.588 105.036 172.133 105.196 172.63 105.457C173.127 105.719 173.566 106.077 173.919 106.51C174.272 106.943 174.533 107.442 174.685 107.977C174.901 108.794 174.755 109.311 174.632 109.311C174.508 109.311 174.366 108.855 174.027 108.232C173.622 107.421 172.969 106.757 172.161 106.332C171.353 105.907 170.431 105.743 169.523 105.864C168.807 105.932 168.353 106.096 168.276 105.97Z" fill="white"/>
<path d="M166.984 106.772C166.757 106.62 166.657 106.369 166.791 106.24C166.926 106.111 167.176 106.217 167.323 106.445C167.469 106.673 167.546 106.898 167.488 106.951C167.43 107.004 167.211 106.932 166.984 106.772Z" fill="white"/>
<path d="M137.663 128.855C137.597 128.589 144.395 126.666 152.849 124.556C161.302 122.447 168.208 120.953 168.278 121.219C168.347 121.485 161.549 123.408 153.091 125.518C144.634 127.627 137.732 129.117 137.663 128.855Z" fill="#263238"/>
<path d="M178.385 100.938C178.375 100.9 178.367 100.862 178.362 100.824C178.362 100.748 178.32 100.634 178.281 100.489C178.169 100.064 178 99.6554 177.781 99.2732C177.428 98.6718 176.924 98.1703 176.318 97.8175C176.133 97.7157 175.943 97.6244 175.748 97.5439C175.536 97.4687 175.32 97.4053 175.101 97.3538C174.87 97.3003 174.634 97.2647 174.397 97.2474C174.141 97.2276 173.883 97.2276 173.627 97.2474C172.501 97.3753 171.389 97.5978 170.301 97.9125C169.123 98.2318 167.876 98.6271 166.575 99.0718C163.98 99.9764 161.147 101.056 158.268 102.375C157.91 102.542 157.555 102.713 157.213 102.895C156.877 103.081 156.557 103.294 156.258 103.534C155.667 103.998 155.129 104.525 154.653 105.104C153.775 106.29 152.971 107.491 152.197 108.612C150.657 110.892 149.337 112.945 148.259 114.693C147.181 116.441 146.334 117.901 145.776 118.904L145.125 120.075L144.952 120.375C144.91 120.444 144.891 120.478 144.887 120.474C144.897 120.437 144.913 120.401 144.933 120.368L145.091 120.06C145.229 119.786 145.437 119.391 145.714 118.885C146.265 117.867 147.081 116.407 148.143 114.636C149.206 112.865 150.522 110.782 152.054 108.517C152.824 107.377 153.614 106.194 154.507 104.986C154.991 104.394 155.54 103.856 156.143 103.382C156.449 103.136 156.778 102.917 157.124 102.728C157.475 102.542 157.829 102.371 158.191 102.2C160.91 100.963 163.692 99.8633 166.525 98.9046C167.83 98.4637 169.081 98.0722 170.266 97.7643C171.364 97.4515 172.487 97.2366 173.623 97.122C173.879 97.1032 174.137 97.1032 174.393 97.122C174.637 97.143 174.879 97.1824 175.117 97.2398C175.341 97.2955 175.562 97.3628 175.779 97.4412C175.978 97.5268 176.172 97.6232 176.36 97.7301C176.977 98.1003 177.485 98.6247 177.831 99.2504C178.047 99.6404 178.207 100.059 178.304 100.493C178.339 100.645 178.354 100.759 178.366 100.835C178.377 100.869 178.383 100.903 178.385 100.938Z" fill="#263238"/>
<g opacity="0.3">
<path d="M179.986 103.093C180.371 103.218 182.458 104.503 183.347 104.993C183.802 105.22 184.207 105.534 184.538 105.917C184.868 106.3 185.118 106.745 185.272 107.224C185.53 108.19 185.249 109.209 184.968 110.166C184.055 113.302 182.997 118.939 182.084 122.074C181.372 116.373 180.595 106.704 179.998 103.093" fill="white"/>
</g>
<path d="M151.32 148.201C151.32 148.148 157.256 147.289 164.59 146.301C171.923 145.312 177.878 144.529 177.886 144.583C177.893 144.636 171.954 145.495 164.616 146.483C157.279 147.471 151.328 148.254 151.32 148.201Z" fill="#455A64"/>
<path d="M153.211 149.638C153.291 149.61 153.373 149.592 153.457 149.584L154.166 149.47C154.782 149.375 155.675 149.246 156.779 149.09C158.985 148.79 162.042 148.41 165.418 148.015L174.068 146.996L176.693 146.681L177.409 146.604C177.492 146.596 177.576 146.596 177.659 146.604C177.579 146.632 177.497 146.65 177.413 146.658L176.704 146.772C176.088 146.867 175.195 146.996 174.091 147.152C171.885 147.452 168.828 147.832 165.452 148.227L156.806 149.246L154.185 149.558L153.473 149.634C153.386 149.644 153.298 149.645 153.211 149.638Z" fill="#455A64"/>
<path d="M157.38 150.713C157.361 150.713 157.615 150.675 158.05 150.618L159.909 150.386L166.068 149.657L172.227 148.973L174.091 148.786C174.319 148.755 174.549 148.74 174.78 148.741C174.556 148.799 174.328 148.84 174.098 148.862L172.243 149.109C170.672 149.311 168.505 149.577 166.107 149.87C163.709 150.162 161.534 150.386 159.948 150.542C159.097 150.657 158.239 150.714 157.38 150.713Z" fill="#455A64"/>
<path d="M149.93 146.563C149.93 146.51 156.177 145.654 163.896 144.662C171.614 143.67 177.877 142.891 177.885 142.944C177.892 142.998 171.641 143.857 163.923 144.845C156.204 145.833 149.937 146.62 149.93 146.563Z" fill="#455A64"/>
<path d="M148.848 145.046C148.848 144.989 155.315 144.107 163.303 143.07C171.29 142.032 177.78 141.234 177.788 141.287C177.796 141.34 171.325 142.226 163.329 143.264C155.334 144.301 148.855 145.099 148.848 145.046Z" fill="#455A64"/>
<path d="M147.629 143.26C147.629 143.207 154.277 142.298 162.492 141.23C170.707 140.162 177.374 139.33 177.382 139.398C177.389 139.467 170.737 140.36 162.519 141.428C154.3 142.496 147.633 143.305 147.629 143.26Z" fill="#455A64"/>
<path d="M146.689 141.417C146.689 141.363 153.457 140.44 161.818 139.353C170.179 138.266 176.97 137.433 176.973 137.487C176.977 137.54 170.21 138.463 161.845 139.55C153.48 140.637 146.697 141.474 146.689 141.417Z" fill="#455A64"/>
<path d="M145.746 139.588C145.746 139.531 152.567 138.6 160.994 137.505C169.421 136.411 176.265 135.567 176.273 135.605C176.28 135.643 169.451 136.589 161.021 137.684C152.591 138.779 145.75 139.641 145.746 139.588Z" fill="#455A64"/>
<path d="M167.839 135.407C167.893 135.407 168.643 138.669 169.517 142.716C170.391 146.764 171.057 150.06 170.999 150.071C170.942 150.082 170.195 146.81 169.321 142.758C168.447 138.707 167.77 135.419 167.839 135.407Z" fill="#455A64"/>
<path d="M170.341 134.993C170.399 134.993 171.149 138.254 172.023 142.302C172.897 146.35 173.563 149.641 173.505 149.653C173.447 149.664 172.697 146.392 171.827 142.344C170.957 138.296 170.287 135.005 170.341 134.993Z" fill="#455A64"/>
<path d="M172.863 134.579C172.916 134.579 173.633 137.661 174.456 141.489C175.28 145.316 175.908 148.437 175.854 148.448C175.8 148.459 175.084 145.362 174.26 141.531C173.436 137.699 172.809 134.586 172.863 134.579Z" fill="#455A64"/>
<path d="M175.594 135.141C175.651 135.272 175.692 135.408 175.717 135.548C175.786 135.81 175.879 136.19 175.987 136.662C176.198 137.608 176.464 138.942 176.722 140.379C176.98 141.816 177.219 143.1 177.399 144.1C177.48 144.545 177.546 144.921 177.603 145.24C177.637 145.377 177.653 145.517 177.653 145.658C177.594 145.53 177.551 145.394 177.526 145.255C177.457 144.993 177.369 144.613 177.261 144.138C177.045 143.195 176.78 141.88 176.526 140.424C176.272 138.969 176.029 137.703 175.848 136.703C175.767 136.259 175.698 135.883 175.644 135.563C175.608 135.425 175.591 135.284 175.594 135.141Z" fill="#455A64"/>
<path d="M164.909 135.921C164.963 135.921 165.679 139.068 166.534 142.975C167.389 146.882 168.016 150.06 167.962 150.071C167.908 150.082 167.192 146.924 166.338 143.017C165.483 139.11 164.856 135.932 164.909 135.921Z" fill="#455A64"/>
<path d="M162.013 136.502C162.067 136.502 162.783 139.657 163.637 143.571C164.492 147.486 165.123 150.675 165.069 150.687C165.016 150.698 164.3 147.532 163.445 143.613C162.59 139.695 161.959 136.513 162.013 136.502Z" fill="#455A64"/>
<path d="M159.023 136.658C159.077 136.658 159.793 139.786 160.64 143.667C161.487 147.547 162.11 150.706 162.057 150.717C162.003 150.729 161.287 147.589 160.444 143.708C159.601 139.828 158.985 136.669 159.023 136.658Z" fill="#455A64"/>
<path d="M156.081 137.038C156.139 137.038 156.851 140.147 157.69 144.009C158.53 147.87 159.153 151.01 159.099 151.021C159.045 151.033 158.329 147.912 157.494 144.051C156.659 140.189 156.027 137.049 156.081 137.038Z" fill="#455A64"/>
<path d="M153.183 137.604C153.237 137.604 153.915 140.512 154.692 144.123C155.47 147.733 156.059 150.671 156.005 150.683C155.951 150.694 155.273 147.775 154.496 144.164C153.718 140.554 153.129 137.616 153.183 137.604Z" fill="#455A64"/>
<path d="M150.211 137.848C150.265 137.848 150.9 140.561 151.627 143.929C152.355 147.296 152.901 150.052 152.848 150.063C152.794 150.075 152.159 147.346 151.431 143.982C150.703 140.618 150.157 137.859 150.211 137.848Z" fill="#455A64"/>
<path d="M147.293 138.319C147.649 139.498 147.941 140.696 148.167 141.907C148.459 143.104 148.687 144.315 148.848 145.537C148.492 144.357 148.199 143.159 147.97 141.949C147.68 140.751 147.454 139.54 147.293 138.319Z" fill="#455A64"/>
<path d="M51.3359 149.212C51.3359 149.159 70.4641 149.113 94.0654 149.113C117.667 149.113 136.795 149.159 136.795 149.212C136.795 149.265 117.667 149.311 94.0654 149.311C70.4641 149.311 51.3359 149.265 51.3359 149.212Z" fill="#263238"/>
<path d="M53.0156 147.3C53.0156 147.247 71.32 147.201 93.8973 147.201C116.475 147.201 134.787 147.247 134.787 147.3C134.787 147.353 116.482 147.399 93.8973 147.399C71.3123 147.399 53.0156 147.357 53.0156 147.3Z" fill="#263238"/>
<path d="M55.5605 145.347C55.5605 145.293 72.8833 145.248 94.2287 145.248C115.574 145.248 132.901 145.293 132.901 145.347C132.901 145.4 115.578 145.445 94.2287 145.445C72.8794 145.445 55.5605 145.404 55.5605 145.347Z" fill="#263238"/>
<path d="M57.2539 143.397C57.2539 143.34 73.749 143.294 94.0859 143.294C114.423 143.294 130.922 143.34 130.922 143.397C130.922 143.454 114.434 143.496 94.0859 143.496C73.7375 143.496 57.2539 143.45 57.2539 143.397Z" fill="#263238"/>
<path d="M60.0801 141.534C60.0801 141.481 75.3703 141.436 94.229 141.436C113.088 141.436 128.382 141.481 128.382 141.534C128.382 141.588 113.091 141.633 94.229 141.633C75.3664 141.633 60.0801 141.588 60.0801 141.534Z" fill="#263238"/>
<path d="M63.2812 139.676C63.2812 139.619 77.0971 139.577 94.135 139.577C111.173 139.577 124.989 139.619 124.989 139.676C124.989 139.733 111.177 139.775 94.135 139.775C77.0932 139.775 63.2812 139.729 63.2812 139.676Z" fill="#263238"/>
<path d="M93.4768 57.8901H92.4297V59.7487H93.4768V57.8901Z" fill="#263238"/>
<g opacity="0.3">
<path d="M34.4922 92.7358C34.4922 92.7358 36.3784 92.1011 36.005 90.7024C39.9881 92.7577 44.4263 93.8027 48.9201 93.743C56.365 93.6328 83.6349 95.2634 83.6349 95.2634L86.7607 99.5507C86.7607 99.5507 40.5859 98.494 38.8729 99.5963L34.4922 92.7358Z" fill="white"/>
</g>
<g opacity="0.3">
<path d="M17.1652 96.1299C16.7803 96.1299 28.9331 100.25 30.5076 101.55L32.9866 101.014L24.3176 86.8103L23.3205 86.5823C23.3205 86.5823 20.341 96.1299 17.1652 96.1299Z" fill="white"/>
</g>
<g opacity="0.3">
<path d="M46.3789 52.9681C46.6137 52.9681 93.9394 50.9689 93.8625 50.3569C93.7855 49.745 72.7557 49.821 63.5169 50.3569C57.7368 50.7214 52.0014 51.5953 46.3789 52.9681Z" fill="white"/>
</g>
<g opacity="0.2">
<path d="M26.5625 78.9314L65.0575 69.5548L72.3061 53.8689L41.1906 55.1422C40.9859 55.1311 40.7828 55.1839 40.6101 55.293C40.4374 55.4021 40.3038 55.5621 40.2282 55.7503L26.5625 78.9314Z" fill="white"/>
</g>
</g>
<defs>
<clipPath id="clip0_106_1142">
<rect width="65" height="69" fill="white" transform="translate(167.791) rotate(45)"/>
</clipPath>
<clipPath id="clip1_106_1142">
<rect width="186" height="127" fill="white" transform="translate(0 49)"/>
</clipPath>
</defs>
</svg>
