<svg width="209" height="97" viewBox="0 0 209 97" fill="none" xmlns="http://www.w3.org/2000/svg">
<g clip-path="url(#clip0_397_5232)">
<path d="M82.3753 8.97794C82.7775 4.43694 79.4063 0.431078 74.8455 0.0305977C70.2847 -0.369883 66.2614 2.98667 65.8592 7.52767C65.4569 12.0687 68.8281 16.0745 73.3889 16.475C77.9497 16.8755 81.9731 13.5189 82.3753 8.97794Z" fill="#407BFF"/>
<path d="M77.3773 13.8502L76.8027 15.8972L79.1792 17.1581L79.4684 14.5351L77.3773 13.8502Z" fill="#407BFF"/>
<path d="M80.8594 0.898926C81.9494 1.69479 82.8251 2.74636 83.4088 3.96023C83.9924 5.17409 84.266 6.51269 84.2051 7.85714" stroke="#407BFF" stroke-width="0.5" stroke-linecap="round" stroke-linejoin="round"/>
<path d="M84.0919 9.08301C84.1031 9.49407 84.0258 9.90275 83.8652 10.2816" stroke="#407BFF" stroke-width="0.5" stroke-linecap="round" stroke-linejoin="round"/>
<path d="M73.9693 11.7293L69.7949 8.95073L70.7682 7.49916L73.5706 9.36324L77.0532 4.77502L78.4485 5.82576L73.9693 11.7293Z" fill="white"/>
<path d="M200.756 89.1881L7.43359 93.6985V60.7793H202.617L200.756 89.1881Z" fill="#263238"/>
<path opacity="0.5" d="M200.756 89.1881L7.43359 93.6985V60.7793H202.617L200.756 89.1881Z" fill="black"/>
<path d="M0 69.2241V85.9191C0.000865681 87.6603 0.561855 89.3555 1.60075 90.7561C2.63965 92.1568 4.10182 93.1893 5.77298 93.7024L7.13708 94.1188C7.97964 94.3775 8.85876 94.4984 9.7402 94.4768L18.769 94.2666C17.8082 90.921 17.6301 87.4007 18.2484 83.9759C18.8667 80.5511 20.2651 77.3129 22.3361 74.51C24.4071 71.707 27.0956 69.4139 30.1953 67.8066C33.2951 66.1993 36.7235 65.3205 40.2174 65.2379C43.7113 65.1553 47.1777 65.8709 50.3506 67.3298C53.5234 68.7887 56.3183 70.9522 58.5207 73.6541C60.723 76.3559 62.2742 79.5243 63.0552 82.916C63.8362 86.3077 63.8262 89.8325 63.026 93.2198L154.897 91.0638C154.468 87.9674 154.684 84.8161 155.531 81.8063C156.378 78.7964 157.838 75.9923 159.82 73.5686C161.803 71.1449 164.265 69.1535 167.054 67.7184C169.843 66.2833 172.899 65.4352 176.031 65.2269C179.164 65.0186 182.306 65.4546 185.262 66.5077C188.218 67.5608 190.924 69.2085 193.213 71.3481C195.501 73.4878 197.323 76.0736 198.564 78.9446C199.806 81.8157 200.44 84.9104 200.428 88.0362C200.428 88.4798 200.389 88.9157 200.389 89.3554C200.511 89.3048 200.64 89.2581 200.757 89.1998L203.884 87.8027C205.399 87.1193 206.684 86.0154 207.586 84.6232C208.487 83.231 208.966 81.6096 208.965 79.9533V45.9211C208.965 44.3514 208.535 42.8113 207.72 41.4676C206.905 40.1239 205.737 39.0276 204.341 38.2974L180.757 25.9493C180.544 25.8367 180.369 25.6652 180.252 25.4557C180.136 25.2461 180.082 25.0074 180.099 24.7684C180.115 24.5293 180.201 24.3001 180.345 24.1085C180.49 23.9168 180.687 23.7709 180.913 23.6883L183.801 22.657C183.946 22.609 184.071 22.5132 184.154 22.3854C184.237 22.2576 184.273 22.1055 184.258 21.9541C184.242 21.8027 184.176 21.6611 184.068 21.5526C183.961 21.4441 183.82 21.3752 183.668 21.3572C172.451 19.8006 128.811 14.1188 105.888 16.9091C79.4264 20.1352 54.0675 42.9829 54.0675 42.9829C34.5793 42.2746 16.4161 49.0344 8.57544 52.4084C7.32614 52.9511 6.20469 53.7481 5.28317 54.748C4.36164 55.748 3.66043 56.9288 3.22459 58.2147L0.547202 66.1147C0.196008 67.1146 0.0111743 68.1649 0 69.2241Z" fill="#407BFF"/>
<path d="M154.92 91.0639C154.787 90.0601 154.721 89.0487 154.721 88.0362C154.721 87.5225 154.721 87.0127 154.772 86.5029L138.156 79.7354C137.184 79.3415 136.135 79.1713 135.088 79.2372L77.3034 83.0121C76.3593 83.0743 75.4377 83.3272 74.5948 83.7554L63.6156 89.3788C63.5371 90.6788 63.3501 91.9701 63.0566 93.2393L154.92 91.0639Z" fill="#263238"/>
<path d="M209 79.9415V79.0698L199.619 81.9341C200.166 83.9183 200.444 85.9667 200.444 88.0244C200.444 88.4681 200.405 88.9039 200.405 89.3437C200.526 89.2931 200.655 89.2464 200.772 89.188L203.922 87.7909C205.437 87.1062 206.72 86.0019 207.621 84.6099C208.521 83.2179 209 81.5972 209 79.9415Z" fill="#263238"/>
<path d="M2.66602 91.9122C3.55872 92.7387 4.62771 93.3534 5.79289 93.7102L7.15698 94.1266C7.9982 94.3852 8.87603 94.5062 9.75619 94.4846L18.785 94.2744C18.4592 93.1389 18.224 91.9795 18.0815 90.807L2.66602 91.9122Z" fill="#263238"/>
<path d="M177.614 63.1104C174.067 63.1096 170.56 63.86 167.326 65.312C164.092 66.7639 161.205 68.8841 158.857 71.5318C156.509 74.1795 154.754 77.2941 153.707 80.669C152.661 84.0439 152.347 87.6018 152.787 91.1066L154.952 91.0522C154.803 89.9833 154.731 88.9051 154.737 87.826C154.917 81.8904 157.418 76.2594 161.708 72.1334C165.997 68.0075 171.736 65.7129 177.7 65.7387C183.664 65.7646 189.382 68.109 193.635 72.272C197.888 76.4351 200.34 82.0875 200.468 88.0245C200.468 88.4681 200.429 88.904 200.429 89.3437C200.55 89.2931 200.675 89.2464 200.796 89.1881L202.602 88.3708V88.0245C202.592 81.4221 199.953 75.093 195.264 70.4244C190.575 65.7558 184.218 63.1284 177.587 63.1181L177.614 63.1104Z" fill="#263238"/>
<path d="M40.7931 63.1104C36.9653 63.1052 33.1874 63.9747 29.7503 65.6519C26.3131 67.3292 23.3084 69.7694 20.9675 72.7848C18.6265 75.8001 17.0118 79.3101 16.2477 83.0445C15.4835 86.779 15.5903 90.6382 16.5598 94.325L18.7799 94.2744C17.8203 90.9291 17.6433 87.4094 18.2624 83.9854C18.8815 80.5614 20.2803 77.3241 22.3514 74.5221C24.4225 71.72 27.1108 69.4277 30.2101 67.8209C33.3094 66.2142 36.7372 65.3358 40.2304 65.2532C43.7236 65.1706 47.1895 65.8859 50.3619 67.3443C53.5343 68.8027 56.3289 70.9654 58.5313 73.6664C60.7337 76.3674 62.2852 79.5348 63.0669 82.9257C63.8486 86.3166 63.8397 89.8407 63.0407 93.2276L65.2569 93.1731C66.0281 89.5446 65.9757 85.7903 65.1034 82.1845C64.2311 78.5787 62.561 75.2124 60.2151 72.3314C57.8691 69.4504 54.9065 67.1274 51.5437 65.5321C48.1808 63.9368 44.5025 63.1094 40.7774 63.1104H40.7931Z" fill="#263238"/>
<path d="M62.5654 43.9753C62.2911 44.2135 62.103 44.5348 62.03 44.8898C61.9282 45.2849 61.9785 45.7035 62.1708 46.0635C62.3632 46.4235 62.6838 46.6989 63.0696 46.8356L72.6222 49.5014C73.4642 49.7387 74.3455 49.8048 75.2136 49.696L146.022 40.9593C147.797 40.7129 149.417 39.8183 150.567 38.4492L159.862 27.6655C160.178 27.2941 160.372 26.8349 160.417 26.3502C160.542 25.1243 159.772 24.0152 158.693 23.8829C141.738 21.6413 120.299 19.6021 106.76 21.2522C89.0149 23.4081 71.137 36.6902 62.5654 43.9753Z" fill="#407BFF"/>
<path opacity="0.8" d="M62.8847 43.9753C62.6105 44.2142 62.4213 44.535 62.3453 44.8898C62.2447 45.2853 62.2959 45.7039 62.4889 46.0638C62.6819 46.4237 63.0028 46.6989 63.3889 46.8356L72.9376 49.5014C73.7795 49.7385 74.6608 49.8047 75.529 49.696L144.754 44.9716C146.478 44.7536 149.139 41.6014 151.008 39.0407L160.173 27.6655C160.491 27.2945 160.686 26.8353 160.732 26.3502C160.857 25.1243 160.087 24.0152 159.005 23.8829C142.049 21.6413 120.611 19.6021 107.075 21.2522C89.3302 23.4081 71.4679 36.6902 62.8847 43.9753Z" fill="white"/>
<g opacity="0.3">
<path d="M109.143 50.6727C108.925 50.5945 108.747 50.4334 108.648 50.2248C108.549 50.0162 108.538 49.777 108.615 49.5597C108.715 49.2873 108.893 49.0503 109.127 48.8785C109.362 48.7068 109.642 48.608 109.933 48.5946L118.359 48.2444C118.504 48.2361 118.648 48.2637 118.779 48.3249C118.911 48.386 119.024 48.4787 119.11 48.5945C119.196 48.7104 119.252 48.8458 119.273 48.9885C119.293 49.1312 119.277 49.2767 119.227 49.4118C119.127 49.6849 118.947 49.9222 118.711 50.0939C118.475 50.2656 118.194 50.3641 117.902 50.377L109.475 50.7233C109.362 50.7281 109.249 50.7109 109.143 50.6727Z" fill="black"/>
</g>
<path d="M171.81 26.6343C171.452 26.9512 171.236 27.3966 171.208 27.8723C171.18 28.3481 171.343 28.8154 171.661 29.1716L173.659 31.3354C173.888 31.5788 174.18 31.7551 174.503 31.8452L198.982 38.6049C199.408 38.7213 199.847 38.7803 200.288 38.78H205.154C204.9 38.6127 204.642 38.457 204.372 38.313L180.761 25.9377C180.474 25.7963 180.256 25.5478 180.154 25.2466C180.051 24.9453 180.073 24.6159 180.213 24.3304L172.545 26.2412C172.273 26.314 172.021 26.4485 171.81 26.6343Z" fill="#407BFF"/>
<path d="M19.3748 55.5879L11.0222 54.6851L6.22244 56.6309C5.72359 56.8343 5.27974 57.1516 4.92669 57.5572C4.57365 57.9627 4.32129 58.4453 4.18998 58.9658C4.03185 59.5741 4.1203 60.2199 4.43622 60.7638L4.52221 60.9077C4.78361 61.3581 5.17376 61.7207 5.64293 61.9494C6.1121 62.1781 6.63904 62.2626 7.1566 62.192L11.972 61.5343C12.4414 61.4652 12.886 61.2806 13.2657 60.9973L18.8237 56.8177L19.3748 55.5879Z" fill="white"/>
<path d="M54.0723 42.9868L55.4012 43.376C55.9101 43.5201 56.4467 43.5375 56.9639 43.427C57.4811 43.3164 57.9632 43.081 58.3678 42.7417C66.1107 36.2193 79.568 26.2179 94.0923 21.5557C94.1564 21.5336 94.2104 21.4894 94.2447 21.4312C94.2625 21.4004 94.274 21.3664 94.2783 21.3311C94.2826 21.2959 94.2798 21.2601 94.2699 21.226C94.2601 21.1918 94.2434 21.16 94.221 21.1324C94.1985 21.1048 94.1707 21.082 94.1392 21.0654L92.3334 20.1392C71.3834 27.362 54.0723 42.9868 54.0723 42.9868Z" fill="#407BFF"/>
<path opacity="0.8" d="M54.0723 42.9868L55.4012 43.376C55.9101 43.5201 56.4467 43.5375 56.9639 43.427C57.4811 43.3164 57.9632 43.081 58.3678 42.7417C66.1107 36.2193 79.568 26.2179 94.0923 21.5557C94.1564 21.5336 94.2104 21.4894 94.2447 21.4312C94.2625 21.4004 94.274 21.3664 94.2783 21.3311C94.2826 21.2959 94.2798 21.2601 94.2699 21.226C94.2601 21.1918 94.2434 21.16 94.221 21.1324C94.1985 21.1048 94.1707 21.082 94.1392 21.0654L92.3334 20.1392C71.3834 27.362 54.0723 42.9868 54.0723 42.9868Z" fill="white"/>
<path opacity="0.2" d="M133.45 51.7897L63.0566 56.8176L64.3817 65.4609C64.7883 68.1067 65.7744 70.631 67.2701 72.855L73.133 81.6111L133.216 73.5243L161.62 51.7975L133.45 51.7897Z" fill="white"/>
<path d="M177.591 106.996C188.117 106.996 196.65 98.5005 196.65 88.0206C196.65 77.5407 188.117 69.045 177.591 69.045C167.066 69.045 158.533 77.5407 158.533 88.0206C158.533 98.5005 167.066 106.996 177.591 106.996Z" fill="#263238"/>
<path opacity="0.4" d="M177.591 99.6526C184.043 99.6526 189.274 94.4448 189.274 88.0206C189.274 81.5964 184.043 76.3885 177.591 76.3885C171.139 76.3885 165.908 81.5964 165.908 88.0206C165.908 94.4448 171.139 99.6526 177.591 99.6526Z" fill="white"/>
<g opacity="0.3">
<path d="M177.594 77.5599H177.59C177.074 77.5599 176.656 77.9764 176.656 78.49V84.452C176.656 84.9657 177.074 85.3821 177.59 85.3821H177.594C178.11 85.3821 178.528 84.9657 178.528 84.452V78.49C178.528 77.9764 178.11 77.5599 177.594 77.5599Z" fill="white"/>
</g>
<g opacity="0.3">
<path d="M177.594 90.6669H177.59C177.074 90.6669 176.656 91.0833 176.656 91.597V97.5589C176.656 98.0726 177.074 98.489 177.59 98.489H177.594C178.11 98.489 178.528 98.0726 178.528 97.5589V91.597C178.528 91.0833 178.11 90.6669 177.594 90.6669Z" fill="white"/>
</g>
<g opacity="0.3">
<path d="M181.164 87.0477C180.948 87.1689 180.694 87.2005 180.455 87.1357C180.216 87.0708 180.013 86.9147 179.889 86.7014C179.766 86.4877 179.733 86.2341 179.798 85.9962C179.862 85.7584 180.019 85.5557 180.233 85.4327L185.416 82.4362C185.523 82.3748 185.641 82.3349 185.763 82.3189C185.885 82.3029 186.009 82.311 186.129 82.3428C186.248 82.3746 186.359 82.4295 186.457 82.5043C186.555 82.579 186.637 82.6723 186.698 82.7786C186.82 82.9926 186.853 83.2458 186.788 83.4834C186.724 83.7209 186.568 83.9236 186.354 84.0473L181.171 87.0438L181.164 87.0477Z" fill="white"/>
</g>
<g opacity="0.3">
<path d="M169.761 93.574C169.655 93.6352 169.537 93.6749 169.416 93.6908C169.294 93.7067 169.171 93.6985 169.052 93.6667C168.934 93.6349 168.823 93.58 168.726 93.5053C168.629 93.4306 168.547 93.3376 168.487 93.2315C168.425 93.1258 168.385 93.0091 168.369 92.888C168.353 92.7669 168.362 92.6438 168.393 92.5259C168.425 92.408 168.481 92.2976 168.556 92.2009C168.631 92.1043 168.724 92.0234 168.831 91.9628L174.013 88.9663C174.119 88.9047 174.236 88.8644 174.358 88.8479C174.48 88.8314 174.603 88.8389 174.722 88.8699C174.841 88.901 174.952 88.9551 175.05 89.029C175.148 89.103 175.23 89.1954 175.291 89.301C175.416 89.5152 175.451 89.7699 175.387 90.0093C175.323 90.2487 175.166 90.453 174.951 90.5774L169.765 93.574H169.761Z" fill="white"/>
</g>
<g opacity="0.3">
<path d="M185.416 93.5973L180.233 90.6008C180.127 90.5395 180.033 90.4578 179.958 90.3605C179.883 90.2632 179.828 90.1521 179.796 90.0335C179.764 89.915 179.756 89.7913 179.772 89.6696C179.788 89.5479 179.828 89.4306 179.889 89.3243C180.015 89.1108 180.221 88.9557 180.461 88.893C180.701 88.8302 180.957 88.865 181.171 88.9896L186.354 91.9862C186.568 92.1099 186.724 92.3125 186.788 92.5501C186.853 92.7876 186.82 93.0409 186.698 93.2548C186.637 93.3612 186.555 93.4544 186.457 93.5292C186.359 93.604 186.248 93.6588 186.129 93.6906C186.009 93.7225 185.885 93.7306 185.763 93.7146C185.641 93.6986 185.523 93.6587 185.416 93.5973Z" fill="white"/>
</g>
<g opacity="0.3">
<path d="M175.288 86.7013C175.163 86.9141 174.96 87.0692 174.721 87.1327C174.482 87.1962 174.227 87.1628 174.013 87.0399L168.85 84.0589C168.744 83.9984 168.65 83.9175 168.575 83.8208C168.5 83.7242 168.445 83.6137 168.413 83.4958C168.381 83.3779 168.373 83.2549 168.389 83.1338C168.405 83.0127 168.445 82.8959 168.506 82.7902C168.63 82.5774 168.834 82.4223 169.073 82.3588C169.312 82.2954 169.566 82.3288 169.78 82.4517L174.967 85.4482C175.18 85.574 175.334 85.7779 175.397 86.0159C175.46 86.254 175.426 86.5072 175.303 86.7208L175.288 86.7013Z" fill="white"/>
</g>
<path d="M176.027 88.0167C176.027 87.6039 176.192 87.2079 176.485 86.916C176.778 86.6241 177.176 86.4601 177.591 86.4601C177.9 86.4601 178.202 86.5514 178.459 86.7224C178.716 86.8935 178.917 87.1366 179.035 87.421C179.154 87.7055 179.185 88.0185 179.124 88.3204C179.064 88.6224 178.915 88.8997 178.696 89.1174C178.478 89.3351 178.199 89.4834 177.896 89.5435C177.593 89.6035 177.278 89.5727 176.992 89.4549C176.707 89.3371 176.463 89.1375 176.291 88.8816C176.119 88.6256 176.027 88.3246 176.027 88.0167Z" fill="#263238"/>
<path d="M40.7907 107C51.3163 107 59.849 98.5044 59.849 88.0245C59.849 77.5446 51.3163 69.049 40.7907 69.049C30.2651 69.049 21.7324 77.5446 21.7324 88.0245C21.7324 98.5044 30.2651 107 40.7907 107Z" fill="#263238"/>
<path opacity="0.4" d="M40.7902 99.6565C47.2424 99.6565 52.473 94.4487 52.473 88.0245C52.473 81.6003 47.2424 76.3925 40.7902 76.3925C34.338 76.3925 29.1074 81.6003 29.1074 88.0245C29.1074 94.4487 34.338 99.6565 40.7902 99.6565Z" fill="white"/>
<g opacity="0.3">
<path d="M40.7896 77.5599H40.7857C40.2698 77.5599 39.8516 77.9764 39.8516 78.49V84.452C39.8516 84.9657 40.2698 85.3821 40.7857 85.3821H40.7896C41.3055 85.3821 41.7238 84.9657 41.7238 84.452V78.49C41.7238 77.9764 41.3055 77.5599 40.7896 77.5599Z" fill="white"/>
</g>
<g opacity="0.3">
<path d="M40.7896 90.6669H40.7857C40.2698 90.6669 39.8516 91.0833 39.8516 91.597V97.5589C39.8516 98.0726 40.2698 98.489 40.7857 98.489H40.7896C41.3055 98.489 41.7238 98.0726 41.7238 97.5589V91.597C41.7238 91.0833 41.3055 90.6669 40.7896 90.6669Z" fill="white"/>
</g>
<g opacity="0.3">
<path d="M44.3548 87.0477C44.2492 87.108 44.1326 87.1468 44.0119 87.162C43.8911 87.1772 43.7685 87.1685 43.6511 87.1363C43.5338 87.1041 43.424 87.0491 43.3281 86.9744C43.2322 86.8998 43.152 86.807 43.0923 86.7014C43.0304 86.5958 42.99 86.4792 42.9734 86.3581C42.9568 86.2371 42.9643 86.1139 42.9956 85.9957C43.0268 85.8776 43.0811 85.7667 43.1554 85.6694C43.2296 85.5721 43.3225 85.4904 43.4285 85.4288L48.6191 82.4323C48.8337 82.3097 49.0884 82.2769 49.3273 82.3411C49.5662 82.4053 49.7698 82.5613 49.8933 82.7747C49.9547 82.8801 49.9945 82.9966 50.0104 83.1174C50.0263 83.2382 50.0181 83.3609 49.9861 83.4785C49.9541 83.5961 49.8991 83.7062 49.8241 83.8025C49.7491 83.8988 49.6557 83.9793 49.5493 84.0395L44.3665 87.036L44.3548 87.0477Z" fill="white"/>
</g>
<g opacity="0.3">
<path d="M31.6863 93.2315C31.5632 93.0178 31.5303 92.7642 31.5948 92.5264C31.6593 92.2885 31.8159 92.0859 32.0303 91.9629L37.2131 88.9663C37.4277 88.8417 37.6833 88.8069 37.9236 88.8697C38.164 88.9324 38.3695 89.0875 38.4951 89.301C38.5573 89.4071 38.5977 89.5245 38.6141 89.6463C38.6304 89.7681 38.6224 89.8919 38.5904 90.0106C38.5584 90.1293 38.5032 90.2405 38.4278 90.3378C38.3524 90.4351 38.2583 90.5165 38.1511 90.5774L32.9723 93.574C32.8654 93.636 32.7472 93.6763 32.6245 93.6927C32.5019 93.709 32.3772 93.701 32.2577 93.6692C32.1382 93.6374 32.0262 93.5823 31.9281 93.5072C31.8301 93.4321 31.7479 93.3384 31.6863 93.2315Z" fill="white"/>
</g>
<g opacity="0.3">
<path d="M49.8935 93.2587C49.7694 93.4715 49.5655 93.6266 49.3267 93.6901C49.0879 93.7535 48.8335 93.7202 48.6193 93.5973L43.4287 90.6007C43.2143 90.4757 43.0585 90.271 42.9955 90.0317C42.9325 89.7924 42.9674 89.538 43.0926 89.3243C43.154 89.2188 43.2358 89.1265 43.3331 89.0526C43.4305 88.9787 43.5415 88.9246 43.6599 88.8936C43.7783 88.8625 43.9017 88.8549 44.023 88.8714C44.1443 88.8879 44.2611 88.9281 44.3668 88.9896L49.5496 91.9861C49.7633 92.1098 49.9191 92.3127 49.9829 92.5505C50.0466 92.7883 50.0131 93.0416 49.8896 93.2548L49.8935 93.2587Z" fill="white"/>
</g>
<g opacity="0.3">
<path d="M38.4883 86.7091C38.3628 86.9216 38.1576 87.0758 37.918 87.1379C37.6783 87.1999 37.4237 87.1646 37.2101 87.0399L32.0274 84.0589C31.8136 83.9352 31.6578 83.7323 31.5941 83.4945C31.5304 83.2567 31.5639 83.0034 31.6873 82.7902C31.7489 82.6839 31.8309 82.5906 31.9286 82.5159C32.0264 82.4411 32.138 82.3862 32.257 82.3544C32.3761 82.3226 32.5003 82.3145 32.6225 82.3305C32.7447 82.3465 32.8626 82.3864 32.9693 82.4477L38.1482 85.4443C38.3619 85.5679 38.5177 85.7709 38.5815 86.0087C38.6452 86.2465 38.6117 86.4997 38.4883 86.713V86.7091Z" fill="white"/>
</g>
<path d="M40.7939 86.4601C41.1031 86.4601 41.4054 86.5514 41.6625 86.7224C41.9196 86.8935 42.12 87.1366 42.2383 87.421C42.3567 87.7055 42.3876 88.0185 42.3273 88.3204C42.267 88.6224 42.1181 88.8997 41.8994 89.1174C41.6808 89.3351 41.4022 89.4834 41.0989 89.5435C40.7956 89.6035 40.4813 89.5727 40.1956 89.4549C39.9099 89.3371 39.6657 89.1375 39.494 88.8816C39.3222 88.6256 39.2305 88.3246 39.2305 88.0167C39.2305 87.6039 39.3952 87.2079 39.6884 86.916C39.9816 86.6241 40.3793 86.4601 40.7939 86.4601Z" fill="#263238"/>
<path opacity="0.3" d="M206.998 52.2294C207.301 52.132 207.553 51.9196 207.699 51.6383C207.845 51.357 207.874 51.0296 207.78 50.7272C207.557 46.7344 206.705 43.1775 204.262 40.7296C204.181 40.4689 204.014 40.2433 203.787 40.0898C203.561 39.9364 203.288 39.8642 203.015 39.8851L188.487 41.2511C188.234 41.2791 187.996 41.3853 187.807 41.5546C187.57 41.7678 187.428 42.0659 187.412 42.3833C187.396 42.7008 187.507 43.0117 187.721 43.2475L191.88 47.7151C192.026 47.8677 192.209 47.9803 192.411 48.042L206.314 52.2371C206.538 52.2989 206.775 52.2962 206.998 52.2294Z" fill="black"/>
<path d="M62.03 44.8665C61.9282 45.2615 61.9785 45.6801 62.1708 46.0401C62.3632 46.4001 62.6838 46.6756 63.0696 46.8123L72.6222 49.4781C73.484 49.7404 74.3758 49.8921 75.2762 49.9295L78.2819 49.731L75.4364 34.4875C68.8856 38.7683 68.4361 38.9629 62.5381 43.9481C62.2729 44.1911 62.0945 44.5135 62.03 44.8665Z" fill="#263238"/>
<path d="M124.238 20.7618L118.242 46.8084L126.087 46.248L129.671 21.0148C127.834 20.9058 126.023 20.8215 124.238 20.7618Z" fill="#263238"/>
<path d="M149.141 41.3757L160.163 27.6655C160.487 27.2915 160.687 26.8264 160.733 26.3346C160.859 25.1048 160.081 23.9996 159.002 23.8673C156.743 23.5637 154.339 23.268 151.939 22.98" fill="#263238"/>
<path d="M70.7133 47.5128C70.2597 47.5184 69.8095 47.435 69.3883 47.2673C68.9672 47.0995 68.5834 46.8508 68.2588 46.5353C67.9343 46.2197 67.6754 45.8436 67.497 45.4284C67.3186 45.0132 67.2241 44.567 67.219 44.1154C67.2091 43.3305 67.4688 42.5659 67.955 41.948C68.4412 41.3302 69.1248 40.8962 69.8925 40.718L74.4968 39.6439L75.6694 47.326L70.811 47.5128H70.7133Z" fill="#407BFF"/>
<path opacity="0.3" d="M74.321 47.3805L75.6655 47.326L74.4969 39.6439L73.1797 39.9552L74.321 47.3805Z" fill="black"/>
<path opacity="0.6" d="M125.927 46.2479C125.982 48.9487 125.955 51.8052 125.662 53.2528C125.009 56.4946 119.932 80.2101 119.932 80.2101" stroke="black" stroke-width="0.5" stroke-linecap="round" stroke-linejoin="round"/>
<path opacity="0.6" d="M61.9863 45.4385C61.9863 45.4385 63.5029 65.9395 65.8128 70.088C68.0681 74.1353 74.5954 83.7437 74.5954 83.7437" stroke="black" stroke-width="0.5" stroke-linecap="round" stroke-linejoin="round"/>
<path opacity="0.6" d="M56.6738 43.4888C56.6738 43.4888 40.4571 47.4777 35.6808 48.256C31.7722 48.8825 15.8173 52.7469 11.0215 54.7005" stroke="black" stroke-width="0.5" stroke-linecap="round" stroke-linejoin="round"/>
<path opacity="0.8" d="M171.81 26.6343C171.452 26.9512 171.236 27.3966 171.208 27.8723C171.18 28.3481 171.343 28.8154 171.661 29.1716L173.659 31.3354C173.888 31.5788 174.18 31.7551 174.503 31.8452L198.982 38.6049C199.408 38.7213 199.847 38.7803 200.288 38.78H205.154C204.9 38.6127 204.642 38.457 204.372 38.313L180.761 25.9377C180.474 25.7963 180.256 25.5478 180.154 25.2466C180.051 24.9453 180.073 24.6159 180.213 24.3304L172.545 26.2412C172.273 26.314 172.021 26.4485 171.81 26.6343Z" fill="white"/>
<path d="M90.7344 36.9703C90.7344 36.9703 93.658 47.2092 95.0807 47.575C97.6526 48.2327 106.353 46.7461 106.181 46.462L105.47 42.8545C105.47 42.8545 96.5855 42.2162 96.4018 42.2863L93.5837 35.8651L90.7344 36.9703Z" fill="#E1715B"/>
<path d="M93.6037 37.663C93.6037 37.663 94.491 36.8419 94.5144 35.8457C94.5379 34.8494 94.8271 34.0594 94.792 33.3161C94.7568 32.5728 94.1353 33.3589 93.8891 33.8454C93.6428 34.3318 93.3575 34.8805 93.0214 34.6237C92.6852 34.3668 91.2195 31.1212 90.7114 30.8449C90.2033 30.5686 90.2775 31.1602 90.2775 31.1602C90.2775 31.1602 89.8867 30.3818 89.5505 30.4441C89.4606 30.4441 89.2769 30.6465 89.3903 31.0317C89.6522 31.8918 90.2932 33.6664 90.2932 33.6664C90.258 33.5652 89.3082 31.4287 89.1206 31.1251C88.8822 30.736 88.5656 30.6659 88.3389 30.8138C88.0184 31.0239 89.1011 33.7131 89.0698 33.857C89.0698 33.857 88.4952 32.3004 88.0066 32.2148C87.5181 32.1292 87.8269 33.1449 88.2646 33.9816C88.6555 34.7599 89.2574 36.3632 89.7421 37.0949C90.3401 38.0055 90.9498 38.4881 91.9621 38.3324C92.5581 38.2539 93.1237 38.0234 93.6037 37.663Z" fill="#E1715B"/>
<path opacity="0.3" d="M90.3477 31.2653C90.6369 31.8957 90.8909 32.5417 91.1294 33.2111" stroke="black" stroke-width="0.25" stroke-linecap="round" stroke-linejoin="round"/>
<path opacity="0.3" d="M89.2754 34.4875C89.977 33.9153 90.8318 33.5608 91.7339 33.4679" stroke="black" stroke-width="0.25" stroke-linecap="round" stroke-linejoin="round"/>
<path opacity="0.3" d="M92.7978 35.0245C92.4823 35.2255 92.2479 35.5306 92.1357 35.8864C92.0235 36.2421 92.0407 36.6259 92.1842 36.9703" stroke="black" stroke-width="0.25" stroke-linecap="round" stroke-linejoin="round"/>
<path d="M113.665 33.5496C113.665 33.5496 116.917 30.8255 116.792 29.8993C116.667 28.9731 116.131 29.2649 116.131 29.2649C116.131 29.2649 117.257 27.0584 116.131 26.677C115.006 26.2956 114.959 26.677 114.959 26.677C114.959 26.677 115.401 24.8752 114.521 24.342C113.849 23.9256 113.567 24.7546 113.567 24.7546C113.567 24.7546 112.289 22.7815 110.757 22.8088C110.003 22.8671 109.631 23.3536 109.737 23.9334C109.737 23.9568 109.737 23.9801 109.737 24.0074C109.737 24.0346 106.649 22.6687 105.215 23.5092C103.78 24.3498 105.653 25.2721 105.653 25.2721C105.653 25.2721 102.643 24.9569 102.057 26.1633C101.588 27.1207 102.924 27.7667 102.924 27.7667C102.601 27.8869 102.303 28.065 102.045 28.292C101.865 28.4464 101.737 28.6513 101.677 28.8798C101.617 29.1082 101.628 29.3495 101.708 29.5716C101.789 29.7938 101.935 29.9865 102.128 30.1242C102.32 30.2619 102.55 30.3381 102.788 30.3429H102.795C102.956 30.3429 103.241 30.3818 103.358 30.2729C103.358 30.2729 102.842 31.3586 103.952 31.705C105.062 32.0513 105.598 30.771 105.598 30.771L113.665 33.5496Z" fill="#263238"/>
<path d="M112.641 40.6012C112.641 40.6012 112.458 39.0446 113.576 35.2425C113.576 35.2425 113.372 35.1491 113.372 35.1452C113.529 34.612 113.689 34.1217 113.845 33.6975L108.619 36.8809C108.741 38.095 108.295 40.4417 108.033 41.4302L109.386 43.7145L112.641 40.6012Z" fill="#E1715B"/>
<path opacity="0.2" d="M108.526 38.5854L111.531 37.9199C111.258 38.85 110.429 39.9513 108.338 40.037C108.44 39.5589 108.502 39.0735 108.526 38.5854Z" fill="black"/>
<path d="M105.036 27.8912C104.418 29.0937 104.195 31.7361 106.118 31.1874C108.041 30.6387 106.099 25.8287 105.036 27.8912Z" fill="#263238"/>
<path d="M113.897 31.1563C113.534 34.4486 113.401 36.3166 111.642 37.9161C108.996 40.325 105.06 38.6594 104.423 35.3165C103.848 32.3082 104.536 27.4243 107.85 26.2957C108.585 26.0458 109.371 25.9852 110.135 26.1197C110.899 26.2542 111.617 26.5793 112.221 27.0648C112.825 27.5502 113.295 28.1801 113.588 28.8956C113.881 29.6111 113.988 30.3889 113.897 31.1563Z" fill="#E1715B"/>
<path d="M109.1 31.8879C109.1 32.2265 108.893 32.4872 108.67 32.4756C108.447 32.4639 108.279 32.1798 108.279 31.8412C108.279 31.5026 108.49 31.238 108.713 31.2536C108.936 31.2691 109.116 31.5493 109.1 31.8879Z" fill="#263238"/>
<path d="M105.766 31.7984C105.766 32.1331 105.559 32.3977 105.336 32.386C105.113 32.3743 104.945 32.0903 104.964 31.7517C104.984 31.4131 105.172 31.1485 105.394 31.1602C105.617 31.1718 105.785 31.4598 105.766 31.7984Z" fill="#263238"/>
<path d="M106.86 31.6583C106.86 31.6583 105.707 33.2889 105.328 33.9583C105.782 34.4058 106.606 34.2463 106.606 34.2463L106.86 31.6583Z" fill="#FD504E"/>
<path d="M109.922 30.0744C109.895 30.0802 109.866 30.0789 109.84 30.0708C109.813 30.0626 109.789 30.0478 109.77 30.0277C109.632 29.8838 109.462 29.7738 109.274 29.7062C109.086 29.6387 108.885 29.6156 108.687 29.6386C108.646 29.6468 108.603 29.6386 108.569 29.6156C108.534 29.5926 108.509 29.5568 108.501 29.516C108.493 29.4752 108.501 29.4328 108.524 29.3982C108.547 29.3635 108.583 29.3394 108.624 29.3311C108.876 29.2984 109.131 29.3258 109.37 29.4111C109.608 29.4964 109.823 29.6371 109.996 29.8215C110.011 29.836 110.023 29.8532 110.031 29.8723C110.039 29.8913 110.043 29.9118 110.043 29.9324C110.043 29.953 110.039 29.9735 110.031 29.9925C110.023 30.0116 110.011 30.0288 109.996 30.0433C109.975 30.0611 109.949 30.072 109.922 30.0744Z" fill="#263238"/>
<path d="M104.358 30.269C104.331 30.2602 104.307 30.2444 104.288 30.2232C104.27 30.2021 104.257 30.1764 104.251 30.1487C104.246 30.1209 104.248 30.0923 104.257 30.0655C104.266 30.0388 104.282 30.015 104.304 29.9966C104.495 29.8334 104.724 29.7189 104.969 29.6626C105.215 29.6064 105.471 29.6101 105.715 29.6735C105.753 29.6879 105.785 29.7165 105.803 29.7534C105.821 29.7903 105.824 29.8327 105.811 29.8717C105.799 29.9108 105.771 29.9435 105.735 29.9631C105.699 29.9828 105.657 29.9878 105.617 29.9771C105.424 29.9267 105.222 29.9244 105.029 29.9706C104.835 30.0168 104.656 30.1099 104.507 30.2417C104.486 30.2584 104.462 30.2696 104.436 30.2744C104.41 30.2791 104.383 30.2773 104.358 30.269Z" fill="#263238"/>
<path d="M107.053 35.1763C107.588 35.009 108.569 34.6549 109.046 34.1567C109.109 34.2704 109.155 34.3923 109.183 34.5187C109.238 34.7423 109.238 34.976 109.183 35.1997C109.066 35.655 108.667 36.1492 107.588 36.4489H107.557C107.557 36.4489 106.975 36.5968 106.686 35.2814C106.705 35.2853 106.83 35.2503 107.053 35.1763Z" fill="#263238"/>
<path d="M107.053 35.1763L107.26 35.5344C108.272 35.2503 108.952 34.9156 109.183 34.5187C109.154 34.3923 109.108 34.2704 109.046 34.1567C108.569 34.6549 107.588 35.0246 107.053 35.1763Z" fill="white"/>
<path d="M107.592 36.4489C108.671 36.1493 109.069 35.6706 109.187 35.1997C108.779 35.3217 108.397 35.514 108.057 35.7679C107.834 35.941 107.672 36.1791 107.592 36.4489Z" fill="#FB504E"/>
<path d="M112.899 33.7091C112.598 33.5793 112.341 33.3675 112.156 33.0982C112.033 32.8194 111.995 32.5109 112.047 32.2109C112.076 31.8988 112.12 31.5884 112.18 31.2808C111.887 31.4287 111.531 31.1913 111.367 30.8916C111.166 30.4397 111.1 29.94 111.175 29.4517C110.987 29.4939 110.791 29.4859 110.607 29.4285C110.423 29.3711 110.258 29.2663 110.128 29.1248C110.006 28.976 109.939 28.7897 109.939 28.5975C109.939 28.4053 110.006 28.219 110.128 28.0702C108.903 28.2331 107.657 28.1564 106.461 27.8445C106.488 27.926 106.491 28.0134 106.47 28.0966C106.45 28.1798 106.406 28.2556 106.344 28.3154C105.911 28.8733 105.286 29.2529 104.589 29.3817C104.488 29.3817 104.363 29.405 104.304 29.3194C104.28 29.2697 104.272 29.2142 104.28 29.1598C104.315 28.826 104.415 28.5022 104.575 28.2071C104.736 27.9119 104.953 27.6511 105.215 27.4397C105.739 27.0187 106.333 26.6909 106.97 26.4707C108.005 26.0485 109.099 25.7861 110.214 25.6924C111.333 25.5971 112.458 25.7901 113.481 26.2528C113.707 26.3481 113.909 26.49 114.075 26.6692C114.211 26.8576 114.31 27.0703 114.365 27.2958C114.777 28.6431 114.933 30.0553 114.826 31.4598" fill="#263238"/>
<path d="M115.072 33.9699C114.928 34.3556 114.708 34.709 114.426 35.0096C114.143 35.3102 113.804 35.552 113.427 35.7211C112.414 36.1648 111.742 35.293 111.887 34.2579C112.016 33.3239 112.696 31.9696 113.782 31.9657C114.869 31.9618 115.424 33.0126 115.072 33.9699Z" fill="#E1715B"/>
<path opacity="0.2" d="M114.362 33.0243C114.294 32.9254 114.198 32.8492 114.085 32.8055C113.973 32.7618 113.85 32.7526 113.733 32.7791C113.498 32.8375 113.291 32.975 113.147 33.1683C112.965 33.3934 112.845 33.6616 112.799 33.9466" stroke="black" stroke-width="0.5" stroke-linecap="round" stroke-linejoin="round"/>
<path d="M107.782 45.9755C107.782 45.9755 98.0616 48.8008 94.5322 48.9254C91.0027 49.0499 83.1973 47.4076 83.1973 47.4076L83.6389 43.839L95.1067 44.4228L107.575 40.2743L107.782 45.9755Z" fill="#E1715B"/>
<path d="M104.312 48.1549L106.224 40.2899L111.074 39.4454C111.289 39.4143 115.229 39.0913 116.413 43.3993L116.675 46.8239L104.312 48.1549Z" fill="#263238"/>
<path d="M108.881 47.3726C108.611 47.3726 101.063 48.7464 101.063 48.7464L99.5 42.621C101.699 41.7165 103.947 40.9369 106.234 40.286C109.826 39.317 113.196 39.0173 113.97 40.6752C115.431 43.8546 108.881 47.3726 108.881 47.3726Z" fill="#263238"/>
<path opacity="0.3" d="M93.2168 44.3839L95.1007 44.4773L100.006 42.8039C100.006 42.8039 101.022 42.3681 100.764 42.4576C100.506 42.5471 98.4738 42.3369 98.337 42.3564C98.2002 42.3758 93.2168 44.3839 93.2168 44.3839Z" fill="black"/>
<path d="M79.8689 42.2124C79.6461 42.3447 77.0469 45.0183 77.0469 45.0183L77.555 48.3339L80.8226 44.9754L79.8689 42.2124Z" fill="#263238"/>
<path d="M83.7815 49.1278C83.504 49.263 83.184 49.2836 82.8913 49.1852C82.5985 49.0869 82.3566 48.8774 82.2181 48.6024L77.0431 38.1379C76.9073 37.8615 76.8866 37.543 76.9854 37.2515C77.0842 36.96 77.2946 36.7191 77.5708 36.5812C77.8478 36.4457 78.1674 36.4245 78.4601 36.5221C78.7528 36.6198 78.995 36.8284 79.1342 37.1027L84.3209 47.5633C84.3889 47.7013 84.429 47.8512 84.4387 48.0046C84.4484 48.158 84.4276 48.3117 84.3775 48.4571C84.3273 48.6024 84.2489 48.7365 84.1466 48.8516C84.0444 48.9667 83.9203 49.0605 83.7815 49.1278Z" fill="#263238"/>
<path d="M87.5176 44.1232L83.2534 43.5511L82.0183 42.0645C82.0183 42.0645 79.849 41.8738 79.3839 42.2591C78.9188 42.6444 78.4497 43.8663 78.4497 43.8663C78.4497 43.8663 77.883 44.8743 78.8406 45.3996C78.8406 45.3996 78.2269 46.2947 79.3213 46.929C79.3213 46.929 78.5162 47.3805 79.6692 47.8514C80.1126 48.0274 80.587 48.1133 81.0642 48.1039C81.5415 48.0946 82.0121 47.9902 82.4482 47.7969C83.0871 47.6415 83.7476 47.5928 84.4025 47.6529L88.2837 48.3339L87.5176 44.1232Z" fill="#E1715B"/>
</g>
<defs>
<clipPath id="clip0_397_5232">
<rect width="209" height="107" fill="white"/>
</clipPath>
</defs>
</svg>
