<svg width="460" height="146" viewBox="0 0 460 146" fill="none" xmlns="http://www.w3.org/2000/svg">
    <path d="M0.378906 107.4V91.6L61.7789 2H92.1789V86H110.579V107.4H92.1789V144H66.7789V107.4H0.378906ZM27.5789 86H66.7789V42L67.7789 27.2H67.3789C65.2456 32.2667 62.9122 36.6 60.3789 40.2L27.5789 85.6V86Z" fill="#071A39"/>
    <path d="M349.793 107.4V91.6L411.193 2H441.593V86H459.993V107.4H441.593V144H416.193V107.4H349.793ZM376.993 86H416.193V42L417.193 27.2H416.793C414.66 32.2667 412.326 36.6 409.793 40.2L376.993 85.6V86Z" fill="#071A39"/>
    <path d="M326 73C326 86.5186 317.701 100.652 300.367 112.103C283.151 123.477 258.493 131 230.5 131C202.507 131 177.849 123.477 160.633 112.103C143.299 100.652 135 86.5186 135 73C135 59.4814 143.299 45.3479 160.633 33.8967C177.849 22.5233 202.507 15 230.5 15C258.493 15 283.151 22.5233 300.367 33.8967C317.701 45.3479 326 59.4814 326 73Z" stroke="#397BE7" stroke-width="30"/>
    <path d="M214 97C214 97 223.951 95 230.5 95C237.049 95 247 97 247 97" stroke="#E7394F" stroke-width="3" stroke-linecap="round"/>
    <path d="M185.381 83.6008C184.873 83.0686 184.873 82.2056 185.381 81.6734L203.779 62.3992C204.287 61.8669 205.111 61.8669 205.619 62.3992C206.127 62.9314 206.127 63.7944 205.619 64.3266L187.221 83.6008C186.713 84.133 185.889 84.133 185.381 83.6008Z" fill="#E7394F"/>
    <path d="M205.619 83.6008C205.111 84.1331 204.287 84.1331 203.779 83.6008L185.381 64.3266C184.873 63.7944 184.873 62.9314 185.381 62.3992C185.889 61.867 186.713 61.867 187.221 62.3992L205.619 81.6734C206.127 82.2056 206.127 83.0686 205.619 83.6008Z" fill="#E7394F"/>
    <path d="M255.381 83.6008C254.873 83.0686 254.873 82.2056 255.381 81.6734L273.779 62.3992C274.287 61.8669 275.111 61.8669 275.619 62.3992C276.127 62.9314 276.127 63.7944 275.619 64.3266L257.221 83.6008C256.713 84.133 255.889 84.133 255.381 83.6008Z" fill="#E7394F"/>
    <path d="M275.619 83.6008C275.111 84.1331 274.287 84.1331 273.779 83.6008L255.381 64.3266C254.873 63.7944 254.873 62.9314 255.381 62.3992C255.889 61.867 256.713 61.867 257.221 62.3992L275.619 81.6734C276.127 82.2056 276.127 83.0686 275.619 83.6008Z" fill="#E7394F"/>
</svg>