<svg width="38" height="38" viewBox="0 0 38 38" fill="none" xmlns="http://www.w3.org/2000/svg">
<circle cx="19" cy="19" r="19" fill="white"/>
<g clip-path="url(#clip0_489_2)">
<path d="M19.3208 27.6357C17.4983 27.636 15.716 27.101 14.1949 26.0972L10.6134 27.2413L11.7744 23.781C10.6185 22.1954 9.99703 20.2831 10 18.3208C10 13.1839 14.1786 9.00586 19.3149 9.00586C24.4513 9.00586 28.6299 13.1839 28.6299 18.3208C28.6299 23.4577 24.453 27.6357 19.3149 27.6357H19.3208Z" fill="#FEFEFE"/>
<path d="M19.3206 9.00488C14.1837 9.00488 10.0054 13.1834 10.0054 18.3201C10.0054 20.3572 10.6626 22.2466 11.7797 23.7802L10.6185 27.2415L14.1985 26.097C15.6715 27.0718 17.4296 27.6358 19.3244 27.6358C24.4613 27.6358 28.6396 23.4571 28.6396 18.3206C28.6396 13.184 24.4612 9.00535 19.3244 9.00535H19.319L19.3206 9.00488Z" fill="#0DC141"/>
<path d="M16.7193 13.7375C16.5445 13.3046 16.4018 13.2889 16.128 13.2714L15.8158 13.2598C15.4604 13.2598 15.0876 13.3646 14.8627 13.5936C14.5889 13.8732 13.9097 14.5245 13.9097 15.8608C13.9097 17.1972 14.8843 18.4893 15.0165 18.6705C15.1534 18.8452 16.9168 21.6333 19.6553 22.7669C21.7968 23.6542 22.4317 23.572 22.9193 23.4677C23.6312 23.3145 24.5237 22.7885 24.7485 22.1535C24.9734 21.5185 24.9734 20.9768 24.907 20.8603C24.8406 20.7437 24.6606 20.6855 24.3868 20.5428C24.113 20.4 22.7824 19.7488 22.5302 19.6608C22.2838 19.5676 22.0484 19.6008 21.862 19.8635C21.5999 20.2305 21.3418 20.6034 21.1338 20.8271C20.9696 21.0018 20.701 21.0251 20.4767 20.9319C20.1755 20.8061 19.332 20.5101 18.2922 19.5845C17.4871 18.8679 16.9395 17.9743 16.7805 17.7063C16.6214 17.4326 16.7641 17.2735 16.89 17.1255C17.0269 16.9554 17.158 16.8354 17.2954 16.677C17.4329 16.5185 17.5092 16.4358 17.5966 16.25C17.6898 16.0752 17.624 15.883 17.5582 15.7461C17.4923 15.6092 16.9447 14.2722 16.7205 13.7305L16.7193 13.7375Z" fill="#FEFEFE"/>
</g>
<defs>
<clipPath id="clip0_489_2">
<rect width="18.6415" height="18.6415" fill="white" transform="translate(10 9)"/>
</clipPath>
</defs>
</svg>
